<svg xmlns="http://www.w3.org/2000/svg" data-name="Layer 1" width="667.189" height="648.099"><path d="M517.483 207.89a5.636 5.636 0 0 1-.263-10.585l.917-1.29-.01-.4c-.348-13.411-43.71 6.721-49.262 17.038a44.774 44.774 0 0 0-4.853 14.635 179.51 179.51 0 0 1 11.824-75.401 173.266 173.266 0 0 1 8.012-17.623q3.692-7.032 7.986-13.709a181.588 181.588 0 0 1 61.472-58.66c9.344 4.25 18.28 6.053 26.293-12.143 1.425-3.237 4.977-5.137 6.778-8.172a45.662 45.662 0 0 1-2.85-.816l-.884-.293-.109-.037a5.584 5.584 0 0 1-.974-10.14l1.747-.993c.889-.515 1.787-1.009 2.676-1.524a2.779 2.779 0 0 0 .281-.148c1.02-.585 2.033-1.154 3.052-1.739a16.146 16.146 0 0 0-3.077-6.688c-5.32-6.718-15.915-7.623-23.319-3.326-7.419 4.29-11.764 12.668-13.06 21.13a64.708 64.708 0 0 0 1.103 21.843c-.56.332-1.129.645-1.689.978a182.76 182.76 0 0 0-28.737 21.244c5.705-10.482 3.94-57.038.546-68.076-4.077-13.257-22.248-15.235-28.661-2.937l-.185.357q1.161 1.418 2.22 2.916a7.645 7.645 0 0 1-7.919 11.846l-.154-.034c-20.656 13.79 2.705 79.7 17.671 72.767a186.547 186.547 0 0 0-26.496 40.395 176.93 176.93 0 0 0-10.242 26.67l.077-.332c5.14-20.21-24.31-64.697-37.099-66.923-7.367-1.283-13.974-4.215-15.62 3.08l-.077.35a51.368 51.368 0 0 1 4.36 4.675q1.161 1.418 2.22 2.915a7.645 7.645 0 0 1-7.919 11.847l-.154-.035-.316-.07c-14.138 18.443 17.622 69.449 49.027 69.375l.015.005a186.494 186.494 0 0 0-1.59 38.626l41.705 16.231c.33-.405.65-.83.965-1.242a50.846 50.846 0 0 1-11.272-5.179c4.572-2.592 9.156-5.215 13.728-7.807a2.787 2.787 0 0 0 .281-.149c2.326-1.332 4.661-2.644 6.987-3.976l.002-.002a74.477 74.477 0 0 0 4.847-18.473zM506.29 95.354l.034-.021-.045.05zm-41.648 79.681-.045-.947c.242-.577.469-1.16.687-1.764.064-.164.098-.34.162-.505-.267 1.084-.55 2.162-.801 3.252z" fill="#f1f2f2"/><path d="M451.793 215.396c-.994-118.06-96.965-213.474-215.247-213.54C117.242 1.793 21 99.659 21 218.907v391.036a38.066 38.066 0 0 0 38.066 38.065h392.726c118.96 0 215.396-98.293 215.396-217.252s-96.436-215.36-215.396-215.36z" fill="#6c63ff"/><path d="M731.16 327.22c-.993-118.058-96.965-213.473-215.247-213.538-64.675 0-122.553 28.726-162.03 74.06a213.103 213.103 0 0 1 130.463-44.35c118.282.065 214.254 95.48 215.247 213.539 118.96 0 215.396 96.436 215.396 215.396a214.607 214.607 0 0 1-52.725 141.186 215.034 215.034 0 0 0 84.292-170.896c0-118.96-96.436-215.396-215.396-215.396z" transform="translate(-279.367 -113.682)" opacity=".1" style="isolation:isolate"/><path d="M250.851 345.668c-8.778-27.976-28.74-53.635-56.347-63.093-27.61-9.457-68.035 4.95-88.791 25.635-37.966 37.838-39.899 176.504-13.815 217.582 5.189-.275 23.091-.478 28.342-.675l7.429-24.758v24.514c40.986-1.267 86.606 32.446 126.35.347 3.827-29.083 5.61-151.576-3.168-179.552z" fill="#2f2e41"/><circle cx="191.014" cy="374.237" r="59.21" fill="#ffb7b7"/><path d="M231.698 297.136c-22.617-13.79-52.76-14.187-75.736-.999-22.973 13.188-37.831 39.418-37.331 65.903 33.096 1.522 67.427 32.606 103.118 1.987l8.331-20.39 4.912 20.405q16.113-.001 32.288-.042c1.2-26.463-12.963-53.076-35.582-66.864z" fill="#2f2e41"/><path d="M244.917 337.285c13.588-25.983 37.773-47.707 66.618-52.133a61.753 61.753 0 0 1 22.757 1.15c42.472 9.532 69.043 51.87 60.741 94.599-1.646 8.476-3.57 17.244-4.944 26.981a24.454 24.454 0 0 1-29.436 20.415l-.158-.034-7.268-1.554c-21.6-4.574-46.315.595-69.749.312-34.926-.42-59.473-34.514-48.337-67.62a152.983 152.983 0 0 1 9.776-22.116z" fill="#e6e7e8"/><circle cx="298.758" cy="375.986" r="59.21" fill="#ffb7b7"/><path d="M272.351 292.905c24.7-9.571 54.438-4.632 74.719 12.412 20.279 17.042 30.264 45.487 25.088 71.466-32.844-4.355-72.13 20.167-101.844-16.281l-4.594-21.543-8.443 19.215q-15.86-2.85-31.772-5.752c3.5-26.257 22.145-49.946 46.846-59.517z" fill="#e6e7e8"/><path d="M440.712 438.711a24.104 24.104 0 0 0-36.192 7.503l-167.13 58.719 16.584 35.245 161.8-60.3a24.235 24.235 0 0 0 24.938-41.167z" fill="#ffb6b6"/><path d="m262.12 477.43-24.69 10.684-13.196 5.715-8.61 3.719a27.776 27.776 0 0 0-10.03 4.993 28.04 28.04 0 0 0 24.338 49.226l50.533-5.774a10.097 10.097 0 0 0 7.167-4.35c1.669-2.44 17.268-9.79 16.514-12.64l6.676-3.061 9.687-3.035 36.372-16.733-5.5-20.34 5.088-24.967c-.761-2.815-83.288 17.994-85.927 16.75a10.045 10.045 0 0 0-8.422-.186z" fill="#3f3d56"/><path d="M332.891 645.023h-230.84a36.11 36.11 0 0 1-36.11-36.11v-84.985a36.11 36.11 0 0 1 36.11-36.11l29.53-41.608h103.076l98.234 41.608a36.11 36.11 0 0 1 36.11 36.11v84.985a36.11 36.11 0 0 1-36.11 36.11z" fill="#3f3d56"/><path d="M415.533 645.023H209.07a36.11 36.11 0 0 1-36.11-36.11v-84.985a36.11 36.11 0 0 1 36.11-36.11l54.366-41.608H366.51l49.022 41.608a36.11 36.11 0 0 1 36.11 36.11v84.985a36.11 36.11 0 0 1-36.11 36.11z" fill="#2f2e41"/><path d="M230.012 634.485a23.183 23.183 0 0 1-35.42 3.002l-144.22 4.663-18.44.596c-18.967.614-29.892-21.33-17.971-36.096l12.809-15.865 45.814 7.186 16.566.726 106.589 4.67a23.308 23.308 0 0 1 34.273 31.118z" fill="#ffb6b6"/><path d="M102.796 454.738s-27.49-6.975-40.52 15.463C51.843 488.165 16.357 556.105 8.991 583.99c-35.942 86.619 47.625 52.125 45.286 60.296l27.958-45.891c12.148-6.074-11.235 1.765-14.316-2.59l21.431-23.292 24.296-12.148 8.914-95.106z" fill="#3f3d56"/><path d="M203.576 638.105a23.183 23.183 0 0 0 35.421 3.002l144.219 4.663 18.44.597c18.967.613 29.893-21.331 17.971-36.097l-12.809-15.865-45.814 7.186-16.566.726-106.589 4.671a23.308 23.308 0 0 0-34.273 31.117z" fill="#ffb6b6"/><path d="M330.792 458.358s27.49-6.975 40.521 15.463c10.432 17.964 45.917 85.904 53.283 113.788 35.942 86.619-47.624 52.125-45.286 60.296l-27.958-45.891c-12.147-6.074 11.236 1.765 14.316-2.59l-21.431-23.292-24.295-12.148-8.915-95.105z" fill="#2f2e41"/></svg>