<svg xmlns="http://www.w3.org/2000/svg" data-name="Layer 1" width="731.799" height="556.201"><path data-name="Path 438" d="M53.77 508.113a24.215 24.215 0 0 0 23.383-4.119c8.19-6.874 10.758-18.196 12.847-28.682l6.18-31.016-12.938 8.908c-9.305 6.406-18.818 13.019-25.26 22.298s-9.252 21.947-4.078 31.988" fill="#e6e6e6"/><path data-name="Path 439" d="M55.768 547.823c-1.628-11.863-3.303-23.88-2.158-35.871 1.014-10.65 4.263-21.05 10.878-29.58a49.206 49.206 0 0 1 12.624-11.44c1.263-.797 2.425 1.203 1.168 1.997a46.78 46.78 0 0 0-18.505 22.326c-4.028 10.246-4.675 21.415-3.981 32.3.42 6.582 1.31 13.121 2.206 19.652a1.198 1.198 0 0 1-.808 1.423 1.163 1.163 0 0 1-1.423-.808z" fill="#f2f2f2"/><path data-name="Path 442" d="M67.49 528.787a17.825 17.825 0 0 0 15.53 8.019c7.865-.374 14.419-5.86 20.318-11.07l17.452-15.41-11.55-.552c-8.306-.398-16.827-.771-24.738 1.793s-15.208 8.726-16.654 16.915" fill="#e6e6e6"/><path data-name="Path 443" d="M51.165 554.643c7.84-13.871 16.933-29.288 33.181-34.215a37.026 37.026 0 0 1 13.956-1.441c1.482.128 1.111 2.411-.367 2.284a34.398 34.398 0 0 0-22.272 5.892c-6.28 4.275-11.17 10.218-15.308 16.52-2.535 3.86-4.806 7.884-7.076 11.902-.726 1.285-2.848.357-2.114-.942z" fill="#f2f2f2"/><path d="M284.638 273.526a10.527 10.527 0 0 0-1.43.838l-46.19-18.056-1.83-11.908-18.333.414 1.192 21.396a8 8 0 0 0 6.18 7.348l54.962 12.75a10.497 10.497 0 1 0 5.449-12.782zM215.287 542.561l12.26-.001 5.832-47.288-18.094.001.002 47.288z" fill="#9f616a"/><path d="m212.16 538.558 24.143-.001h.001a15.387 15.387 0 0 1 15.387 15.386v.5l-39.53.001z" fill="#2f2e41"/><path fill="#9f616a" d="m156.287 542.561 12.26-.001 5.832-47.288-18.094.001.002 47.288z"/><path d="m153.16 538.558 24.143-.001h.001a15.387 15.387 0 0 1 15.387 15.386v.5l-39.53.001zM163.396 182.027c-3.492-14.417-6.45-30.677.135-43.954 4.569-9.213 21.47-12.315 31.16-8.996s16.693 12.323 19.774 22.14 2.723 20.398 1.38 30.605c-17.82-.343-35.638-.685-52.45.205z" fill="#2f2e41"/><circle cx="193.466" cy="161.244" r="20.779" fill="#9f616a"/><path d="M168.064 156.964a26.099 26.099 0 1 1 52.166.687c-17.785.038-35.57.076-52.166-.687zM176.221 258.683l-8.69 14.483s-23.8 44.636-22.384 81.634l5.267 46.084-5.78 11.31 3.869 19.896-7.185 14.253 12.988 68.811.553 14.923h21.003l-1.106-15.199 8.843-67.036 14.923-71.574 7.738 61.785-2.763 15.476 3.592 12.988 4.974 40.07.553 19.345 19.068 2.21 7.185-71.574 4.145-34.15L220.8 271z" fill="#2f2e41"/><path d="m173.465 188.75-12.938 5.494-7.266 30.072 15.3 39.181-5.72 19.577c17.313 29.615 38.742 33.918 63.958 14.926-5.337-14.984-4.566-30.391.753-46.114 0 0 13.265-12.352 3.998-28.411l-8.839-23.992-10.943-5.472z" fill="#cbcbcb"/><path d="m220.162 204.713 2.937-5.454s7.746 1.165 10.91 10.489 3.985 46.992 3.985 46.992l-16.573.839z" fill="#cbcbcb"/><path d="M155.237 332.558a10.743 10.743 0 0 0 3.842-16.018l8.033-78.54h-17.36l-6.384 76.69a10.8 10.8 0 0 0 11.87 17.868z" fill="#9f616a"/><path d="m171.1 203.127-6.084-8.601s-10.699-7.254-16.153 9.44-4.615 47.621-4.615 47.621l20.768 8.601z" fill="#cbcbcb"/><path fill="#f1f1f1" d="M437.799 75h96v54h-96zM635.799 33h96v54h-96zM605.799 173h96v54h-96z"/><path fill="#e5e5e5" d="M569.799 0h96v54h-96z"/><path fill="#6c63ff" d="M510.799 99.563h158v88.875h-158z"/><path fill="#3f3d56" d="M349.472 243.559h165.722V172.35h2.59v73.799H349.472v-2.59z"/><circle cx="516.489" cy="184.307" r="14.242" fill="#3f3d56"/><path fill="#6c63ff" d="M312.501 269.075h77.683v2.589h-77.683zM312.501 276.843h77.683v2.589h-77.683zM312.501 284.612h77.683v2.589h-77.683z"/><path d="M335 556H1a1 1 0 0 1 0-2h334a1 1 0 1 1 0 2z" fill="#cbcbcb"/><path data-name="Path 461" d="M310.994 537.605a10.96 10.96 0 0 1-10.583-1.865c-3.707-3.111-4.87-8.236-5.815-12.983l-2.797-14.038 5.856 4.032c4.211 2.9 8.517 5.892 11.433 10.092s4.188 9.934 1.846 14.479" fill="#e6e6e6"/><path data-name="Path 462" d="M310.493 554.6a56.667 56.667 0 0 0 .787-13.052 20.53 20.53 0 0 0-3.959-10.764 17.905 17.905 0 0 0-4.594-4.163c-.46-.29-.882.438-.425.727a17.022 17.022 0 0 1 6.734 8.124 27.253 27.253 0 0 1 1.446 11.753c-.153 2.396-.476 4.774-.803 7.152a.434.434 0 0 0 .295.518.423.423 0 0 0 .517-.295z" fill="#f2f2f2"/></svg>