<svg xmlns="http://www.w3.org/2000/svg" data-name="Layer 1" width="876.161" height="638.233"><path data-name="Path 438" d="M638.62 569.837a33.999 33.999 0 0 1-32.83-5.783c-11.5-9.652-15.105-25.549-18.038-40.271l-8.677-43.55 18.166 12.508c13.064 8.995 26.422 18.28 35.467 31.308s12.99 30.815 5.725 44.913" fill="#6c63ff"/><path data-name="Path 439" d="M635.816 625.593c2.286-16.657 4.638-33.53 3.03-50.366-1.424-14.952-5.986-29.554-15.273-41.531a69.088 69.088 0 0 0-17.726-16.063c-1.772-1.119-3.404 1.69-1.639 2.803a65.681 65.681 0 0 1 25.981 31.347c5.657 14.386 6.565 30.07 5.59 45.352-.588 9.241-1.84 18.423-3.096 27.593a1.682 1.682 0 0 0 1.134 1.997 1.634 1.634 0 0 0 1.997-1.134z" fill="#f2f2f2"/><path data-name="Path 442" d="M619.358 598.865a25.028 25.028 0 0 1-21.807 11.258c-11.042-.524-20.244-8.227-28.526-15.543l-24.504-21.635 16.217-.776c11.662-.559 23.626-1.083 34.734 2.518s21.352 12.252 23.383 23.75" fill="#e6e6e6"/><path data-name="Path 443" d="M642.278 635.168c-11.007-19.476-23.774-41.122-46.588-48.04a51.987 51.987 0 0 0-19.594-2.024c-2.08.18-1.56 3.386.515 3.208a48.297 48.297 0 0 1 31.271 8.273c8.818 6.002 15.683 14.346 21.493 23.194 3.56 5.42 6.748 11.07 9.936 16.712 1.019 1.804 3.998.501 2.967-1.323z" fill="#f2f2f2"/><circle cx="395.02" cy="348.993" r="59.76" fill="#fff"/><path d="M395.02 409.753a60.76 60.76 0 1 1 60.76-60.76 60.829 60.829 0 0 1-60.76 60.76zm0-119.52a58.76 58.76 0 1 0 58.76 58.76 58.826 58.826 0 0 0-58.76-58.76z" fill="#3f3d56"/><path d="m384.935 394.384-.399-.172c-.229-.098-5.584-2.517-3.66-12.522l.035-.11.713-1.591a34.589 34.589 0 0 0 2.998-14.92c-4.304-.1-26.37-.726-28.952-3.125a4.576 4.576 0 0 1-1.46-3.08l-.132-2.105a4.728 4.728 0 0 1 4.719-5.023h1.27l-.899-1.028a4.51 4.51 0 0 1-1.117-2.972v-1.741a4.515 4.515 0 0 1 2.322-3.945l.722-.402-.415-.415a4.513 4.513 0 0 1 2.384-7.633l4.724-.859a7.214 7.214 0 0 1 6.377-6.748l13.503-1.558a80.344 80.344 0 0 1 21.171-.936l2.068.183 20.892-2.492v27.93l-19.32 2.65-16.27 18.86a118.458 118.458 0 0 1-10.693 22.796z" fill="#ffb7b7"/><path opacity=".2" d="m383.165 392.158-.913-.409 3.14-7.02 3.679 1.134-.294.955-2.833-.872-2.779 6.212z"/><path d="m345.983 327.096-6.396-88.743 1.216-29.62-24.93 5.548 9.183 116.282a12.994 12.994 0 1 0 20.927-3.467zM223.388 245.467l-1.585-29.734-16-13-9.27 27.534-51.842 69.143a12.993 12.993 0 1 0 15.05 12.823c0-.175-.02-.345-.027-.518z" fill="#ffb7b7"/><path d="m226.257 235.95-39.052-41.681 28.997-60.671a10.222 10.222 0 0 1 5.971-5.324 10.065 10.065 0 0 1 7.857.565l.285.144zM313.406 229.38l-6.937-40.667.027-.103 16.4-64.47 1.536-.178a17.904 17.904 0 0 1 19.496 14.174l15.454 76.941z" fill="#6c63ff"/><path d="M322.24 106.733h-83v-37.5a41.5 41.5 0 0 1 83 0z" fill="#2f2e41"/><path fill="#ffb7b7" d="m428.274 573.838-14.047 11.823-52.285-48.555 20.732-17.449 45.6 54.181z"/><path d="m443.317 584.439-45.293 38.12-.482-.572a23.044 23.044 0 0 1 2.79-32.467h.002l27.663-23.284z" fill="#2f2e41"/><path fill="#ffb7b7" d="m217.724 619.763-18.359-.001-8.735-70.817 27.098.001-.004 70.817z"/><path d="m222.407 637.56-59.2-.002v-.75a23.044 23.044 0 0 1 23.042-23.041h.001l36.158.001zM137.204 601.988l9.139-104.606a671.998 671.998 0 0 1 32.495-155.628l38.27-113.75 3.342-26.49c-10.183-21.116.603-37.198 1.845-38.933l-1.328-26.314c-.026-.518-.063-1.018-.098-1.5-.38-5.17-.104-8.15 9.985-9.266l83.71-2.581c10.591-.044 17.013 1.717 19.622 5.472 3.001 4.32.62 10.583-1.683 16.638-.239.63-.48 1.26-.713 1.89l-33.157 89.028c16.046 31.019 12.953 78.458 12.92 78.935l1.175 14.03L434.443 527.82l-71.966 67.198-.32-.521-115.926-188.51-.996 190-.47.026z" fill="#2f2e41"/><circle cx="441.703" cy="204.822" r="33.921" transform="rotate(-61.337 250.389 275.903)" fill="#ffb7b7"/><circle cx="296.16" cy="22.58" r="22.58" fill="#2f2e41"/><path d="M326.24 75.733h-83v-.5a41.5 41.5 0 0 1 83 0z" fill="#2f2e41"/><circle cx="111.02" cy="264.993" r="59.76" fill="#fff"/><path d="M111.02 325.753a60.76 60.76 0 1 1 60.76-60.76 60.829 60.829 0 0 1-60.76 60.76zm0-119.52a58.76 58.76 0 1 0 58.76 58.76 58.826 58.826 0 0 0-58.76-58.76z" fill="#3f3d56"/><path d="M74.24 292.796v-27.928l19.32-2.652 16.271-18.86a118.472 118.472 0 0 1 10.692-22.795l.581-.958.4.17c.228.1 5.584 2.519 3.66 12.523l-.035.11-.713 1.592a34.583 34.583 0 0 0-2.999 14.92c4.305.1 26.37.726 28.953 3.124a4.575 4.575 0 0 1 1.46 3.082l.131 2.104a4.728 4.728 0 0 1-4.719 5.022h-1.27l.9 1.028a4.513 4.513 0 0 1 1.116 2.972v1.741a4.517 4.517 0 0 1-2.321 3.946l-.723.401.416.415a4.514 4.514 0 0 1-2.385 7.633l-4.723.86a7.214 7.214 0 0 1-6.378 6.748l-13.503 1.557a80.282 80.282 0 0 1-21.17.936l-2.069-.182z" fill="#ffb7b7"/><path opacity=".2" d="m120.647 229.257-3.679-1.133.294-.956 2.833.873 2.78-6.212.913.408-3.141 7.02z"/><path d="M875.161 638.233H1a1 1 0 1 1 0-2h874.161a1 1 0 0 1 0 2z" fill="#cbcbcb"/></svg>