<svg xmlns="http://www.w3.org/2000/svg" width="428.848" height="492.888"><g fill="#f2f2f2"><path d="M403.784 401.622c-.844-1.424-4.497.1-5.168-1.191-.67-1.288 2.724-3.25 4.663-7.73.35-.808 2.553-5.9.922-7.472-3.092-2.978-17.24 9.313-22.19 5.29-1.087-.882-1.847-2.644-5.135-5.505-1.308-1.138-2.1-1.652-2.865-1.461-1.086.271-1.173 1.725-2.337 4.584-1.747 4.287-2.78 4.028-3.799 7.449-.755 2.54-.583 4.015-1.472 4.303-1.258.407-2.416-2.286-4.01-2.045-1.628.246-2.612 3.382-2.922 5.73-.584 4.406 1.034 7.313 1.931 10.37.975 3.323 1.553 8.375-.697 15.528l-22.278 62.766c4.919-12.88 19.159-48.185 25.143-61.305 1.727-3.787 3.634-7.63 7.55-9.145 3.771-1.46 8.95-.589 15.55-2.179.772-.186 2.911-.73 3.18-1.988.223-1.04-1.035-1.622-.842-2.596.26-1.307 2.734-1.323 5.776-2.83 2.144-1.064 3.48-2.329 4.629-3.416.346-.328 5.495-5.262 4.371-7.157z"/><path d="M316.139 434.665c-.942.003-1.248 2.236-2.076 2.193-.825-.043-.809-2.275-2.448-4.52-.296-.404-2.16-2.955-3.401-2.608-2.354.658-.404 11.149-3.807 12.418-.746.279-1.83.143-4.183.931-.936.314-1.417.554-1.544.985-.18.612.508 1.073 1.575 2.47 1.6 2.094 1.175 2.527 2.56 4.013 1.029 1.104 1.803 1.445 1.688 1.964-.164.735-1.82.527-2.161 1.379-.349.87.906 2.257 1.969 3.087 1.994 1.558 3.888 1.602 5.647 2.044 1.912.48 4.559 1.655 7.42 4.823l24.378 29.044c-4.902-6.13-18.121-23.306-22.834-30.029-1.36-1.94-2.696-3.985-2.31-6.344.371-2.272 2.293-4.562 3.417-8.261.132-.432.482-1.64-.058-2.135-.446-.41-1.095.041-1.517-.335-.567-.504.14-1.724.277-3.651.097-1.36-.138-2.38-.34-3.258-.062-.265-.998-4.215-2.252-4.21zM334.939 438.885l-.568-5.068.26-.385c1.2-1.776 1.811-3.511 1.819-5.158 0-.262-.011-.524-.024-.79-.049-1.058-.11-2.372.576-3.904.384-.854 1.463-2.831 3.085-2.587.437.061.768.262 1.018.497l.115-.181c.506-.77.906-1.101 1.291-1.42.296-.244.602-.496 1.082-1.093.21-.262.374-.492.513-.686.42-.584.968-1.282 1.934-1.27 1.033.05 1.574.903 1.932 1.469.64 1.008.93 1.735 1.122 2.217.07.176.15.374.19.435.333.49 3.038.032 4.058-.134 2.289-.382 4.27-.712 5.086.732.585 1.032.15 2.398-1.33 4.167-.461.55-.952.97-1.388 1.297.361.216.684.546.815 1.065.309 1.228-.747 2.46-3.137 3.663-.593.301-1.392.703-2.512.896a9.867 9.867 0 0 1-1.408.125c-.009.235-.064.49-.207.751-.42.77-1.294 1.138-2.61 1.05-1.449-.076-2.642-.353-3.694-.595-.92-.21-1.71-.389-2.332-.347-1.153.093-2.041 1.015-3.084 2.212l-2.602 3.042zM337.572 408.709l-4.758 1.835-.438-.154c-2.023-.71-3.856-.862-5.451-.451-.254.065-.504.143-.759.223-1.01.315-2.266.708-3.921.433-.924-.155-3.11-.697-3.285-2.328a1.838 1.838 0 0 1 .222-1.111c-.066-.02-.132-.043-.204-.066-.874-.293-1.295-.596-1.7-.888-.312-.225-.634-.457-1.333-.769-.307-.137-.57-.237-.793-.322-.672-.258-1.486-.611-1.72-1.55-.214-1.01.475-1.75.931-2.24a12.216 12.216 0 0 1 1.86-1.648c.153-.112.324-.24.373-.294.39-.446-.74-2.947-1.16-3.89-.949-2.119-1.771-3.95-.581-5.107.85-.827 2.281-.754 4.368.23.65.306 1.18.675 1.607 1.013.117-.404.354-.8.823-1.058 1.11-.61 2.568.1 4.34 2.105.441.498 1.032 1.169 1.503 2.203.221.487.363.94.478 1.33.23-.05.49-.062.779.01.852.21 1.429.962 1.678 2.258.294 1.421.329 2.645.361 3.724.03.943.058 1.754.256 2.345.382 1.09 1.5 1.716 2.922 2.421l3.602 1.746zM334.939 393.778l-.568-5.068.26-.384c1.2-1.777 1.811-3.512 1.819-5.16 0-.261-.011-.523-.024-.79-.049-1.057-.11-2.371.576-3.903.384-.854 1.463-2.831 3.085-2.587.437.062.768.262 1.018.497l.115-.181c.506-.77.906-1.101 1.291-1.42.296-.244.602-.496 1.082-1.093.21-.262.374-.492.513-.685.42-.585.968-1.283 1.934-1.27 1.033.048 1.574.902 1.932 1.468.64 1.008.93 1.735 1.122 2.217.07.176.15.374.19.436.333.489 3.038.031 4.058-.135 2.289-.382 4.27-.712 5.086.732.585 1.032.15 2.398-1.33 4.167-.461.55-.952.97-1.388 1.297.361.216.684.546.815 1.065.309 1.228-.747 2.46-3.137 3.663-.593.301-1.392.703-2.512.896a9.867 9.867 0 0 1-1.408.125c-.009.235-.064.49-.207.751-.42.771-1.294 1.138-2.61 1.05-1.449-.076-2.642-.352-3.694-.595-.92-.21-1.71-.389-2.332-.347-1.153.093-2.041 1.015-3.084 2.212l-2.602 3.042z"/><path d="m340.124 492.156-1.062-.666-.257-1.226.257 1.226-1.238.142c-.02-.115-.087-.38-.189-.793-.554-2.266-2.244-9.162-3.653-20.023a204.149 204.149 0 0 1-1.656-23.17c-.115-7.807.255-13.717.55-18.467.225-3.582.496-6.994.763-10.317.71-8.879 1.379-17.265.881-26.55-.11-2.073-.341-6.387-2.862-10.978-1.462-2.663-3.476-5.027-5.987-7.024l1.561-1.962c2.772 2.207 5 4.826 6.624 7.782 2.794 5.09 3.046 9.791 3.168 12.05.506 9.449-.17 17.916-.888 26.88-.264 3.311-.536 6.708-.758 10.276-.294 4.706-.66 10.564-.546 18.27.113 7.702.663 15.401 1.634 22.887 1.392 10.724 3.057 17.517 3.604 19.749.292 1.192.353 1.441.054 1.914z"/><path d="M321.075 378.292c-.103 0-.207-.002-.312-.01-2.134-.115-4.11-1.392-5.874-3.795-.828-1.131-1.251-2.42-2.095-4.993-.131-.396-.767-2.408-1.154-5.176-.253-1.808-.222-2.564.137-3.232.398-.744 1.041-1.263 1.766-1.613a1.416 1.416 0 0 1 .097-.74c.428-1.044 1.563-.907 2.177-.84.311.038.699.09 1.117.068.659-.032 1.012-.228 1.548-.522.513-.281 1.15-.631 2.096-.824 1.865-.39 3.428.14 3.943.313 2.71.903 4.046 3.01 5.593 5.45.308.49 1.367 2.27 2.065 4.713.504 1.762.433 2.545.282 3.128-.309 1.196-1.037 1.882-2.886 3.394-1.93 1.583-2.9 2.376-3.732 2.858-1.937 1.119-3.153 1.821-4.768 1.821z"/></g><path d="M240.516 140.416c6.78-3.389 10.527-9.634 8.37-13.948-2.159-4.315-9.402-5.064-16.184-1.672a18.969 18.969 0 0 0-6.919 5.691L197.24 145.21l7.194 13.247 27.376-15.92a18.97 18.97 0 0 0 8.707-2.12zM78.79 482.896l13.587-.001 6.463-52.41-20.053.002.002 52.41z" fill="#ffb6b6"/><path d="M125.341 482.588c.424.712.647 3.012.647 3.84a4.612 4.612 0 0 1-4.612 4.612H79.298a3.146 3.146 0 0 1-3.146-3.146v-1.752s-2.082-5.265 2.204-11.755c0 0 5.326 5.082 13.285-2.877l2.347-4.252 16.99 12.425 9.417 1.16c2.06.253 3.887-.04 4.946 1.745z" fill="#2f2e41"/><path fill="#ffb6b6" d="m100.126 425.27 12.066 6.245 29.836-43.57-17.809-9.219-24.093 46.543z"/><path d="M141.608 446.398c.048.828-.811 2.972-1.192 3.708a4.612 4.612 0 0 1-6.216 1.975l-37.367-19.346a3.146 3.146 0 0 1-1.348-4.24l.806-1.556s.572-5.633 7.361-9.425c0 0 2.394 6.961 13.122 3.552l4.039-2.696 9.374 18.845 7.83 5.359c1.713 1.172 3.47 1.752 3.59 3.824z" fill="#2f2e41"/><path fill="#6c63ff" d="M64.99 66.908h35.634l-.778 11.619 23.237 74.067 4.357 49.379-43.57 7.261L63.54 117.74l4.356-42.117-2.904-8.714z"/><path d="m67.17 76.348-37.76 18.88 23.236 78.425-4.357 79.877s59.545 18.88 56.64-34.856-2.904-62.449-2.904-62.449L67.169 76.348zM127.44 86.131s9.44-6.878 13.797 3.288 32.677 61.723 32.677 61.723l44.295-19.606 7.262 15.975s-36.308 34.855-58.092 30.499c-21.785-4.357-39.213-42.117-39.213-42.117l-.726-49.762z" fill="#2f2e41"/><path d="M52.646 239.006s-1.452 23.237 1.453 42.117 22.51 179.36 22.51 179.36l24.69-1.452 2.178-188.074 34.855 55.188-30.498 82.781 21.058 9.44 44.296-90.769-30.499-103.114-8.714-26.141-65.353 7.261-15.976 33.403z" fill="#2f2e41"/><path d="M149.95 244.816s-39.211 11.618-47.925-88.591l-1.971-80.799 36.826 9.636-4.357 72.615 17.428 87.139z" fill="#2f2e41"/><circle cx="83.145" cy="31.327" r="26.142" fill="#ffb6b6"/><path d="M66.443 56.742s-11.618-13.07-13.07-18.88-1.453-21.785 0-23.237S70.8-1.35 76.608.102s17.325 8.714 27.594 8.714c2.905 0 4.357 14.523 4.357 14.523L96.942 24.79s-14.523-7.261-13.071 0-10.166 7.262-10.166 7.262l1.452 5.809-4.357 1.452-2.905-5.809s1.453 13.07 5.81 18.88-7.262 4.357-7.262 4.357z" fill="#2f2e41"/><path d="M54.868 265.848c3.986 6.447 10.543 9.617 14.646 7.08 4.102-2.537 4.196-9.82.208-16.268a18.969 18.969 0 0 0-6.291-6.379l-17.232-27.103-12.547 8.358 18.32 25.832a18.97 18.97 0 0 0 2.896 8.48z" fill="#ffb6b6"/><path d="M35.219 95.228h-7.262S-1.089 160.582.363 173.653c0 0 0 11.618 7.262 20.332 7.261 8.714 37.76 58.092 37.76 58.092l13.07-10.166-26.141-60.997 15.975-63.901-13.07-21.785z" fill="#2f2e41"/><path d="M428.04 491.016a.84.84 0 0 1-.84.84H.84a.84.84 0 1 1 0-1.68H427.2a.84.84 0 0 1 .84.84z" fill="#e6e6e6"/><path d="M270.88 186.13c-3.43 0-6.7-1.401-9.051-3.901-15.143-16.098-23.482-37.132-23.482-59.229 0-18.414 5.712-35.994 16.52-50.84a12.377 12.377 0 0 1 9.093-5.05c3.7-.285 7.32 1.07 9.928 3.706L317.8 115.17c4.395 4.44 4.844 11.526 1.045 16.485l-37.948 49.532a12.596 12.596 0 0 1-10.017 4.942z" fill="#6c63ff"/><path d="M340.847 212c-13.54 0-26.531-3.001-38.614-8.919a16.182 16.182 0 0 1-8.667-10.871 16.18 16.18 0 0 1 2.918-13.593l31.624-41.277c5.752-7.509 5.072-18.241-1.583-24.965l-32.372-32.698c-4.68-4.726-6.801-11.209-5.82-17.785.984-6.61 4.93-12.225 10.827-15.404 13.293-7.167 28.357-10.795 43.564-10.468 45.828.956 83.604 37.523 85.999 83.248 1.28 24.429-7.256 47.619-24.034 65.297C387.9 202.257 365.227 212 340.847 212zm.032-173c-14.082 0-10.713 13.358-23.032 20-5.056 2.726-25.703-2.332-26.548 3.334-.84 5.632.978 11.185 4.986 15.233l32.372 32.698c7.704 7.783 8.492 20.207 1.832 28.9l-31.623 41.276a13.19 13.19 0 0 0-2.38 11.083 13.195 13.195 0 0 0 7.066 8.864C315.22 206.103 327.769 186 340.847 186c23.55 0 45.449 13.589 61.666-3.499 16.206-17.077 24.45-39.478 23.214-63.076-2.313-44.164-38.8-79.483-83.066-80.406A86.766 86.766 0 0 0 340.88 39z" fill="#e6e6e6"/><path d="M346.614 124.363c-1.71-1.998-2.565-4.922-2.565-8.775 0-3.815.855-6.723 2.565-8.72 1.71-1.998 4.078-2.997 7.101-2.997 3.06 0 5.455.999 7.183 2.996 1.728 1.998 2.591 4.906 2.591 8.721 0 3.853-.863 6.777-2.591 8.775s-4.123 2.997-7.183 2.997c-3.023 0-5.391-.999-7.1-2.997zm10.18-3.105c.648-1.152.971-3.041.971-5.67 0-2.555-.333-4.418-.999-5.588-.666-1.17-1.683-1.755-3.05-1.755-1.333 0-2.322.585-2.97 1.755-.649 1.17-.972 3.033-.972 5.588 0 2.592.323 4.474.971 5.643.649 1.17 1.638 1.755 2.97 1.755 1.404 0 2.43-.575 3.079-1.728zm-.482 16.46 19.274-33.308c2.66 0 4.32 2.883 2.986 5.185l-19.295 33.263c-2.638 0-4.286-2.857-2.965-5.14zm17.68 2.521c-1.71-1.998-2.565-4.94-2.565-8.829 0-3.815.855-6.713 2.565-8.694 1.71-1.98 4.095-2.97 7.156-2.97 3.059 0 5.444.99 7.154 2.97 1.71 1.98 2.565 4.897 2.565 8.748 0 3.853-.855 6.777-2.565 8.775-1.71 1.998-4.095 2.997-7.154 2.997-3.061 0-5.446-.999-7.156-2.997zm10.18-3.132c.647-1.169.972-3.05.972-5.643 0-2.555-.334-4.418-1-5.589-.666-1.169-1.665-1.754-2.996-1.754-1.37 0-2.376.585-3.024 1.754-.649 1.17-.973 3.034-.973 5.59 0 2.592.324 4.473.973 5.642.648 1.17 1.655 1.755 3.024 1.755 1.367 0 2.376-.584 3.024-1.755z"/></svg>