<svg xmlns="http://www.w3.org/2000/svg" data-name="Layer 1" width="763.057" height="458"><path d="M48 96a48 48 0 1 1 48-48 48.054 48.054 0 0 1-48 48zm0-94a46 46 0 1 0 46 46A46.052 46.052 0 0 0 48 2zM374 68a24 24 0 1 1 24-24 24.027 24.027 0 0 1-24 24zm0-46a22 22 0 1 0 22 22 22.025 22.025 0 0 0-22-22zM543 185a27 27 0 1 1 27-27 27.03 27.03 0 0 1-27 27zm0-52a25 25 0 1 0 25 25 25.028 25.028 0 0 0-25-25z" fill="#f2f2f2"/><path d="M762.057 458h-225a1 1 0 0 1 0-2h225a1 1 0 0 1 0 2z" fill="#ccc"/><circle cx="640.917" cy="128.686" r="24.561" fill="#ffb8b8"/><path fill="#ffb8b8" d="m643.465 420.343-11.608 3.942-20.733-42.899 17.133-5.819 15.208 44.776z"/><path d="m622.439 423.785 22.387-7.604 4.788 14.096-36.483 12.392a14.887 14.887 0 0 1 9.308-18.884z" fill="#2f2e41"/><path fill="#ffb8b8" d="m669.694 444.575-12.244.615-8.201-46.935 18.072-.909 2.373 47.229z"/><path d="m648.528 442.131 23.614-1.187.747 14.868-38.482 1.934a14.887 14.887 0 0 1 14.121-15.615z" fill="#2f2e41"/><path d="M596.829 288.63a10.056 10.056 0 0 0-.468-15.412l11.674-33.774-17.991 4.597-8.328 31.368a10.11 10.11 0 0 0 15.113 13.221z" fill="#ffb8b8"/><path d="M668.55 430.424a4.544 4.544 0 0 1-.474-.026l-16.62-1.76a4.472 4.472 0 0 1-3.999-3.973l-12.845-114.51-9.294 31.335 17.329 61.583a4.5 4.5 0 0 1-3.818 5.69l-16.848 1.936a4.523 4.523 0 0 1-4.863-3.315l-18.409-69.303a4.482 4.482 0 0 1-.111-1.748l8.274-62.199 61.714 4.95 4.462 146.702a4.5 4.5 0 0 1-4.498 4.638z" fill="#2f2e41"/><path d="M647.217 289.719c-20.676 0-44.085-7.989-45.502-8.48l-.41-.142 23.324-119.684.43.018c9.243.375 34.469.567 34.723.569l.452.003 9.723 105.62 1.738 15.448-.213.172c-5.948 4.809-14.821 6.476-24.265 6.476z" fill="#6c63ff"/><path d="m609.864 279.375-14.589-5.876 7.436-89.944a14.856 14.856 0 0 1 6.474-11.103l7.677-5.225a4.868 4.868 0 0 1 4.827-6.24l2.2.071a2.5 2.5 0 0 1 3.826 2.66l-.483 9.53z" fill="#2f2e41"/><path d="m602.503 263.251-19.049-.802 6.17-39.693 5.114-37.348a8.924 8.924 0 0 1 11.578-7.846 8.917 8.917 0 0 1 6.174 9.647l-5.18 40.467zM632.665 280.751l-.13-.4c-.088-.275-8.673-27.812 5.692-60.673l7.203-35.825 6.155-22.495a2.69 2.69 0 0 1 1.632-1.773 2.477 2.477 0 0 1 2.648.68 17.198 17.198 0 0 1 12.86 1.286l8.645 4.554a9.815 9.815 0 0 1 4.981 10.923l-11.815 50.423 5.743 47.097z" fill="#2f2e41"/><path d="M645.245 261.338a10.056 10.056 0 0 0 11.118-10.684l26.756-19.821-9.353-4.434-28.851 14.862a10.11 10.11 0 0 0 .33 20.077z" fill="#ffb8b8"/><path d="m662.02 252.465-9.037-16.869 22.287-14.668-10.876-39.01a11.795 11.795 0 0 1 9.03-14.731 11.827 11.827 0 0 1 13.5 7.764l14.674 43.135a4.5 4.5 0 0 1-1.511 5.013zM642.655 133.895c-2.944.383-5.165-2.629-6.195-5.414s-1.815-6.026-4.375-7.53c-3.497-2.056-7.972.416-11.971-.262-4.516-.766-7.453-5.552-7.683-10.127s1.59-8.976 3.377-13.194l.624 5.242a10.396 10.396 0 0 1 4.542-9.086l-.803 7.692a8.164 8.164 0 0 1 9.392-6.756l-.127 4.584c5.217-.62 10.479-1.242 15.71-.77s10.501 2.129 14.467 5.574c5.931 5.154 8.098 13.641 7.37 21.466s-3.957 15.174-7.323 22.275c-.847 1.786-2.018 3.802-3.982 4.03-1.765.204-3.38-1.27-3.928-2.96a10.73 10.73 0 0 1 .047-5.271c.497-2.638 1.122-5.333.656-7.976s-2.368-5.254-5.032-5.578-5.39 2.721-4.11 5.08z" fill="#2f2e41"/><path d="m321.31 403.577-9.56-4.026-6.56-47.928h-87.34l-7.108 47.733-8.554 4.276a2.031 2.031 0 0 0 .908 3.848h117.426a2.031 2.031 0 0 0 .788-3.903z" fill="#e6e6e6"/><path d="M476.519 358H47.481A8.5 8.5 0 0 1 39 349.5V289h446v60.5a8.5 8.5 0 0 1-8.481 8.5z" fill="#ccc"/><path d="M485.448 317.594H38.608V58.727A10.258 10.258 0 0 1 48.855 48.48h426.346a10.259 10.259 0 0 1 10.247 10.247z" fill="#3f3d56"/><path d="M458.76 298.805H65.296a7.908 7.908 0 0 1-7.9-7.9V75.169a7.909 7.909 0 0 1 7.9-7.9H458.76a7.909 7.909 0 0 1 7.9 7.9v215.738a7.908 7.908 0 0 1-7.9 7.9z" fill="#fff"/><path d="M455.057 407.98h-381a1 1 0 0 1 0-2h381a1 1 0 0 1 0 2z" fill="#ccc"/><path d="M421.796 272H102.261a1 1 0 0 1-1-1V117.847a1 1 0 0 1 2 0V270h318.535a1 1 0 0 1 0 2z" fill="#3f3d56"/><path d="M170.531 261h-29.063a2.972 2.972 0 0 1-2.968-2.968v-40.064a2.972 2.972 0 0 1 2.968-2.968h29.063a2.972 2.972 0 0 1 2.969 2.968v40.064a2.972 2.972 0 0 1-2.969 2.968zM223.531 261h-29.063a2.972 2.972 0 0 1-2.968-2.968v-78.064a2.972 2.972 0 0 1 2.968-2.968h29.063a2.972 2.972 0 0 1 2.969 2.968v78.064a2.972 2.972 0 0 1-2.969 2.968zM276.531 261h-29.063a2.972 2.972 0 0 1-2.968-2.968v-40.064a2.972 2.972 0 0 1 2.968-2.968h29.063a2.972 2.972 0 0 1 2.969 2.968v40.064a2.972 2.972 0 0 1-2.969 2.968zM329.531 261h-29.063a2.907 2.907 0 0 1-2.968-2.834v-93.332a2.907 2.907 0 0 1 2.968-2.834h29.063a2.907 2.907 0 0 1 2.969 2.834v93.332a2.907 2.907 0 0 1-2.969 2.834zM382.531 261h-29.063a2.972 2.972 0 0 1-2.968-2.968V137.968a2.972 2.972 0 0 1 2.968-2.968h29.063a2.972 2.972 0 0 1 2.969 2.968v120.064a2.972 2.972 0 0 1-2.969 2.968z" fill="#6c63ff"/><circle cx="156" cy="197" r="6" fill="#3f3d56"/><circle cx="209" cy="158" r="6" fill="#3f3d56"/><circle cx="262" cy="197" r="6" fill="#3f3d56"/><circle cx="315" cy="139" r="6" fill="#3f3d56"/><circle cx="368" cy="117" r="6" fill="#3f3d56"/><path fill="#3f3d56" d="M262.126 198.344 209 158.552 156.6 197.8l-1.2-1.6 53.6-40.147 52.874 39.603 52.541-57.498.211-.086 53-21.354.748 1.855-52.789 21.269-53.459 58.502z"/></svg>