<svg xmlns="http://www.w3.org/2000/svg" data-name="Layer 1" width="739" height="468"><path d="m611.867 467.333 2-.04a463.83 463.83 0 0 0-7.1-66.287c-8.648-46.88-23.029-77.67-42.742-91.511l-1.149 1.636c46.052 32.334 48.968 154.966 48.991 156.202zM586.867 466.854l2-.039c-.043-2.215-1.293-54.414-21.842-68.842l-1.149 1.637c19.72 13.846 20.982 66.712 20.991 67.244z" fill="#2f2e41"/><circle cx="551.498" cy="301.313" r="10" fill="#6c63ff"/><circle cx="556.45" cy="387.313" r="10" fill="#6c63ff"/><path d="M591.529 317.308c-1.88 12.004 3.018 22.74 3.018 22.74s7.946-8.726 9.825-20.73-3.019-22.74-3.019-22.74-7.945 8.726-9.824 20.73zM558.841 346.461c11.493 3.943 22.92.99 22.92.99s-7.209-9.344-18.702-13.286-22.918-.99-22.918-.99 7.207 9.344 18.7 13.286zM558.472 422.623a31.135 31.135 0 0 0 16.064.693 28.374 28.374 0 0 0-29.172-10.006 31.134 31.134 0 0 0 13.108 9.313z" fill="#2f2e41"/><path d="m325.097 155.197-64.473-33.525s-21.65-23.844-35.248-34.613-17.783-2.858-17.783-2.858l-5.715 9.526 13.813 19.212 37.312 31.596 66.67 26.113a10.572 10.572 0 1 0 5.424-15.45zM157.397 126.202l-3.817-23.352-10.778-2.695s-8.554-2.635-10.553 14.595-.45 49.4-.45 49.4l-21.882 69.295a10.596 10.596 0 1 0 14.761 7.09l28.678-65.608zM246.545 453.915l14.103-.001 6.71-54.399-20.816.001.003 54.399z" fill="#9f616a"/><path d="M242.947 449.31H270.724a17.701 17.701 0 0 1 17.7 17.7v.575l-45.476.001z" fill="#2f2e41"/><path fill="#9f616a" d="m92.716 453.915 14.104-.001 6.709-54.399-20.815.001.002 54.399z"/><path d="M89.119 449.31h27.776a17.701 17.701 0 0 1 17.7 17.7v.575l-45.475.001zM162.343 79.554l-23.393 19.97 19.198 60.752 4.332 13.566s-26.45 24.387-42.816 92.512-43.138 158.647-43.138 158.647l56.512 16.177 45.976-154.106 54.08 120.9 6.243 35.76 48.126-14.19-11.353-89.683-56.76-155.24 5.896-41.152s8.854-20.54-6.528-42.287l-4.825-20.434-17.283-4.257zM201.205 68.698H137.96a4.913 4.913 0 0 1-4.907-4.907V36.53a36.53 36.53 0 0 1 73.06 0v27.26a4.913 4.913 0 0 1-4.908 4.908z" fill="#2f2e41"/><circle cx="418.465" cy="279.703" r="26.782" transform="rotate(-61.337 96.75 364.01)" fill="#9f616a"/><path d="M214.754 39.256h-38.673l-.396-5.552-1.983 5.552h-5.955l-.786-11.005-3.93 11.005H151.51v-.545a28.93 28.93 0 0 1 28.896-28.897h5.453a28.93 28.93 0 0 1 28.896 28.897z" fill="#2f2e41"/><path d="M175.765 73.786a5.012 5.012 0 0 1-.869-.076l-28.318-4.997V21.912h31.173l-.772.9c-10.737 12.523-2.648 32.829 3.13 43.818a4.834 4.834 0 0 1-.384 5.133 4.887 4.887 0 0 1-3.96 2.023z" fill="#2f2e41"/><path d="m409.954 319.146-248.181 87.746a24.567 24.567 0 0 1-31.316-14.955L87.823 271.352a24.567 24.567 0 0 1 14.956-31.316L350.96 152.29a24.567 24.567 0 0 1 31.316 14.956L424.91 287.83a24.567 24.567 0 0 1-14.956 31.316z" fill="#fff"/><path d="m424.91 287.83.225.638a23.435 23.435 0 0 1-14.287 29.904l-249.422 88.186a23.433 23.433 0 0 1-29.901-14.28l-.226-.639z" fill="#f2f2f2"/><path d="M146.285 268.034c-16.45 10.824-37.535 2.678-44.908-9.188l1.175-.668c14.005-8.73 34.804-3.866 43.733 9.856z" fill="#6c63ff"/><path d="M352.436 298.745c-4.027 1.423-7.652 1.358-10.777-.194-7.063-3.51-10.377-13.915-13.04-22.276-.775-2.432-1.507-4.73-2.252-6.607l-.01-.029a14.974 14.974 0 0 1 9.073-19.011l33.382-11.803c4.022-1.422 7.643-1.357 10.766.193 7.06 3.505 10.377 13.906 13.043 22.264.777 2.437 1.511 4.74 2.259 6.62a14.983 14.983 0 0 1-9.07 19.043zm-24.681-29.611c.762 1.922 1.5 4.238 2.28 6.69 2.579 8.093 5.787 18.166 12.285 21.395 2.79 1.385 5.936 1.426 9.62.124l33.372-11.8a13.486 13.486 0 0 0 8.175-17.12c-.756-1.9-1.498-4.227-2.283-6.69-2.58-8.09-5.791-18.159-12.288-21.383-2.786-1.383-5.93-1.423-9.608-.123l-33.38 11.802a13.483 13.483 0 0 0-8.173 17.105zM139.366 271.931a33.179 33.179 0 0 1-18.239 1.003c-8.84-1.941-16.864-7.22-20.938-13.775l-.408-.657 1.834-1.043c14.216-8.854 35.533-4.054 44.734 10.083l.404.62-.618.406a31.22 31.22 0 0 1-6.77 3.363zm-37.493-12.907c3.987 5.925 11.407 10.664 19.573 12.457a31 31 0 0 0 23.24-3.75c-9.001-13.02-28.942-17.338-42.296-9.001zM148.085 358.48a12.343 12.343 0 0 1-12.55-2.084 15.439 15.439 0 0 1-5.051-14.271 12.386 12.386 0 0 1 8.699-9.603l44.478-15.726a12.408 12.408 0 0 1 12.793 2.013 15.439 15.439 0 0 1 5.044 14.27c-.878 4.59-3.977 7.972-8.7 9.59l-44.48 15.727-.233.084zM139.46 334a10.931 10.931 0 0 0-7.514 8.404 13.909 13.909 0 0 0 4.55 12.856 10.941 10.941 0 0 0 11.316 1.737l44.501-15.733a10.958 10.958 0 0 0 7.725-8.464 13.907 13.907 0 0 0-4.544-12.856 10.988 10.988 0 0 0-11.326-1.75l-44.503 15.735a14.26 14.26 0 0 0-.205.07z" fill="#3f3d56"/><path d="m352.733 263.266-14.021 4.957a3.718 3.718 0 1 1-2.48-7.01l14.022-4.958a3.718 3.718 0 1 1 2.48 7.01zM356.699 274.483l-14.022 4.957a3.718 3.718 0 1 1-2.478-7.01l14.021-4.958a3.718 3.718 0 0 1 2.479 7.011zM360.665 285.7l-14.022 4.958a3.718 3.718 0 0 1-2.478-7.011l14.021-4.958a3.718 3.718 0 1 1 2.479 7.011zM377.27 254.59l-14.02 4.958a3.718 3.718 0 1 1-2.48-7.011l14.022-4.958a3.718 3.718 0 1 1 2.479 7.011zM381.237 265.807l-14.022 4.958a3.718 3.718 0 1 1-2.479-7.01l14.022-4.958a3.718 3.718 0 0 1 2.479 7.01zM385.203 277.025l-14.022 4.957a3.718 3.718 0 1 1-2.479-7.01l14.022-4.958a3.718 3.718 0 0 1 2.479 7.01z" fill="#6c63ff"/><path fill="#3f3d56" d="m97.947 297.304 293.612-103.81.496 1.403L98.443 298.706z"/><path d="m409.954 319.146-248.181 87.746a24.567 24.567 0 0 1-31.316-14.955L87.823 271.352a24.567 24.567 0 0 1 14.956-31.316L350.96 152.29a24.567 24.567 0 0 1 31.316 14.956L424.91 287.83a24.567 24.567 0 0 1-14.956 31.316zm-306.68-77.708a23.078 23.078 0 0 0-14.048 29.418L131.86 391.44a23.078 23.078 0 0 0 29.417 14.05l248.181-87.747a23.078 23.078 0 0 0 14.05-29.418l-42.635-120.585a23.078 23.078 0 0 0-29.417-14.05z" fill="#3f3d56"/><path d="M738 468H1a1 1 0 0 1 0-2h737a1 1 0 0 1 0 2z" fill="#cbcbcb"/></svg>