<svg xmlns="http://www.w3.org/2000/svg" data-name="Layer 1" width="596.377" height="544.041"><path d="M553.483 419.954c27.135-18.182 46.62-50.49 42.134-82.844a150.493 150.493 0 0 1-92.28 46.477c-13.613 1.538-28.913 1.831-38.468 11.648-5.946 6.107-8.392 14.955-8.415 23.478-.022 8.524 2.133 16.886 4.273 25.137l-.473 2.074c32.623-1.623 66.094-7.787 93.23-25.97z" fill="#f0f0f0"/><path d="M594.931 337.112a128.631 128.631 0 0 1-50.267 61.127 55.393 55.393 0 0 1-15.774 7.24 31.77 31.77 0 0 1-16.715-.428c-5.097-1.42-10.146-3.463-15.5-3.62a19.453 19.453 0 0 0-14.61 6.296c-4.75 4.912-7.453 11.239-9.88 17.518-2.696 6.97-5.386 14.254-10.99 19.464-.68.631.34 1.648 1.017 1.018 9.752-9.064 10.654-23.417 18.277-33.885 3.557-4.884 8.607-8.726 14.838-8.966 5.449-.21 10.657 1.893 15.806 3.376a33.901 33.901 0 0 0 16.328 1.027 51.21 51.21 0 0 0 15.993-6.607 124.795 124.795 0 0 0 29.77-25.201 130.912 130.912 0 0 0 23.1-37.994c.339-.86-1.056-1.22-1.393-.365z" fill="#fff"/><path d="M552.27 393.973a19.299 19.299 0 0 0 24.664 4.025c.791-.48.081-1.733-.712-1.252a17.87 17.87 0 0 1-22.934-3.79c-.597-.71-1.611.313-1.018 1.017zM514.665 406.112a37.197 37.197 0 0 1 11.66-24.472c.676-.634-.343-1.651-1.019-1.018a38.69 38.69 0 0 0-12.081 25.49c-.064.926 1.376.92 1.44 0zM581.215 363.637a10.924 10.924 0 0 1-4.188-9.482c.076-.925-1.364-.919-1.44 0a12.241 12.241 0 0 0 4.61 10.5.744.744 0 0 0 1.019 0 .723.723 0 0 0 0-1.018z" fill="#fff"/><path d="M501.52 279.003c-.063.576-.127 1.152-.2 1.734a143.863 143.863 0 0 1-4.551 22.889c-.156.582-.323 1.17-.495 1.745a151.664 151.664 0 0 1-25.45 49.702 147.285 147.285 0 0 1-15.012 16.596c-7.482 7.102-16.16 14.208-20.725 23.106a25.266 25.266 0 0 0-1.285 2.85l23.958 47.56c.108.081.206.168.315.25l.87 1.942c.298-.246.602-.507.9-.753.173-.141.341-.294.515-.436.114-.098.227-.196.336-.278.038-.032.076-.065.103-.092.108-.082.2-.17.298-.246q2.552-2.184 5.083-4.411c.011-.005.011-.005.017-.022 12.827-11.346 24.82-23.862 34.532-37.801.292-.42.595-.844.876-1.285a140.542 140.542 0 0 0 11.422-19.89 124.247 124.247 0 0 0 4.73-11.647 103.319 103.319 0 0 0 5.665-31.803c.414-21.595-6.083-43.082-20.768-58.54-.376-.396-.747-.78-1.133-1.17z" fill="#f0f0f0"/><path d="M500.97 279.414a128.631 128.631 0 0 1-3.332 79.071 55.393 55.393 0 0 1-8.236 15.278 31.77 31.77 0 0 1-13.603 9.722c-4.925 1.934-10.186 3.343-14.555 6.441a19.453 19.453 0 0 0-7.875 13.823c-.836 6.783.815 13.461 2.657 19.936 2.045 7.19 4.283 14.624 2.944 22.158-.162.913 1.264 1.111 1.426.2 2.329-13.108-5.592-25.111-5.808-38.059-.101-6.041 1.618-12.15 6.45-16.092 4.224-3.448 9.648-4.905 14.651-6.821a33.901 33.901 0 0 0 13.656-9.01 51.21 51.21 0 0 0 8.792-14.905 124.795 124.795 0 0 0 8.596-38.045 130.912 130.912 0 0 0-4.43-44.245c-.248-.89-1.578-.337-1.332.548z" fill="#fff"/><path d="M501.143 350.5a19.299 19.299 0 0 0 22.115-11.636c.343-.86-.978-1.433-1.321-.571a17.87 17.87 0 0 1-20.595 10.781c-.903-.206-1.097 1.22-.2 1.426zM478.425 382.833a37.197 37.197 0 0 1-5.424-26.56c.159-.913-1.267-1.112-1.426-.2a38.69 38.69 0 0 0 5.7 27.627c.507.777 1.654-.094 1.15-.867zM505.99 308.85a10.924 10.924 0 0 1-9.053-5.049c-.497-.784-1.643.088-1.15.867a12.241 12.241 0 0 0 10.003 5.608.744.744 0 0 0 .812-.613.723.723 0 0 0-.613-.813z" fill="#fff"/><path d="M.353 481.053c2.003-21.013 14.387-42.016 34.16-49.403a97.253 97.253 0 0 0 1.92 66.744c3.307 8.211 7.84 17 5.194 25.449-1.647 5.256-5.926 9.364-10.765 11.995-4.84 2.631-10.255 3.975-15.604 5.292l-1.034.906C5.127 522.99-1.65 502.066.353 481.053z" fill="#f0f0f0"/><path d="M34.723 432.04a83.125 83.125 0 0 0-19.314 47.357 35.797 35.797 0 0 0 .728 11.192 20.53 20.53 0 0 0 5.377 9.372c2.374 2.462 5.086 4.705 6.82 7.7a12.571 12.571 0 0 1 .908 10.241c-1.334 4.21-4.1 7.69-6.925 11-3.135 3.673-6.45 7.44-7.69 12.226-.151.58-1.042.313-.892-.266 2.158-8.328 10.041-13.25 13.651-20.8 1.685-3.522 2.318-7.573.54-11.19-1.554-3.162-4.35-5.478-6.774-7.95a21.908 21.908 0 0 1-5.6-8.967 33.093 33.093 0 0 1-1.155-11.123 80.646 80.646 0 0 1 5.184-24.667 84.6 84.6 0 0 1 14.506-24.804c.385-.457 1.018.226.636.68z" fill="#fff"/><path d="M15.497 473.762a12.471 12.471 0 0 1-9.864-12.786.466.466 0 0 1 .93.02 11.548 11.548 0 0 0 9.2 11.875c.587.122.317 1.012-.266.891zM20.147 498.872a24.038 24.038 0 0 0 10.332-14.147c.153-.579 1.044-.312.892.267a25.003 25.003 0 0 1-10.782 14.698c-.507.32-.946-.5-.442-.818zM23.855 447.987a7.06 7.06 0 0 0 6.677-.532c.503-.327.941.494.442.819a7.91 7.91 0 0 1-7.386.604.48.48 0 0 1-.312-.579.468.468 0 0 1 .579-.312z" fill="#fff"/><path d="M92.454 467.301c-.308.214-.616.427-.925.648-4.127 2.883-4.01 6.105-7.616 9.617a40.95 40.95 0 0 0-.84.818 98.01 98.01 0 0 0-20.441 29.736 95.178 95.178 0 0 0-4.825 13.633c-1.74 6.436-3.114 13.553-6.77 18.881a16.327 16.327 0 0 1-1.227 1.606l-34.4.988c-.08-.037-.159-.067-.238-.104l-1.372.103c.048-.245.103-.498.152-.743.027-.142.062-.285.09-.427.02-.095.041-.19.054-.276a1.3 1.3 0 0 1 .021-.087c.014-.087.035-.166.049-.245q.457-2.122.946-4.245c0-.008 0-.008.007-.016a139.948 139.948 0 0 1 10.886-31.245c.148-.295.297-.598.461-.893a90.823 90.823 0 0 1 7.8-12.603 80.292 80.292 0 0 1 5.169-6.268 66.768 66.768 0 0 1 16.342-12.99c12.151-6.868 22.363-9.773 35.663-6.173.34.093.673.185 1.014.285z" fill="#f0f0f0"/><path d="M92.389 467.74c-16.854 3.848-28.588 13.105-39.933 26.183a35.797 35.797 0 0 0-6.157 9.375 20.53 20.53 0 0 0-1.35 10.72c.414 3.395 1.229 6.82.81 10.255a12.571 12.571 0 0 1-5.441 8.723c-3.6 2.559-7.904 3.671-12.151 4.613-4.716 1.046-9.63 2.057-13.502 5.132-.47.373-1.02-.377-.552-.749 6.737-5.35 15.995-4.534 23.423-8.388 3.466-1.798 6.41-4.652 7.168-8.61.663-3.46-.175-6.992-.622-10.426a21.908 21.908 0 0 1 .928-10.531 33.093 33.093 0 0 1 5.774-9.577 80.646 80.646 0 0 1 18.99-16.574c8.136-5.17 13.12-8.926 22.517-11.071.582-.133.676.793.098.925z" fill="#fff"/><path d="M55.92 489.478a12.471 12.471 0 0 1-.178-16.149c.384-.459 1.115.117.73.576a11.548 11.548 0 0 0 .196 15.021c.395.45-.356 1-.749.552zM44.514 512.325a24.038 24.038 0 0 0 16.767-5.074c.47-.37 1.021.38.551.75a25.003 25.003 0 0 1-17.458 5.244c-.598-.049-.455-.968.14-.92zM78.11 473.929a7.06 7.06 0 0 0 5.652 3.596c.598.041.454.96-.14.92a7.91 7.91 0 0 1-6.26-3.965.48.48 0 0 1 .098-.65.468.468 0 0 1 .65.099zM429.48 2h-23.531a17.472 17.472 0 0 1-16.177 24.07H286.5A17.472 17.472 0 0 1 270.323 2h-21.978a36.776 36.776 0 0 0-36.775 36.776v466.102a36.776 36.776 0 0 0 36.775 36.776H429.48a36.776 36.776 0 0 0 36.776-36.776V38.776A36.776 36.776 0 0 0 429.479 2z" fill="#fff"/><path d="M429.48 543.653H248.345a38.82 38.82 0 0 1-38.777-38.776V38.776A38.82 38.82 0 0 1 248.345 0H273.3l-1.124 2.755A15.472 15.472 0 0 0 286.5 24.071h103.272a15.473 15.473 0 0 0 14.325-21.316L402.973 0h26.506a38.82 38.82 0 0 1 38.776 38.776v466.102a38.82 38.82 0 0 1-38.776 38.775zM248.344 4a34.816 34.816 0 0 0-34.776 34.776v466.101a34.815 34.815 0 0 0 34.776 34.776H429.48a34.815 34.815 0 0 0 34.776-34.775V38.776A34.815 34.815 0 0 0 429.479 4h-20.786a19.473 19.473 0 0 1-18.921 24.07H286.5A19.479 19.479 0 0 1 267.578 4z" fill="#e4e4e4"/><path d="M430.838 73.633h-54.622a2.317 2.317 0 1 1 0-4.633h54.622a2.317 2.317 0 1 1 0 4.633zM430.838 84.027h-54.622a2.317 2.317 0 1 1 0-4.633h54.622a2.317 2.317 0 1 1 0 4.633zM430.838 94.422h-54.622a2.317 2.317 0 1 1 0-4.634h54.622a2.317 2.317 0 1 1 0 4.634z" fill="#6c63ff"/><path fill="#ffb6b6" d="m154.571 533.534 9.152-.001 4.354-35.301H154.57l.001 35.302z"/><path d="M152.237 530.545h18.024a11.487 11.487 0 0 1 11.487 11.486v.373l-29.51.001z" fill="#2f2e41"/><path fill="#ffb6b6" d="m118.788 525.015 8.633 3.038 15.827-31.853-12.742-4.484-11.718 33.299z"/><path d="m117.578 521.422 17.002 5.983a11.487 11.487 0 0 1 7.022 14.648l-.124.352-27.837-9.796zM113.349 328.346l-5.541 6.035 22.397 93.231 23.011 90.919h18.397l-10.581-86.763v-89.231l-47.683-14.191z" fill="#2f2e41"/><path fill="#2f2e41" d="m170.599 335.823 2.425 9.029-12.959 80.521-18.402 85.322h-20.837l15.644-104.617 19.116-77.006 15.013 6.751z"/><path d="m182.052 202.047-8.1-14.54-19.215-3.146a48.55 48.55 0 0 0-35.907 42.219l-10.418 106.703s53.308 24.536 64.612 10.722l15.72-121.116a23.944 23.944 0 0 0-6.692-20.842z" fill="#3f3d56"/><circle cx="168.397" cy="159.256" r="20.389" fill="#ffb6b6"/><path d="M195.182 148.141a5.047 5.047 0 0 1-2.988-2.298 4.885 4.885 0 0 1-.023-4.976 7.382 7.382 0 0 0-6.118-.311 6.966 6.966 0 0 0 2.356-5.885l-7.34 2.484a5.395 5.395 0 0 0 1.852-5.956c-2.008 2.86-6.168 3.245-9.557 2.392-3.39-.854-6.522-2.644-9.975-3.183a14.16 14.16 0 0 0-16.288 12.748 5.297 5.297 0 0 0-4.142 3.033 11.37 11.37 0 0 0-.976 5.23 28.008 28.008 0 0 0 11.225 22.026l1.127-.387a9.023 9.023 0 0 1 8.091-9.48c2.991-.188 6.522 1.01 8.657-1.093 1.952-1.924 1.254-5.369 2.847-7.6 1.387-1.94 4.144-2.392 6.483-1.927 2.339.465 4.466 1.649 6.738 2.375 2.271.725 4.931.93 6.884-.439a6.975 6.975 0 0 0 2.606-5.38 10.047 10.047 0 0 0-.01-1.255 5.416 5.416 0 0 1-1.449-.118z" fill="#2f2e41"/><path fill="#fff" d="M59.065 338.523h209.962v60.801H59.065z"/><path d="M270.936 401.233H57.156v-64.618h213.78zm-209.962-3.818 206.144-64.618v7.635H60.974z" fill="#e4e4e4"/><path d="M228.242 359.43H99.85a2.722 2.722 0 1 1 0-5.444h128.39a2.722 2.722 0 1 1 0 5.445zM228.242 371.646H99.85a2.723 2.723 0 0 1 0-5.445h128.39a2.723 2.723 0 0 1 0 5.445zM176.273 383.861H99.85a2.722 2.722 0 1 1 0-5.444h76.422a2.722 2.722 0 1 1 0 5.444z" fill="#6c63ff"/><path d="M184.216 346.12a7.507 7.507 0 0 1 .405-11.503l-8.594-25.254 13.414 3.496 6.104 23.446a7.548 7.548 0 0 1-11.329 9.816z" fill="#ffb6b6"/><path d="m178.28 329.287-13.908-51.413-1.218-62.637a11.837 11.837 0 0 1 8.266-11.57 11.91 11.91 0 0 1 15.54 11.88l-2.24 49.286 11.034 58.832z" fill="#3f3d56"/><path d="M133.977 347.614a7.507 7.507 0 0 1 .404-11.504l-8.594-25.254 13.415 3.496 6.104 23.446a7.548 7.548 0 0 1-11.329 9.816z" fill="#ffb6b6"/><path d="m125.927 326.89-5.95-52.863 8.316-62.161a11.91 11.91 0 1 1 23.483 3.92l-9.697 48.375 1.974 59.825z" fill="#3f3d56"/><path d="M579.994 511.544H258.575v-73.97h321.42z" fill="#fff"/><path d="M304.963 462.032a3.132 3.132 0 0 0 0 6.264H533.62a3.132 3.132 0 0 0 0-6.264zM304.963 480.823a3.132 3.132 0 0 0-.013 6.263h144.559a3.132 3.132 0 1 0 0-6.263z" fill="#e6e6e6"/><path d="M579.994 511.544H258.575v-73.97h321.42zm-316.135-5.283H574.71v-63.404H263.859z" fill="#e5e5e5"/><path d="M73.515 298.798a13.421 13.421 0 1 1 13.42-13.421 13.421 13.421 0 0 1-13.42 13.421zM134.748 108.611A14.812 14.812 0 1 1 149.56 93.8a14.812 14.812 0 0 1-14.812 14.812zM516.804 214.477a12.739 12.739 0 1 1 12.739-12.738 12.739 12.739 0 0 1-12.739 12.738z" fill="#f0f0f0"/><path fill="#fff" d="M240.899 133.277h195.255v147.446H240.899z"/><path d="M438.711 283.28H238.342V130.72h200.369zm-195.255-5.114 190.141-152.56V-16.724h-190.14z" fill="#e4e4e4"/><path fill="#f0f0f0" d="M433.936 136.289H244.223l189.713 143v-143z"/><path d="M543.74 542.46a28.735 28.735 0 1 1 28.735-28.736 28.735 28.735 0 0 1-28.736 28.736z" fill="#6c63ff"/><path d="M555.077 510.89h-8.503v-8.504a2.835 2.835 0 0 0-5.67 0v8.504h-8.503a2.835 2.835 0 0 0 0 5.669h8.503v8.504a2.835 2.835 0 0 0 5.67 0v-8.504h8.503a2.835 2.835 0 1 0 0-5.67z" fill="#fff"/><path d="M578.803 544.041H1.51a1.19 1.19 0 0 1 0-2.381h577.294a1.19 1.19 0 0 1 0 2.381z" fill="#cacaca"/></svg>