<svg xmlns="http://www.w3.org/2000/svg" data-name="Layer 1" width="605.924" height="564.849"><path d="M205.114 254a127 127 0 1 1 127-127 127.144 127.144 0 0 1-127 127zm0-252a125 125 0 1 0 125 125 125 125 0 0 0-125-125z" fill="#f2f2f2"/><path d="M125.475 131.553c-3.529-12.867 24.936-23.901 32.41-13.54 1.04-1.472 4.881-2.367 6.644-1.915a13.745 13.745 0 0 1 4.69 2.675c1.989 1.528 4.05 3.11 5.27 5.305 1.229 2.188 1.419 5.17-.235 7.068-1.311 1.51-5.18 2.486-7.15 2.883-1.373.28-2.53.506-3.524.67a6.74 6.74 0 0 1-1.175-4.457 5.47 5.47 0 0 0-2.386 4.013c-.028.335 11.107 41.304 11.107 41.304a24.287 24.287 0 0 1-4.202 1.889 52.848 52.848 0 0 1-6.553-14.28 45.761 45.761 0 0 0 .127 10.168 55.944 55.944 0 0 0 .958 5.63c-13.232 2.856-33.134 1.917-41.792-10.23l-.005-.151a2.067 2.067 0 0 0-3.993-.721c-.21.536-.403 1-.576 1.369-2.521-9.02.742-19.46 10.385-37.68z" fill="#2f2e41"/><path fill="#a0616a" d="m187.875 543.116 9.859-.083 4.364-38.913-14.55.123.327 38.873z"/><path d="m217.522 555.184-15.746-10.68-.06-7.055-3.385.227-10.496.724-2.573.17-1.867 24.935 7.396-.067 1.26-6.99 3.431 6.955 19.602-.164a4.408 4.408 0 0 0 2.438-8.055z" fill="#2f2e41"/><path fill="#a0616a" d="m89.571 539.272 9.747 1.482 10.48-37.729-14.386-2.186-5.841 38.433z"/><path d="m116.93 555.889-13.854-13.042 1.06-6.975-3.379-.313-10.477-.95-2.568-.239-5.798 24.323 7.313 1.107 2.353-6.703 2.285 7.412 19.38 2.946a4.408 4.408 0 0 0 3.684-7.566zM183.34 271.254l27.953 50.064s-1.166 102.965 2.549 106.784 7.078 7.244 3.715 7.213-7.435 8.153-7.435 8.153l-6.957 77.365h-17.543s-12.344-45.623-9.712-71.64l-20.783-95.077s-14.93 89.913-17.62 92.604-4.315 2.672-1.485 5.372 0 8.808 0 8.808l-29.498 61.22-16-2.017s2.774-49.98 12.433-71.435V347.273c-.727 8.693 33.304-79.296 12.493-72.692 6.584-2.089 67.89-3.327 67.89-3.327z" fill="#2f2e41"/><path d="m159.582 175.791-28.416-6.027-5.642 11.356-19 11s12.248 50.077 12.178 57.12c-.178 17.88-28.788 57.964-7.178 54.88s26-16 32.938-13.957c28.621 8.426 62.637 7.532 51.062-4.043s-8.988-88.626-8.988-88.626l-22.42-10.596z" fill="#6c63ff"/><path d="M105.987 357.646a6.821 6.821 0 0 0-.702-9.487 6.544 6.544 0 0 0-.877-.635l4.751-23.317-10.983-6.574-3.055 32.646a6.802 6.802 0 0 0 1.568 8.155 6.51 6.51 0 0 0 9.183-.65q.058-.068.115-.138z" fill="#a0616a"/><path d="m99.92 248.542.914-42.49a20.023 20.023 0 0 1 20.949-19.572c8.682.406 6.369 3.875 8.675 12.256 3.747 13.622 5.189 21.497 4.284 23.404-.306.646-.628 1.264-.939 1.86-1.598 3.065-2.753 5.28.182 7.402a14.657 14.657 0 0 0 3.755 1.777c1.325.47 2.282.81 2.35 1.56.064.725-.754 1.477-3.02 2.773-6.085 3.483-11.361 24.295-11.413 24.5l-17.656 74.065-14.065-.699z" fill="#6c63ff"/><path d="M276.901 306.595a6.821 6.821 0 0 1-5.815-7.53 6.543 6.543 0 0 1 .228-1.057l-19.112-14.177 3.781-12.229 24.082 22.251a6.802 6.802 0 0 1 4.281 7.116 6.51 6.51 0 0 1-7.267 5.65q-.09-.01-.178-.024z" fill="#a0616a"/><path d="m270.992 281.974-10 9.916-62.615-43.317c-.176-.119-18.006-12.081-24.86-10.608-2.552.55-3.663.536-4.1-.046-.45-.603.036-1.495.707-2.73a14.657 14.657 0 0 0 1.606-3.832c.767-3.54-1.572-4.416-4.81-5.629-.628-.236-1.281-.48-1.94-.756-1.947-.815-6.135-7.638-12.447-20.278-3.883-7.777-7.922-8.813-1.732-14.915a20.023 20.023 0 0 1 28.663.569l29.065 31.007z" fill="#6c63ff"/><circle cx="147.594" cy="146.155" r="23.183" fill="#a0616a"/><path d="M112.822 133.36c-3.53-12.867 24.936-23.9 32.41-13.539 1.04-1.473 4.88-2.368 6.643-1.916a13.745 13.745 0 0 1 4.691 2.676c1.989 1.527 4.05 3.109 5.27 5.305 1.228 2.187 1.418 5.17-.236 7.068-1.31 1.51-5.179 2.485-7.149 2.883a95.4 95.4 0 0 1-3.525.669 6.74 6.74 0 0 1-1.175-4.456 5.47 5.47 0 0 0-2.386 4.013c-.027.334 11.108 41.304 11.108 41.304a24.286 24.286 0 0 1-4.203 1.889 52.848 52.848 0 0 1-6.552-14.28 45.761 45.761 0 0 0 .126 10.167 55.944 55.944 0 0 0 .958 5.631c-13.231 2.856-33.133 1.916-41.792-10.231l-.004-.15a2.067 2.067 0 0 0-3.993-.722c-.21.536-.403 1-.576 1.37-2.521-9.02.741-19.46 10.385-37.68z" fill="#2f2e41"/><path d="M54.259 547.162a2.27 2.27 0 0 1-1.645-3.933l.156-.619-.062-.148a6.094 6.094 0 0 0-11.241.042c-1.84 4.428-4.18 8.864-4.756 13.546a18.03 18.03 0 0 0 .316 6.2 72.282 72.282 0 0 1-6.575-30.02 69.766 69.766 0 0 1 .433-7.783q.358-3.178.995-6.31a73.119 73.119 0 0 1 14.5-30.99 19.459 19.459 0 0 0 8.093-8.397 14.843 14.843 0 0 0 1.35-4.056c-.394.052-1.486-5.949-1.189-6.317-.549-.833-1.532-1.247-2.131-2.06-2.983-4.044-7.092-3.338-9.237 2.157-4.582 2.313-4.626 6.148-1.815 9.837 1.79 2.347 2.035 5.522 3.605 8.035-.162.206-.33.407-.491.613a73.591 73.591 0 0 0-7.681 12.169 30.592 30.592 0 0 0-1.827-14.21c-1.748-4.217-5.025-7.769-7.91-11.415a6.28 6.28 0 0 0-11.184 3.084l-.017.16q.642.364 1.258.77a3.078 3.078 0 0 1-1.24 5.603l-.064.01a30.628 30.628 0 0 0 .808 4.579c-3.702 14.315 4.29 19.53 15.701 19.764.252.129.497.258.75.38a75.115 75.115 0 0 0-4.044 19.029 71.245 71.245 0 0 0 .052 11.503l-.02-.136a18.826 18.826 0 0 0-6.426-10.87c-4.946-4.063-11.933-5.559-17.268-8.824a3.533 3.533 0 0 0-5.412 3.437l.022.142a20.674 20.674 0 0 1 2.319 1.118q.643.362 1.258.77a3.078 3.078 0 0 1-1.24 5.601l-.063.01c-.046.006-.084.013-.13.02a30.655 30.655 0 0 0 5.639 8.829c2.315 12.497 12.256 13.683 22.89 10.043h.007a75.092 75.092 0 0 0 5.044 14.726h18.02c.065-.2.123-.406.181-.607a20.475 20.475 0 0 1-4.986-.297c1.337-1.64 2.674-3.294 4.01-4.934a1.12 1.12 0 0 0 .085-.097c.678-.84 1.363-1.673 2.04-2.513h.001a29.99 29.99 0 0 0-.879-7.64z" fill="#f2f2f2"/><path d="M.667 563.66a1.186 1.186 0 0 0 1.19 1.19h253.29a1.19 1.19 0 0 0 0-2.38H1.858a1.187 1.187 0 0 0-1.19 1.19z" fill="#ccc"/><path d="M554.143 57.12H298.62a23.096 23.096 0 0 0-23.096 23.096v385.809a23.096 23.096 0 0 0 23.096 23.095h255.523a23.096 23.096 0 0 0 23.096-23.095c33.896-131.114 34.939-259.794 0-385.809a23.096 23.096 0 0 0-23.096-23.096zM306.381 435.667a3.739 3.739 0 0 1-3.738 3.74h-9.665a3.739 3.739 0 0 1-3.74-3.74v-9.665a3.739 3.739 0 0 1 3.74-3.739h9.665a3.739 3.739 0 0 1 3.739 3.74zm0-38.143a3.739 3.739 0 0 1-3.738 3.74h-9.665a3.739 3.739 0 0 1-3.74-3.74v-9.665a3.739 3.739 0 0 1 3.74-3.739h9.665a3.739 3.739 0 0 1 3.739 3.74zm0-38.143a3.739 3.739 0 0 1-3.738 3.74h-9.665a3.739 3.739 0 0 1-3.74-3.74v-9.664a3.739 3.739 0 0 1 3.74-3.74h9.664a3.739 3.739 0 0 1 3.74 3.74zm0-38.142a3.739 3.739 0 0 1-3.738 3.739h-9.665a3.739 3.739 0 0 1-3.74-3.74v-9.664a3.739 3.739 0 0 1 3.74-3.74h9.664a3.739 3.739 0 0 1 3.74 3.74zm0-38.143a3.739 3.739 0 0 1-3.738 3.739h-9.665a3.739 3.739 0 0 1-3.74-3.74v-9.664a3.739 3.739 0 0 1 3.74-3.74h9.665a3.739 3.739 0 0 1 3.739 3.74zm0-38.143a3.739 3.739 0 0 1-3.738 3.739h-9.665a3.739 3.739 0 0 1-3.74-3.74v-9.664a3.739 3.739 0 0 1 3.74-3.739h9.665a3.739 3.739 0 0 1 3.739 3.739zm0-38.143a3.739 3.739 0 0 1-3.738 3.739h-9.665a3.739 3.739 0 0 1-3.74-3.739v-9.665a3.739 3.739 0 0 1 3.74-3.739h9.665a3.739 3.739 0 0 1 3.739 3.74zm0-38.143a3.739 3.739 0 0 1-3.738 3.74h-9.665a3.739 3.739 0 0 1-3.74-3.74v-9.665a3.739 3.739 0 0 1 3.74-3.739h9.665a3.739 3.739 0 0 1 3.739 3.74zm0-38.143a3.739 3.739 0 0 1-3.738 3.74h-9.665a3.739 3.739 0 0 1-3.74-3.74v-9.665a3.739 3.739 0 0 1 3.74-3.739h9.665a3.739 3.739 0 0 1 3.739 3.74z" fill="#f2f2f2"/><rect x="289.239" y="77.692" width="17.143" height="17.143" rx="2.181" fill="#6c63ff"/><path d="M527.524 126.692H340.91a1 1 0 0 1 0-2h186.614a1 1 0 0 1 0 2zM527.524 88.977h-53.143a1 1 0 0 1 0-2h53.143a1 1 0 1 1 0 2zM527.524 164.406H340.91a1 1 0 0 1 0-2h186.614a1 1 0 0 1 0 2zM527.524 202.12H340.91a1 1 0 0 1 0-2h186.614a1 1 0 0 1 0 2zM527.524 239.835H340.91a1 1 0 0 1 0-2h186.614a1 1 0 0 1 0 2zM527.524 277.55H340.91a1 1 0 0 1 0-2h186.614a1 1 0 1 1 0 2zM527.524 315.263H340.91a1 1 0 0 1 0-2h186.614a1 1 0 0 1 0 2zM527.524 352.978H340.91a1 1 0 0 1 0-2h186.614a1 1 0 0 1 0 2zM527.524 390.692H340.91a1 1 0 0 1 0-2h186.614a1 1 0 0 1 0 2zM527.524 428.407H340.91a1 1 0 0 1 0-2h186.614a1 1 0 0 1 0 2z" fill="#e6e6e6"/><path d="M499.859 117.887H371.157a3.812 3.812 0 1 1 0-7.624H499.86a3.812 3.812 0 0 1 0 7.624zM499.859 155.602H371.157a3.812 3.812 0 1 1 0-7.624H499.86a3.812 3.812 0 0 1 0 7.624zM499.859 193.316H371.157a3.812 3.812 0 1 1 0-7.624H499.86a3.812 3.812 0 0 1 0 7.624zM499.859 231.03H371.157a3.812 3.812 0 1 1 0-7.624H499.86a3.812 3.812 0 0 1 0 7.624zM499.859 268.745H371.157a3.812 3.812 0 1 1 0-7.625H499.86a3.812 3.812 0 0 1 0 7.625zM499.859 306.459H371.157a3.812 3.812 0 1 1 0-7.624H499.86a3.812 3.812 0 0 1 0 7.624zM499.859 344.173H371.157a3.812 3.812 0 1 1 0-7.624H499.86a3.812 3.812 0 0 1 0 7.624zM499.859 381.887H371.157a3.812 3.812 0 1 1 0-7.624H499.86a3.812 3.812 0 0 1 0 7.624zM499.859 419.602H371.157a3.812 3.812 0 1 1 0-7.624H499.86a3.812 3.812 0 0 1 0 7.624z" fill="#ccc"/><path d="M383.595 89.357h-33.307a1 1 0 0 0 0 2h15.654v32.637a1 1 0 0 0 2 0V107.01a15.653 15.653 0 0 1 15.653-15.653 1 1 0 0 0 0-2zM504.524 427.55c-.552 0-7.562-.448-7.562-1l6.562-33.307a1 1 0 0 1 2 0v33.307a1 1 0 0 1-1 1z" fill="#3f3d56"/><path d="M580.109 80.216a23.096 23.096 0 0 0-23.096-23.096H298.524c10.451 0 136.032 7.385 216.037 16.707a64.055 64.055 0 0 1 55.278 50.442c23.522 111.911 19.226 225.883-10.73 341.756a23.096 23.096 0 0 1-23.096 23.095h21a23.096 23.096 0 0 0 23.096-23.095c33.896-131.114 34.939-259.794 0-385.809z" fill="#e6e6e6"/><path d="m570.36 477.724-1.936-.5c34.195-132.266 34.206-261.858.036-385.179a44.043 44.043 0 0 0-35.542-22.666l-102.464-7.261.141-1.995 102.465 7.261a46.039 46.039 0 0 1 37.209 23.798l.087.216a710.49 710.49 0 0 1 25.85 191.261c-.129 63.598-8.825 129.228-25.845 195.065z" fill="#fff"/></svg>