<svg xmlns="http://www.w3.org/2000/svg" width="452.553" height="472.429"><g fill="#f2f2f2"><path d="M182.775 380.824c-.844-1.424-4.497.1-5.168-1.192-.67-1.287 2.724-3.249 4.663-7.73.35-.808 2.553-5.9.922-7.471-3.092-2.979-17.24 9.312-22.19 5.29-1.087-.882-1.847-2.645-5.135-5.506-1.308-1.138-2.1-1.652-2.865-1.46-1.087.27-1.173 1.725-2.337 4.584-1.748 4.287-2.78 4.028-3.799 7.449-.755 2.539-.583 4.015-1.472 4.303-1.258.407-2.416-2.287-4.01-2.046-1.628.247-2.612 3.383-2.923 5.73-.583 4.407 1.035 7.314 1.932 10.371.975 3.322 1.553 8.375-.697 15.528l-22.278 62.766c4.919-12.88 19.159-48.186 25.143-61.305 1.727-3.788 3.634-7.63 7.55-9.146 3.771-1.46 8.95-.588 15.55-2.178.772-.186 2.911-.73 3.18-1.989.223-1.04-1.035-1.62-.842-2.595.26-1.307 2.734-1.323 5.776-2.831 2.144-1.064 3.48-2.328 4.629-3.416.346-.327 5.495-5.261 4.371-7.156z"/><path d="M95.13 413.866c-.942.004-1.248 2.236-2.076 2.193-.825-.043-.809-2.274-2.448-4.519-.296-.405-2.16-2.955-3.402-2.608-2.353.658-.403 11.148-3.806 12.418-.746.278-1.83.142-4.183.931-.936.314-1.417.554-1.544.985-.18.611.508 1.073 1.575 2.47 1.6 2.094 1.175 2.526 2.56 4.013 1.029 1.103 1.803 1.445 1.688 1.964-.164.735-1.82.526-2.161 1.379-.349.87.906 2.257 1.969 3.087 1.994 1.557 3.888 1.602 5.647 2.044 1.912.48 4.559 1.654 7.42 4.823l24.378 29.043c-4.902-6.13-18.121-23.306-22.834-30.028-1.36-1.94-2.696-3.985-2.31-6.345.371-2.272 2.293-4.562 3.417-8.26.132-.433.482-1.64-.058-2.135-.446-.41-1.095.04-1.517-.335-.567-.505.14-1.724.277-3.652.097-1.36-.139-2.38-.34-3.257-.062-.265-.998-4.216-2.252-4.21zM113.93 418.086l-.568-5.068.26-.384c1.2-1.777 1.811-3.512 1.819-5.159 0-.262-.011-.523-.024-.79-.049-1.057-.11-2.371.575-3.903.385-.854 1.464-2.832 3.086-2.587.437.061.768.262 1.018.497l.115-.181c.506-.771.906-1.102 1.291-1.42.296-.245.602-.497 1.082-1.094.21-.262.374-.492.513-.685.42-.585.968-1.282 1.934-1.27 1.033.049 1.574.903 1.932 1.468.64 1.009.93 1.735 1.122 2.217.07.177.15.375.19.436.333.49 3.038.032 4.057-.135 2.29-.381 4.27-.712 5.087.732.585 1.033.15 2.398-1.33 4.168-.461.55-.952.969-1.388 1.297.361.215.684.546.815 1.064.309 1.229-.747 2.46-3.137 3.664-.593.3-1.392.702-2.512.896a9.867 9.867 0 0 1-1.408.124c-.009.235-.064.49-.207.752-.42.77-1.294 1.138-2.61 1.05-1.449-.076-2.642-.353-3.694-.595-.92-.21-1.71-.39-2.332-.348-1.153.093-2.041 1.016-3.084 2.213l-2.602 3.041zM116.563 387.91l-4.758 1.835-.438-.153c-2.023-.71-3.856-.862-5.451-.452-.254.066-.504.144-.759.223-1.01.316-2.266.708-3.921.434-.924-.155-3.11-.697-3.285-2.329a1.838 1.838 0 0 1 .222-1.11l-.204-.066c-.874-.293-1.295-.596-1.7-.889-.313-.224-.634-.456-1.333-.768-.307-.138-.571-.238-.793-.323-.672-.257-1.486-.61-1.72-1.549-.214-1.011.475-1.75.931-2.24a12.216 12.216 0 0 1 1.86-1.649c.153-.112.324-.24.373-.294.39-.446-.74-2.947-1.16-3.89-.95-2.118-1.771-3.95-.581-5.106.85-.828 2.281-.754 4.368.23.65.306 1.18.674 1.607 1.013.117-.404.354-.8.823-1.059 1.11-.61 2.568.1 4.34 2.106.44.497 1.032 1.169 1.503 2.203.221.487.363.94.478 1.33.23-.051.49-.062.779.01.852.21 1.429.962 1.677 2.258.295 1.42.33 2.645.362 3.724.03.942.058 1.753.256 2.344.382 1.091 1.5 1.717 2.922 2.422l3.602 1.745zM113.93 372.98l-.568-5.069.26-.384c1.2-1.777 1.811-3.512 1.819-5.159 0-.261-.011-.523-.024-.79-.049-1.057-.11-2.371.575-3.903.385-.854 1.464-2.832 3.086-2.587.437.061.768.262 1.018.497l.115-.181c.506-.771.906-1.102 1.291-1.42.296-.244.602-.497 1.082-1.094.21-.261.374-.492.513-.685.42-.585.968-1.282 1.934-1.27 1.033.049 1.574.903 1.932 1.468.64 1.009.93 1.735 1.122 2.218.07.176.15.374.19.435.333.49 3.038.032 4.057-.134 2.29-.382 4.27-.713 5.087.731.585 1.033.15 2.398-1.33 4.168-.461.55-.952.969-1.388 1.297.361.215.684.546.815 1.064.309 1.229-.747 2.46-3.137 3.664-.593.3-1.392.702-2.512.896a9.867 9.867 0 0 1-1.408.124c-.009.235-.064.49-.207.752-.42.77-1.294 1.138-2.61 1.05-1.449-.076-2.642-.353-3.694-.595-.92-.21-1.71-.39-2.332-.348-1.153.093-2.041 1.016-3.084 2.213l-2.602 3.041z"/><path d="m119.115 471.357-1.062-.665-.257-1.226.257 1.226-1.238.142c-.02-.115-.087-.38-.189-.793-.554-2.266-2.244-9.163-3.653-20.023a204.149 204.149 0 0 1-1.656-23.17c-.115-7.807.255-13.717.55-18.467.225-3.583.496-6.994.763-10.318.71-8.878 1.379-17.265.881-26.55-.11-2.072-.341-6.387-2.862-10.978-1.462-2.662-3.476-5.026-5.987-7.023l1.561-1.963c2.772 2.208 5 4.826 6.624 7.782 2.794 5.09 3.046 9.792 3.168 12.05.506 9.45-.17 17.917-.888 26.88-.264 3.312-.536 6.708-.758 10.276-.294 4.706-.66 10.565-.546 18.271.113 7.702.663 15.4 1.634 22.887 1.392 10.723 3.057 17.517 3.604 19.749.292 1.191.353 1.441.054 1.913z"/><path d="M100.066 357.494c-.103 0-.207-.003-.312-.01-2.134-.115-4.11-1.393-5.874-3.796-.828-1.13-1.251-2.42-2.095-4.992-.131-.397-.768-2.408-1.154-5.176-.253-1.808-.222-2.565.137-3.233.398-.744 1.041-1.262 1.766-1.612a1.416 1.416 0 0 1 .097-.74c.427-1.044 1.563-.907 2.177-.841.311.039.699.09 1.117.068.659-.032 1.012-.227 1.548-.521.513-.282 1.15-.631 2.096-.825 1.865-.389 3.428.14 3.943.313 2.71.903 4.046 3.01 5.593 5.45.308.49 1.367 2.271 2.065 4.714.504 1.762.433 2.545.282 3.127-.309 1.197-1.037 1.882-2.886 3.394-1.93 1.584-2.9 2.377-3.732 2.859-1.937 1.118-3.153 1.82-4.768 1.82z"/></g><path fill="#ffb6b6" d="M217.451 467.068h6.563l3.121-25.313h-9.685l.001 25.313z"/><path d="M239.935 466.92c.204.343.312 1.454.312 1.854 0 1.23-.997 2.228-2.227 2.228h-20.323c-.84 0-1.52-.68-1.52-1.52v-.846s-1.005-2.543 1.065-5.677c0 0 2.572 2.454 6.416-1.39l1.134-2.054 8.205 6.001 4.549.56c.995.123 1.877-.019 2.389.843z" fill="#2f2e41"/><path fill="#ffb6b6" d="M197.451 467.068h6.563l3.121-25.313h-9.685l.001 25.313z"/><path d="M219.935 466.92c.204.343.312 1.454.312 1.854 0 1.23-.997 2.228-2.227 2.228h-20.323c-.84 0-1.52-.68-1.52-1.52v-.846s-1.005-2.543 1.065-5.677c0 0 2.572 2.454 6.416-1.39l1.134-2.054 8.205 6.001 4.549.56c.995.123 1.877-.019 2.389.843zM225.032 357.755l7 27.107-3.5 69.61-16.5 1.104-1-40.071-2 41.25-17-3.536-1-90.75 34-4.714z" fill="#2f2e41"/><path d="M157.268 266.488c-2.258-3.963-6.134-6.01-8.656-4.573-2.522 1.438-2.735 5.816-.475 9.78a11.416 11.416 0 0 0 3.646 3.972l9.782 16.672 7.726-4.757-10.463-15.93c-.1-1.822-.635-3.592-1.56-5.164z" fill="#ffb6b6"/><path d="M201.722 325.344s-9.27 12.777-14.94 8.211c-5.67-4.566-36.998-55.894-36.998-55.894l12.432-6.663 39.506 54.346z" fill="#0047f5"/><path fill="#ffb6b6" d="m193.032 309.755 12-18 12 5-3 16-21-3z"/><path fill="#0047f5" d="m194.032 305.755 21-1 14 4 3 74-42-4v-39.024l-6-19.976 10-14z"/><path d="M228.69 355.671a16.386 16.386 0 0 1-.842-6.692c.537-6.398.639-18.934-5.883-24.597l-3.683-3.99c-.077-.084-.163-.155-.241-.236l6.094-14.325-3.681-1.566-5.657 13.297a16.15 16.15 0 0 0-8.396-2.373c-3.458 0-6.763 1.128-9.493 3.113l-3.45-12.64-3.86 1.054 4.314 14.415c-.157.19-.328.367-.477.566l-2.107 2.829a16.487 16.487 0 0 1-1.693 1.929c-1.294 1.267-3.818 4.343-3.842 9.079-.008 1.62-.341 3.221-.835 4.764l-2.505 7.828c-.235.735-.42 1.483-.545 2.244-1.104 6.704-4.927 38.283 21.201 37.651 24.357-.59 25.96-15.42 25.818-20.346-.03-1.069.065-2.13.265-3.18.365-1.927.694-5.336-.502-8.824z" fill="#3f3d56"/><path fill="#ffb6b6" d="m338.723 36.017 2.278 35.166-28.641 6.572 1.995-28.434 24.368-13.304zM340.904 463.408l-12.91-.001-6.142-49.796h19.054l-.002 49.797z"/><path d="M296.673 463.115c-.402.677-.614 2.862-.614 3.65a4.382 4.382 0 0 0 4.381 4.381h39.98a2.99 2.99 0 0 0 2.99-2.99v-1.664s1.978-5.002-2.094-11.169c0 0-5.061 4.829-12.623-2.734l-2.23-4.04-16.143 11.806-8.947 1.102c-1.958.24-3.693-.038-4.7 1.658z" fill="#2f2e41"/><path fill="#ffb6b6" d="m375.904 463.408-12.91-.001-6.142-49.796h19.054l-.002 49.797z"/><path d="M331.673 463.115c-.402.677-.614 2.862-.614 3.65a4.382 4.382 0 0 0 4.381 4.381h39.98a2.99 2.99 0 0 0 2.99-2.99v-1.664s1.978-5.002-2.094-11.169c0 0-5.061 4.829-12.623-2.734l-2.23-4.04-16.143 11.806-8.947 1.102c-1.958.24-3.693-.038-4.7 1.658zM384.032 226.755s11 14 9 22-16 192-16 192l-20-1-12-165-3.086 166-18.914-1-24-206 85-7z" fill="#2f2e41"/><path d="M268.405 271.394c-1.891 7.248-7.164 12.147-11.776 10.943s-6.818-8.055-4.925-15.306a18.746 18.746 0 0 1 4.089-7.853l8.4-30.609 14.28 4.248-9.797 29.724c.618 2.93.525 5.966-.271 8.853z" fill="#ffb6b6"/><circle cx="315.458" cy="36.626" r="28.574" fill="#ffb6b6"/><path fill="#e6e6e6" d="m312.032 72.755 30-6 33 17 7 109 9 41-93 1 4-55-6-87 16-20z"/><path d="M305.032 95.755s-16-5-22 4-17 90-17 90l-11 61 20 3 33-107-3-51z" fill="#e6e6e6"/><path d="M450.565 236.336c3.26 6.744 2.423 13.892-1.87 15.966s-10.412-1.711-13.673-8.458a18.746 18.746 0 0 1-1.979-8.63l-13.452-28.75 13.626-6.024 11.814 28.981c2.37 1.83 4.268 4.2 5.534 6.915z" fill="#ffb6b6"/><path d="M362.508 84.791s14.369-8.633 22.323-1.302c7.953 7.33 37.75 83.45 37.75 83.45l25.08 56.683-18.728 7.634-57.31-96.196-9.115-50.268z" fill="#e6e6e6"/><path d="M431.67 471.24c0 .66-.53 1.19-1.19 1.19H1.19c-.66 0-1.19-.53-1.19-1.19 0-.32.12-.6.32-.81h89.72c1.91 0 3.78-.13 5.62-.38h334.82c.66 0 1.19.53 1.19 1.19z" fill="#3f3d56"/><path d="M255.902 274.545c1.785-4.198 5.398-6.68 8.07-5.544 2.67 1.136 3.39 5.46 1.603 9.659a11.416 11.416 0 0 1-3.162 4.367l-7.786 17.692-8.225-3.83 8.55-17.035c-.112-1.82.214-3.64.95-5.31z" fill="#ffb6b6"/><circle cx="203.899" cy="286.652" r="18.393" fill="#ffb6b6"/><path fill="#0047f5" d="m227.032 308.755 18-7 6-21 13 5-10 30-27 10.315v-17.315z"/><path d="m201.48 307.103 10.97-8.926s-1.038-13.376 2.905-14.579 8.056-6.008 8.056-6.008-6.527-14.744-18.016-12.507c-11.488 2.237-8.867-1.166-15.947 2.583-7.08 3.75-8.74 8.753-7.88 14.069.862 5.316-1.702 18.523 6.874 19.203s13.038 6.165 13.038 6.165zM298.152 43.023c-2.086-3.803-1.003-5.618-2.884-7.105 0 0-.757-.598-6.457-1.36-.544-9.325-2.055-10.571-2.055-10.572-1.74-1.436-4.51-1.236-6.275-.583-3.733 1.38-3.604 5.015-6.083 5.51-3.424.685 5.912-5.17 5.803-11.362-.09-5.052 3.53-9.662 4.79-9.303 1.25.357 4.6-3.282 6.237-3.09 1.118.13 5.858-1.495 7.078-1.241 1.332.277 5.585 2.948 5.812 2.433 1.579-3.574 1.283-4.624 2.457-5.589 2.081-1.709 5.138-.159 10.04.934C326.704 3.944 328.754.722 333.8 3.42c2.549 1.363 4.51 4.646 8.33 11.156 5.342 9.104 8.013 13.656 7.63 18.686-.39 5.13-2.847 4.606-4.544 12.11-1.89 8.354.382 12.424-2.656 14.944-2.348 1.948-21.816 2.098-23.993.05-3.728-3.506 2.099-10.784-1.86-16.757-2.43-3.666-7.747-5.636-10.376-4.13-2.972 1.704-1.872 7.488-3.896 7.866-1.734.325-3.919-3.66-4.282-4.322z" fill="#2f2e41"/><g><path d="M159.66 275.482c3.98-3.363 2.924-11.159-2.36-17.414-2.313-2.738-5.053-4.726-7.737-5.815l-3.084-3.56-39.826-49.901s-22.056-49.642-28.566-55.005c-6.51-5.363-14.17-2.57-14.17-2.57l-5.978 7.394 37.244 69.312 38.116 38.359 5.145 5.364c.626 2.828 2.128 5.861 4.442 8.599 5.284 6.255 12.794 8.6 16.774 5.237z" fill="#ffb6b6"/><path fill="#e6e6e6" d="m84.482 153.017 9.98 14.638 14.328 21.205-25.745 8.906-22.73-39.004 24.167-5.745z"/><path d="m94.615 103.201-7.229 27.559-27.558-5.422S70.67 105.46 67.96 96.424l26.655 6.777zM65.523 461.928l16.596-.001 7.894-64.013-24.493.002.003 64.012z" fill="#ffb6b6"/><path d="M122.382 461.552c.516.87.79 3.679.79 4.69a5.633 5.633 0 0 1-5.633 5.633H66.144a3.843 3.843 0 0 1-3.843-3.842v-2.14s-2.542-6.43 2.692-14.357c0 0 6.506 6.206 16.227-3.515l2.867-5.193 20.75 15.176 11.503 1.416c2.516.31 4.747-.048 6.042 2.132zM111.603 276.676 88.735 432.29h-28.69l3.814-88.828 2.008-46.707-5.823-22.232s-2.655-4.942-4.891-10.932c-2.521-6.76-4.512-14.864-1.556-18.707 1.087-1.417 3.915-2.466 7.758-3.246 2.348-.48 5.081-.854 8.032-1.144 16.967-1.679 41.1-.63 41.1-.63l.614 20.246.34 11.306.162 5.26z" fill="#2f2e41"/><path fill="#ffb6b6" d="m36.29 454.318 16.419 2.412 17.122-62.183-24.234-3.561-9.307 63.332z"/><path d="M92.598 462.216c.385.936.246 3.755.099 4.756a5.633 5.633 0 0 1-6.392 4.753l-50.848-7.476a3.843 3.843 0 0 1-3.243-4.36l.311-2.117s-1.58-6.732 4.752-13.813c0 0 5.534 7.087 16.566-1.117l3.591-4.721 18.323 18.033 11.174 3.074c2.444.672 4.703.643 5.667 2.988zM111.963 250.724l-3.136 27.012-17.105 56.922-28.159 93.712-28.382-4.17 25.473-133.246-2.522-22.848s-.822-2.271-1.763-5.596c-1.87-6.578-4.213-17.29-1.634-22.754.348-.743.785-1.388 1.326-1.91 1.014-.983 3.076-1.58 5.838-1.897 11.544-1.305 35.32 2.427 45.9 4.259l4.164 10.516z" fill="#2f2e41"/><path d="m90.097 122.628 31.173 39.305-5.596 40.978-4.795 41.697-56.472-8.584s12.198-29.365 13.553-30.72 4.76 1.991 2.38-2.393-5.09-4.384-2.832-6.643-17.62-31.625-17.62-47.437c0-15.812 9.488-28.462 9.488-28.462l30.721 2.259z" fill="#e6e6e6"/><circle cx="82.824" cy="87.406" r="21" fill="#ffb6b6"/><path d="M81.843 127.556s3.142-24.863 3.698-32.094c.556-7.23 10.763-18.52 10.763-18.52l7.23 5.84s6.118 0 1.947-8.898c-4.172-8.9-11.958-10.29-11.958-10.29s-.835-11.68-15.296-10.29c-14.46 1.39-20.857 13.071-20.857 13.071s-.834-14.74-10.011-3.893c-9.178 10.845-14.461 15.295-4.728 18.91 9.733 3.616 16.964.835 16.964.835s-9.455 1.946-7.787 8.62c1.669 6.675-21.97 36.988-11.124 40.325 10.846 3.337 35.04 11.402 37.821 6.118 2.781-5.284 3.338-9.734 3.338-9.734z" fill="#2f2e41"/><path d="M168.407 277.564c4.009-3.329 3.017-11.134-2.214-17.433-2.29-2.757-5.013-4.768-7.687-5.88l-3.055-3.584-39.407-50.234S94.406 150.608 87.94 145.19c-6.465-5.418-14.148-2.69-14.148-2.69l-6.039 7.344 36.662 69.622 37.793 38.677 5.1 5.408c.602 2.832 2.079 5.878 4.37 8.635 5.23 6.3 12.72 8.707 16.73 5.377z" fill="#ffb6b6"/><path d="M65.466 138.64s9.647 50.06 20.624 57.44l21.875-17.056s1.915-.083-1.648-4.107c-3.563-4.025-2.65-12.667-2.65-12.667s1.602 2.074-1.886-.805c-3.488-2.88-.24-22.682-.24-22.682l-36.075-.124z" fill="#e6e6e6"/></g><path d="M224.793 345.18a1 1 0 0 1-.977-.789l-1.1-5.108a16.925 16.925 0 0 0-15.783-13.34c-7.112-.319-13.703 3.894-16.404 10.478l-2.759 6.725a1 1 0 1 1-1.85-.759l2.76-6.725c3.02-7.363 10.383-12.065 18.343-11.717a18.926 18.926 0 0 1 17.648 14.917l1.1 5.108a1 1 0 0 1-.978 1.21zM225.973 361.444c-.03 0-.06-.001-.09-.004l-37.004-3.3a1 1 0 0 1 .177-1.992l37.005 3.3a1 1 0 0 1-.088 1.996z" fill="#ffb6b6"/></svg>