<svg xmlns="http://www.w3.org/2000/svg" width="564.468" height="449.265"><path d="M239.346 431.63c2.066.13 3.207-2.437 1.644-3.933l-.155-.619.062-.148c2.089-4.982 9.17-4.947 11.241.042 1.839 4.428 4.18 8.864 4.756 13.546a18.029 18.029 0 0 1-.317 6.2c4.308-9.41 6.576-19.686 6.576-30.02 0-2.597-.143-5.194-.433-7.784a71.607 71.607 0 0 0-.995-6.31c-2.306-11.277-7.298-22.018-14.5-30.99-3.462-1.892-6.35-4.85-8.093-8.396-.626-1.279-1.117-2.655-1.35-4.056.394.051 1.486-5.949 1.189-6.317.549-.833 1.531-1.247 2.131-2.06 2.982-4.044 7.091-3.338 9.236 2.157 4.582 2.313 4.627 6.148 1.815 9.837-1.789 2.347-2.034 5.522-3.604 8.035.162.206.33.407.49.613a73.591 73.591 0 0 1 7.682 12.169c-.61-4.766.29-10.508 1.826-14.21 1.749-4.217 5.025-7.769 7.91-11.415 3.467-4.379 10.574-2.468 11.185 3.084l.017.16c-.428.243-.848.5-1.258.77-2.34 1.548-1.531 5.175 1.24 5.602l.063.01a30.628 30.628 0 0 1-.807 4.58c3.702 14.315-4.29 19.53-15.701 19.764-.252.129-.498.258-.75.38a73.187 73.187 0 0 1 2.765 9.98 73.856 73.856 0 0 1 1.279 9.048c.297 3.83.27 7.68-.052 11.504l.02-.136c.82-4.211 3.106-8.145 6.426-10.87 4.945-4.063 11.933-5.559 17.268-8.824 2.568-1.572 5.86.459 5.411 3.437l-.022.142c-.794.323-1.569.698-2.318 1.118-.429.241-.849.498-1.259.77-2.34 1.547-1.53 5.173 1.241 5.601l.063.01.13.02a30.655 30.655 0 0 1-5.64 8.829c-2.314 12.497-12.255 13.682-22.89 10.043h-.006a75.092 75.092 0 0 1-5.045 14.726h-18.02c-.064-.2-.122-.407-.18-.607 1.666.104 3.345.007 4.986-.297-1.337-1.64-2.674-3.294-4.011-4.935a1.12 1.12 0 0 1-.084-.096c-.678-.84-1.363-1.673-2.041-2.513a29.99 29.99 0 0 1 .878-7.64v-.001z" fill="#f2f2f2"/><path d="M0 448.075c0 .66.53 1.19 1.19 1.19h403.29c.66 0 1.19-.53 1.19-1.19 0-.66-.53-1.19-1.19-1.19H1.19c-.66 0-1.19.53-1.19 1.19z" fill="#ccc"/><path d="M544.743 449H338.192c-10.876 0-19.724-8.849-19.724-19.725V19.725C318.468 8.849 327.316 0 338.192 0h206.551c10.876 0 19.725 8.849 19.725 19.725v409.55c0 10.876-8.849 19.725-19.725 19.725zM338.192 2c-9.789 0-17.724 7.935-17.724 17.724v409.551c0 9.79 7.935 17.725 17.724 17.725h206.551c9.79 0 17.725-7.936 17.725-17.725v-278.57C562.468 68.577 495.89 2 413.763 2h-75.571z" fill="#e6e6e6"/><g fill="#e6e6e6"><circle cx="377.134" cy="178.118" r="24"/><circle cx="505.801" cy="178.118" r="24"/><circle cx="441.467" cy="178.118" r="24"/></g><circle cx="377.134" cy="247.118" r="24" fill="#e6e6e6"/><circle cx="505.801" cy="247.118" r="24" fill="#e6e6e6"/><circle cx="441.467" cy="247.118" r="24" fill="#e6e6e6"/><circle cx="377.134" cy="316.118" r="24" fill="#e6e6e6"/><circle cx="505.31" cy="385" r="24" fill="#e6e6e6"/><ellipse cx="409.81" cy="385" rx="56.5" ry="24" fill="#e6e6e6"/><circle cx="505.801" cy="316.118" r="24" fill="#e6e6e6"/><circle cx="441.467" cy="316.118" r="24" fill="#6c63ff"/><path d="M446.184 28H216.65c-6.806 0-12.34 5.534-12.34 12.34v84.32c0 6.806 5.534 12.34 12.34 12.34h229.534c6.806 0 12.34-5.534 12.34-12.34V40.34c0-6.806-5.534-12.34-12.34-12.34z" fill="#fff"/><path d="M446.184 28H216.65c-6.806 0-12.34 5.534-12.34 12.34v84.32c0 6.806 5.534 12.34 12.34 12.34h229.534c6.806 0 12.34-5.534 12.34-12.34V40.34c0-6.806-5.534-12.34-12.34-12.34zm11.043 96.66c0 6.092-4.95 11.042-11.043 11.042H216.65c-6.092 0-11.042-4.95-11.042-11.042V40.34c0-6.092 4.95-11.042 11.042-11.042h229.534c6.092 0 11.043 4.95 11.043 11.042v84.32z" fill="#3f3d56"/><rect x="225.917" y="79" width="211" height="7" rx="3.5" ry="3.5" fill="#6c63ff"/><path fill="#a0616a" d="m67.952 180.421-2.044 12.175 18.13 44.104 9.728-5.001-9.468-41.272-1.36-15.751-14.986 5.745z"/><path d="M87.966 111.929s-9.493-4.599-16.858 10.938c-7.366 15.538-6.454 49.615-6.454 49.615s-2.682 2.554-.98 4.342 3.29 4.626 1.553 7.897c-.915 1.724-3.034 5.096.436 6.054 3.469.959 19.698-3.568 19.698-3.568s6.068-2.718 2.62-4.549c-3.448-1.83 1.408-12.905 1.408-12.905l4.012-31.992-5.435-25.832z" fill="#6c63ff"/><ellipse cx="91.852" cy="241.931" rx="7.217" ry="12.155" transform="rotate(-17.071 91.852 241.93)" fill="#a0616a"/><path fill="#a0616a" d="m185.278 442.57 9.086-2.44-5.082-36.207-13.41 3.6 9.406 35.047z"/><path d="M216.354 434.01c.41.4.973 1.899 1.121 2.453a3.193 3.193 0 0 1-2.256 3.911l-28.14 7.551a2.178 2.178 0 0 1-2.668-1.54l-.315-1.17s-2.337-3.148-.635-8.257c0 0 4.474 2.442 8.368-4.309l.807-3.264 13.591 5.26 6.506-.914c1.423-.2 2.592-.724 3.62.28z" fill="#2f2e41"/><path fill="#a0616a" d="M96.211 442.361h9.408l4.476-36.289-13.886.001.002 36.288z"/><path d="M128.444 442.148c.293.493.447 2.085.447 2.659a3.193 3.193 0 0 1-3.193 3.193H96.563a2.178 2.178 0 0 1-2.178-2.178v-1.213s-1.441-3.646 1.526-8.14c0 0 3.688 3.519 9.199-1.992l1.625-2.944 11.764 8.603 6.52.803c1.426.176 2.691-.027 3.425 1.209zM158.823 226.205l24.738 106.632 11.943 86.159-18.767 2.56L124.7 274.828l-11.942 146.726-21.327 1.706s-17.061-174.023-9.383-195.35l76.775-1.706z" fill="#2f2e41"/><g><path fill="#a0616a" d="m188.27 100.115 8.535-8.92 9.802-46.666-10.856-1.333-15.374 39.454-7.73 13.791 15.622 3.674z"/><path d="M133.21 145.505s7.988 14.73 22.815 6.022c14.827-8.708 30.508-42.992 30.508-42.992s3.131-8.715 6.407-10.444c1.726-.91 6.168-1.893 3.838-4.636-2.33-2.743-19.09-8.74-19.09-8.74s-6.547-1.163-4.725 2.29c1.822 3.452-4.162 1.313-3.558 4.967.604 3.654-4.862 4.913-4.862 4.913l-31.333 48.62z" fill="#6c63ff"/><ellipse cx="203.087" cy="35.81" rx="12.155" ry="7.217" transform="rotate(-72.861 203.087 35.81)" fill="#a0616a"/></g><path d="M134.27 94.473h-23.356l-.945 7.365s-29.456 8.1-28.72 12.519 5.155 78.059 5.155 78.059l-3.682 36.82s66.277 27.984 76.587-5.154l-5.155-38.294s12.519-65.54 9.573-68.486c-2.946-2.945-27.247-14.728-27.247-14.728l-2.21-8.1z" fill="#6c63ff"/><circle cx="120.704" cy="73.601" r="20.964" fill="#a0616a"/><path d="m136.23 64.978 8.035-.68c-.92-.422-1.88-.874-2.493-1.68-.613-.806-.74-2.08 0-2.77.867-.807 2.3-.38 3.247.331a10.83 10.83 0 0 0-4.423-6.79c-2.783-1.925-9.668.37-13.024-.071-3.87-.51-4.354-3.81-8.225-4.32-1.46-.193-3.102-.338-4.249.584-1.273 1.022-1.415 2.955-2.538 4.14-1.603 1.692-4.35 1.192-6.632 1.668-3.231.675-5.667 3.508-6.792 6.611s-1.167 6.479-1.195 9.78c-.033 3.7-.044 7.982 2.631 10.537 1.63 1.556 6.07 6.897 6.55 9.1.341 1.563 14.234 3.468 17.245 3.381l10.263-3.382c1.009-4.441-.66-13.227-3.058-17.1.79 1.044 4.442 4.184 5 3s.305-4.891 1-6c.878-1.398-2.988-6.2-1.343-6.34z" fill="#2f2e41"/></svg>