<svg xmlns="http://www.w3.org/2000/svg" data-name="Layer 1" width="434.258" height="761.185"><path d="m87.667 81.405-13.04-57.869-4.254-18.852A6.013 6.013 0 0 0 63.179.15l-6.424 1.453L5.24 13.226a6 6 0 0 0-4.534 7.177C-2.059 46.15 3.402 69.904 15.252 92.135a141.756 141.756 0 0 0 2.766 4.989 5.935 5.935 0 0 0 1.698 3.01 6.025 6.025 0 0 0 5.479 1.523l6.756-1.523 4.166-.945 47.016-10.608a6.004 6.004 0 0 0 4.534-7.176z" fill="#e6e6e6"/><path d="m82.276 78.184-12.428-55.05-2.976-13.216a5.627 5.627 0 0 0-6.722-4.254l-3.956.893-45.843 10.345a5.627 5.627 0 0 0-4.253 6.722C6.5 43.666 8.6 61.853 17.23 72.95a25.064 25.064 0 0 0 17.19 18.432c.104.035.192.07.297.105.07.018.157.053.227.07a24.88 24.88 0 0 0 12.236.315l30.842-6.966a5.627 5.627 0 0 0 4.254-6.722z" fill="#fff"/><path d="M36.603 35.258a7.175 7.175 0 0 1 8.396-1.831c3.059 1.528 4.246 4.779 3.757 8.011-.546 3.612-2.432 6.899-2.604 10.596-.15 3.236 1.057 6.636 3.924 8.378 2.056 1.25 4.173-1.843 2.107-3.098-3.4-2.066-2.258-6.605-1.272-9.7 1.232-3.866 2.515-7.807.992-11.79a10.759 10.759 0 0 0-17.763-3.39c-1.622 1.749.82 4.595 2.463 2.824z" fill="#6c63ff"/><circle cx="53.105" cy="67.463" r="3.747" fill="#6c63ff"/><path d="m288.914 724.217-59.315-.355-19.324-.113c-3.32-.017-6.043 1.245-6.08 2.82l-.078 3.124-.65 25.048c-.05 1.565 2.607 2.864 5.928 2.882a251.579 251.579 0 0 0 73.15 1.185q2.73-.33 5.494-.726a11.216 11.216 0 0 0 3.322-.452c1.64-.506 2.724-1.374 2.753-2.36l.087-3.285.047-2.027.595-22.86c.036-1.575-2.625-2.866-5.929-2.881z" fill="#e6e6e6"/><path d="m284.53 726.35-56.432-.327-13.545-.082c-3.104-.019-5.659 1.16-5.697 2.633l-.05 1.923-.578 22.29c-.039 1.473 2.447 2.684 5.551 2.703 19.588 2.02 37.766 3.054 50.564.294 9.316.047 17.532-2.335 21.918-5.902.058-.044.112-.08.17-.125.034-.03.088-.067.122-.098a7.81 7.81 0 0 0 3.146-5.61l.382-14.997c.039-1.472-2.447-2.684-5.55-2.703z" fill="#fff"/><path d="M232.176 742.696c-1.73-1.228-1.911-2.898.167-4.075 2.197-1.243 5.635-1.433 8.665-.852 3.386.65 6.146 1.882 9.703 2.368 3.112.425 6.7.243 9.06-.888 1.692-.811-.825-2.128-2.526-1.313-2.798 1.341-6.948.314-9.73-.481-3.475-.994-7.01-2.02-11.238-1.756-7.693.481-11.706 4.779-7.42 7.823 1.325.94 4.66.127 3.319-.826z" fill="#e6e6e6"/><ellipse cx="267.332" cy="738.628" rx="3.747" ry="1.777" fill="#e6e6e6"/><path d="M3.36 289.958c-5.154-21.646-4.294-42.966 4.53-63.854a4.892 4.892 0 0 1 5.221-4.529l48.224 3.422a4.892 4.892 0 0 1 4.529 5.22l-4.531 63.854a4.892 4.892 0 0 1-5.22 4.529l-48.224-3.422a4.892 4.892 0 0 1-4.53-5.22z" fill="#f2f2f2"/><path d="M8.427 270.934c-4.124-10.667-1.487-25.337 2.913-41.051a4.582 4.582 0 0 1 4.89-4.242l41.444 2.94a4.582 4.582 0 0 1 4.241 4.89l-4.031 56.821a4.582 4.582 0 0 1-4.89 4.242l-25.674-1.822a20.41 20.41 0 0 1-18.893-21.778z" fill="#fff"/><path d="m37.12 273.717-3.797-.652a12.752 12.752 0 0 0 .994-4.338c.6-7.992.66-16.06.98-24.068a1.519 1.519 0 0 0-2.561-1.06l-9.538 7.9c-1.488 1.232.644 3.344 2.121 2.12l6.846-5.67-.628 15.742c-.1 2.518.205 5.576-.826 7.944a3.825 3.825 0 0 1-.547.887l-4.204-.722c-1.008-.173-2.29.668-1.846 1.845.965 2.559 3.809 3.368 6.247 2.381a5.078 5.078 0 0 0 .623-.333l5.339.917c1.888.325 2.7-2.566.798-2.893zM178.36 295.958c-5.154-21.646-4.294-42.966 4.53-63.854a4.892 4.892 0 0 1 5.221-4.529l48.224 3.422a4.892 4.892 0 0 1 4.529 5.22l-4.531 63.854a4.892 4.892 0 0 1-5.22 4.529l-48.224-3.422a4.892 4.892 0 0 1-4.53-5.22z" fill="#f2f2f2"/><path d="M183.427 276.934c-4.124-10.667-1.487-25.337 2.913-41.051a4.582 4.582 0 0 1 4.89-4.242l41.444 2.94a4.582 4.582 0 0 1 4.241 4.89l-4.031 56.821a4.582 4.582 0 0 1-4.89 4.242l-25.674-1.822a20.41 20.41 0 0 1-18.893-21.778z" fill="#fff"/><path d="M210.483 266.1a8.446 8.446 0 0 0 1.555-.943 8.607 8.607 0 0 0 2.814-8.952c-1.944-7.144-10.49-7.188-16.39-6.328-1.903.277-1.093 3.169.798 2.893 3.976-.58 10.218-1.048 12.355 3.295a5.705 5.705 0 0 1-.914 6.285 5.554 5.554 0 0 1-3.376 1.605 8.923 8.923 0 0 0-3.928-.733c-1.39.066-2.165 2.087-.757 2.795a9.012 9.012 0 0 0 4.01.946 6.5 6.5 0 0 1 3.666 6.198 6.723 6.723 0 0 1-7.691 5.633c-1.886-.38-2.692 2.511-.798 2.892a9.75 9.75 0 0 0 11.455-8.19 9.111 9.111 0 0 0-2.8-7.396z" fill="#f2f2f2"/><path fill="#ffb6b6" d="m272.105 705.445-16.967-.001L247.067 640l25.041.002-.003 65.443z"/><path d="m272.702 723.145-52.175-.002v-.66a20.31 20.31 0 0 1 20.308-20.307h.001l9.53-7.23 17.782 7.23h4.555z" fill="#2f2e41"/><path fill="#ffb6b6" d="m350.105 741.445-16.967-.001L325.067 676l25.041.002-.003 65.443z"/><path d="m350.702 759.145-52.175-.002v-.66a20.31 20.31 0 0 1 20.308-20.307h.001l9.53-7.23 17.782 7.23h4.555z" fill="#2f2e41"/><path d="M141.355 218.083a12.068 12.068 0 0 0 18.374-.454l57.852 16.467 8.489-14.881-68.855-19.057a12.051 12.051 0 0 0-15.86 17.925z" fill="#ffb6b6"/><path d="M291.796 355.819 230.923 495l-7 22 21.164 154.416 34.16-1.667-.076-19.802s-8.13-4.409-.027-6.803 7.762-8.474-.067-17.434-.367-94.71-.367-94.71 32.237-30.87 28.725-38.935 3.008-8.065 3.008-8.065 6.95-1.243 7.215-4.621 5.417-10.172 5.417-10.172L321.27 707.03h29.475s13.475-22.392 10.827-27.211-6.352-5.291 0-11.055 15.674-1.047 11.513-11.906-3.092-128.034-3.092-128.034 16.396-67.997 6.266-72.614-5.094-3.966.888-10.291-4.163-5.748.91-10.537 5.276-61.152 5.276-61.152z" fill="#2f2e41"/><path d="M387.923 395c-42.67-.1-79.28 9.49-121.95 9.39 2.78-19.24 12.496-49.396 15.274-68.64 3.908-27.068.878-43.224 4.776-70.29.39-2.65.77-5.29 1.15-7.94 1.54-10.7-2.15-21.4 4.47-32.7 2.82-4.82 7.51-9.74 15.28-14.82 16.14 1.64 15.86-5.64 32-4l5.34 10.64c.68 4.04 3.13 6.67 6.45 8.66 6.83 4.13 17.35 5.57 23.67 11.16 7.94 7.02 7.41 18.25 5.05 29.21-.84 3.9-1.91 7.76-2.92 11.39-8.129 29.247 2.262 51.56 10.734 78.69.804 2.572-6.805 12.52-6 15 1.368 4.2 6.263 9.425 5.483 12.264-.964 3.514-1.926 6.82 1.193 11.986z" fill="#6c63ff"/><path d="m379.434 265.67-93.41-.21-3-.01-110.776-40.7 14.176.48 6.58-15.17 3.17-7.29 65.29 21.82 30.18.23 56.9.42c.73.01 1.45.03 2.17.06 6.83 4.13 17.35 5.57 23.67 11.16 7.94 7.02 7.41 18.25 5.05 29.21z" fill="#6c63ff"/><circle cx="315.616" cy="172.742" r="30.355" fill="#ffb6b6"/><path d="m311.302 198.834 2.472 7.906c5.483-2.707 21.04-6.462 25.605-10.53s8.096-9.68 8.312-15.79c.112-3.156-.652-6.34-.128-9.454.592-3.519 2.764-6.569 3.758-9.996a15.945 15.945 0 0 0-8.601-18.405c-5.032-2.212-10.786-1.59-16.256-2.125s-11.572-3.01-13.112-8.285c-.576-1.973-.51-4.299-2.272-5.59a4.312 4.312 0 0 0-5.71.825q-.121.138-.234.279c-4.63 5.809-13.357 6.24-17.924.381q-.448-.574-.86-1.175a9.948 9.948 0 0 0-.394 14.133 7.672 7.672 0 0 1-7.465-5.887c-2.095 2.893-4.245 5.91-4.919 9.419s.577 7.657 3.794 9.21a12.327 12.327 0 0 0 5.168.846c-8.3 9.816-3.32 9.534 13.487.256 8.338.158 5.045 7.906 5.153 16.245 3.924-.377 7.965-.746 11.676.906a8.961 8.961 0 0 1 4.165 3.579c2.452 4.212.019 8.59-2.137 12.422-1.844 3.275-3.59 7.219-2.061 10.651" fill="#2f2e41"/><path d="M256.054 453.307a12.068 12.068 0 0 0 3.657-18.011l28.958-52.72-12.613-11.595-33.937 62.867a12.051 12.051 0 0 0 13.935 19.46z" fill="#ffb6b6"/><path d="m326.683 206.77-6.75 120.92-32.52 75.99-21.166 28.07 2.406-12.72-14.59-7.3-1.37-.68 19.42-49.19 5.86-14.84 2.73-44.67 2.58-42.24a52.634 52.634 0 0 1 19.34-37.63l16.2-13.16z" fill="#6c63ff"/><path d="M99.36 206.958c-5.154-21.646-4.294-42.966 4.53-63.854a4.892 4.892 0 0 1 5.221-4.529l48.224 3.422a4.892 4.892 0 0 1 4.529 5.22l-4.531 63.854a4.892 4.892 0 0 1-5.22 4.529l-48.224-3.422a4.892 4.892 0 0 1-4.53-5.22z" fill="#f2f2f2"/><path d="M104.427 187.934c-4.124-10.667-1.487-25.337 2.913-41.051a4.582 4.582 0 0 1 4.89-4.242l41.444 2.94a4.582 4.582 0 0 1 4.241 4.89l-4.031 56.821a4.582 4.582 0 0 1-4.89 4.242l-25.674-1.822a20.41 20.41 0 0 1-18.893-21.778z" fill="#fff"/><path d="M129.914 159.34c-4.249-1.475-8.973 1.885-9.455 6.24-.547 4.938 4.764 8.836 9.362 7.494 1.85-.54 1.063-3.436-.797-2.893-3.37.984-6.966-2.655-5.028-5.909a4.431 4.431 0 0 1 4.527-2.215 5.018 5.018 0 0 1 3.344 3.035c1.653 3.726-.312 7.51-2.917 10.218-1.485 1.545-3.228 2.745-4.829 4.153a6.983 6.983 0 0 0-2.746 4.954 5.997 5.997 0 0 0 3.412 5.183c2.558 1.315 5.467.897 8.188.459 1.901-.306 1.094-3.197-.797-2.893-2.38.383-5.943.963-7.451-1.518-1.291-2.125 1.37-3.991 2.819-5.121 3.643-2.841 7.327-6.51 7.874-11.34.449-3.958-1.562-8.479-5.506-9.848z" fill="#6c63ff"/><path d="M379.999 743.852a2.27 2.27 0 0 0 1.644-3.933l-.155-.618.062-.148a6.094 6.094 0 0 1 11.241.041c1.839 4.429 4.18 8.864 4.756 13.546a18.029 18.029 0 0 1-.317 6.2 72.281 72.281 0 0 0 6.576-30.02 69.764 69.764 0 0 0-.433-7.783q-.359-3.178-.995-6.31a73.119 73.119 0 0 0-14.5-30.99 19.459 19.459 0 0 1-8.093-8.396 14.843 14.843 0 0 1-1.35-4.057c.394.052 1.486-5.948 1.188-6.316.55-.834 1.532-1.248 2.132-2.06 2.982-4.044 7.091-3.338 9.236 2.156 4.582 2.313 4.627 6.149 1.815 9.837-1.789 2.347-2.034 5.523-3.604 8.035.161.207.33.407.49.614a73.59 73.59 0 0 1 7.682 12.168 30.593 30.593 0 0 1 1.826-14.21c1.748-4.217 5.025-7.768 7.91-11.414a6.28 6.28 0 0 1 11.185 3.083l.017.161q-.643.363-1.259.77a3.078 3.078 0 0 0 1.241 5.602l.063.01a30.628 30.628 0 0 1-.807 4.579c3.702 14.316-4.29 19.53-15.702 19.764-.251.13-.497.258-.749.381a75.114 75.114 0 0 1 4.043 19.028 71.243 71.243 0 0 1-.051 11.503l.02-.135a18.826 18.826 0 0 1 6.426-10.87c4.945-4.063 11.933-5.56 17.268-8.825a3.533 3.533 0 0 1 5.411 3.437l-.022.143a20.675 20.675 0 0 0-2.318 1.117q-.643.363-1.259.77a3.078 3.078 0 0 0 1.241 5.602l.063.01.129.019a30.655 30.655 0 0 1-5.639 8.83c-2.314 12.496-12.256 13.682-22.89 10.043h-.006a75.092 75.092 0 0 1-5.045 14.726h-18.02c-.064-.2-.122-.407-.18-.607a20.475 20.475 0 0 0 4.986-.297c-1.337-1.64-2.674-3.294-4.011-4.935a1.12 1.12 0 0 1-.084-.097c-.679-.84-1.363-1.673-2.041-2.512v-.001a29.99 29.99 0 0 1 .878-7.64z" fill="#f2f2f2"/><path d="M178.447 759.995a1.186 1.186 0 0 0 1.19 1.19h253.29a1.19 1.19 0 1 0 0-2.38h-253.29a1.187 1.187 0 0 0-1.19 1.19z" fill="#ccc"/><path d="M50.936 102.533c-1.251 18.493-.65 39.482 13.705 53.201a32.861 32.861 0 0 0 11.783 7.303c1.824.643 2.609-2.255.797-2.893-7.374-2.6-13.176-8.313-17.042-14.992-4.531-7.83-6.26-16.863-6.639-25.816a153.14 153.14 0 0 1 .396-16.803c.13-1.927-2.87-1.92-3 0z" fill="#3f3d56"/><path d="M73.298 144.852c3.559 1.653 7.288 3.336 10.103 6.146 2.568 2.564 4.36 6.304 3.32 9.959-1.707 5.996-9.308 8.257-14.608 9.687a1.501 1.501 0 0 0 .797 2.892c5.332-1.438 11.31-3.446 14.792-8.01 4.121-5.401 2.165-12.52-2.464-16.926-2.982-2.838-6.734-4.623-10.426-6.338-1.74-.808-3.265 1.777-1.514 2.59z" fill="#3f3d56"/></svg>