<svg xmlns="http://www.w3.org/2000/svg" data-name="Layer 1" width="776.32" height="764.051"><circle cx="113.44" cy="373.971" r="113.44" fill="#f2f2f2"/><circle cx="114.454" cy="333.464" r="45.236" fill="#2f2e41"/><path d="M227.495 113.641A113.44 113.44 0 1 1 114.255.001a113.147 113.147 0 0 1 113.24 113.64z" fill="#f2f2f2"/><circle cx="382.63" cy="373.971" r="113.44" fill="#f2f2f2"/><circle cx="382.3" cy="113.44" r="113.44" fill="#f2f2f2"/><circle cx="658.78" cy="113.44" r="113.44" fill="#f2f2f2"/><circle cx="662.88" cy="373.971" r="113.44" fill="#f2f2f2"/><path d="M227.495 650.61a113.44 113.44 0 1 1-113.44-113.44 112.938 112.938 0 0 1 113.44 113.44z" fill="#f2f2f2"/><circle cx="389.59" cy="650.611" r="113.44" fill="#f2f2f2"/><path d="M61.476 76.538c4.691-14.949 15.358-28.66 30.11-33.713 14.753-5.054 36.354 2.644 47.445 13.698 20.288 20.218 25.238 89.677 11.3 111.626-2.772-.146-12.338-.255-15.144-.36l-3.97-13.23v13.1q-6.705-.208-13.515-.287a58.821 58.821 0 0 1-58.075-57.37c-.363-14.559 0-27.573 1.85-33.464z" fill="#2f2e41"/><circle cx="112.372" cy="93.753" r="32.33" fill="#9e616a"/><path d="m84.47 65.36 37.225-18.64A46.787 46.787 0 0 1 149.1 85.486l.927 11.114-15.587-3.968-1.708-14.212-2.647 13.103-7.194-1.83.069-22.063-7.199 22.047-25.692-5.903z" fill="#2f2e41"/><circle cx="351.479" cy="315.388" r="16.016" fill="#2f2e41"/><circle cx="377.104" cy="351.691" r="40.573" fill="#2f2e41"/><circle cx="380.462" cy="359.284" r="32.97" fill="#9e616a"/><path d="M402.852 325.675a37.767 37.767 0 0 0-57.419 32.96c16.8 4.218 34.45 7.446 52.366 1.01l4.231-10.356 2.495 10.363c5.456 2.23 10.926 4.117 16.396-.022a38.562 38.562 0 0 0-18.07-33.955z" fill="#2f2e41"/><path d="M336.567 271.912c-11.075-5.078-24.97-2.696-34.192 5.267-9.222 7.962-13.606 20.922-11.825 32.974 1.816 12.296 9.29 22.884 16.18 33.229 6.891 10.344 13.623 21.68 13.615 34.108a33.811 33.811 0 0 1-33.744 33.79c10.506 4.524 21.473 9.135 32.899 8.6 11.426-.537 23.403-7.883 25.267-19.169 1.343-8.132-2.647-16.061-5.974-23.602a166.953 166.953 0 0 1-11.668-38.41c-1.112-6.312-1.835-12.948.223-19.018a22.333 22.333 0 0 1 22.185-14.655l3.776-3.397c1.68-12.067-5.667-24.64-16.742-29.717zM612.483 69.069a106.585 106.585 0 0 1-7.604 24.27c-20.011 42.334 36.976 28.535 57.342 28.535 22.266 0 43.57 11.71 40.317-40.317-1.39-22.223-18.051-40.317-40.317-40.317-19.02 0-45.76 8.454-49.738 27.829z" fill="#2f2e41"/><circle cx="658.884" cy="89.102" r="32.762" fill="#ffb6b6"/><path d="M636.635 55.706a37.528 37.528 0 0 1 57.057 32.752c-16.695 4.191-34.233 7.399-52.036 1.002l-4.204-10.29-2.479 10.298c-5.421 2.216-10.857 4.09-16.293-.022a38.318 38.318 0 0 1 17.955-33.74z" fill="#2f2e41"/><circle cx="114.472" cy="344.231" r="40.411" fill="#ffb8b8"/><circle data-name="ab6171fa-7d69-4734-b81c-8dff60f9761b" cx="387.093" cy="627.963" r="34.415" fill="#9e616a"/><circle cx="386.924" cy="88.021" r="36.991" fill="#ffb8b8"/><path data-name="bf427902-b9bf-4946-b5d7-5c1c7e04535e" d="M419.493 63.584s9.63-18.412-11.558-20.086c0 0-18.064-16.386-36.475-2.995 0 0-10.043 0-15.535 11.364 0 0-7.898-2.995-9.634 5.022 0 0-5.78 16.738 0 31.802s7.7 16.738 7.7 16.738-4.056-18.694 19.061-20.368 44.325-16.155 46.251 2.257 4.044 10.094 4.044 10.094 18.298-26.296-3.854-33.828z" fill="#2f2e41"/><circle cx="659.749" cy="351.812" r="36.211" fill="#ffb6b6"/><path d="m160.45 623.467-.562 1.012c4.996-12.313.453-27.485-8.46-36.769-8.912-9.284-21.301-13.529-33.501-15.212-9.057-1.25-18.458-1.214-27.07 2.103-12.47 4.804-21.998 15.925-29.952 27.494-3.64 5.291-7.217 11.324-6.854 17.938.336 6.137 3.98 11.346 6.963 16.553 2.984 5.207 5.475 11.668 3.334 17.35-1.276 3.388-3.973 5.827-6.161 8.597s-3.988 6.516-2.931 9.992a8.152 8.152 0 0 0 6.073 5.278c2.645.616 5.39.214 8.069-.191l69.54-10.507a29.637 29.637 0 0 0 21.511-43.638z" fill="#2f2e41"/><circle cx="320.565" cy="700.596" r="33.999" transform="rotate(-80.783 174.697 791.103)" fill="#ffb9b9"/><path d="M199.235 725.51a113.4 113.4 0 0 1-158.71 11.47l9.73-27.15a29.197 29.197 0 0 1 24.8-17.03l6.19-.38 14.76-12.73s39.77-1.42 39.18-2.1l24.09 14.49-.02-.1 9.47.58a29.184 29.184 0 0 1 24.8 17.03zM473.235 725.51a113.4 113.4 0 0 1-158.71 11.47l9.73-27.15a29.197 29.197 0 0 1 24.8-17.03l6.19-.38 14.76-12.73s39.77-1.42 39.18-2.1l24.09 14.49-.02-.1 9.47.58a29.184 29.184 0 0 1 24.8 17.03z" fill="#6c63ff"/><path d="M140.974 601.066c-.878-4.643-5.613-6.766-9.67-7.795a93.151 93.151 0 0 0-36.037-1.98c-8.767 1.25-17.742 4.008-24.103 10.85a32.417 32.417 0 0 0-8.197 20.878 24.861 24.861 0 0 0 2.976 13.262c2.29 3.875 6.191 6.685 10.219 6.587l.408 1.418c17.07-2.378 32.926-12.999 42.913-28.744a36.825 36.825 0 0 1-10.759 17.38 67.034 67.034 0 0 0 28.937-22.3c2.02-2.681 3.98-6.024 3.313-9.556z" fill="#2f2e41"/><path d="M198.235 448.51a113.4 113.4 0 0 1-158.71 11.47l9.73-27.15a29.197 29.197 0 0 1 24.8-17.03l6.19-.38 14.76-12.73s39.77-1.42 39.18-2.1l24.09 14.49-.02-.1 9.47.58a29.184 29.184 0 0 1 24.8 17.03zM467.985 449.87a113.4 113.4 0 0 1-158.71 11.47l9.73-27.15a29.197 29.197 0 0 1 24.8-17.03l6.19-.38 14.76-12.73s39.77-1.42 39.18-2.1l24.09 14.49-.02-.1 9.47.58a29.184 29.184 0 0 1 24.8 17.03zM747.985 449.87a113.4 113.4 0 0 1-158.71 11.47l9.73-27.15a29.197 29.197 0 0 1 24.8-17.03l6.19-.38 14.76-12.73s39.77-1.42 39.18-2.1l24.09 14.49-.02-.1 9.47.58a29.184 29.184 0 0 1 24.8 17.03zM198.235 188.51a113.4 113.4 0 0 1-158.71 11.47l9.73-27.15a29.197 29.197 0 0 1 24.8-17.03l6.19-.38 14.76-12.73s39.77-1.42 39.18-2.1l24.09 14.49-.02-.1 9.47.58a29.184 29.184 0 0 1 24.8 17.03zM466.985 188.87a113.4 113.4 0 0 1-158.71 11.47l9.73-27.15a29.197 29.197 0 0 1 24.8-17.03l6.19-.38 14.76-12.73s39.77-1.42 39.18-2.1l24.09 14.49-.02-.1 9.47.58a29.184 29.184 0 0 1 24.8 17.03zM746.985 188.87a113.4 113.4 0 0 1-158.71 11.47l9.73-27.15a29.197 29.197 0 0 1 24.8-17.03l6.19-.38 14.76-12.73s39.77-1.42 39.18-2.1l24.09 14.49-.02-.1 9.47.58a29.184 29.184 0 0 1 24.8 17.03z" fill="#6c63ff"/><path d="M697.94 329.355a46.687 46.687 0 0 0-19.552-26.602c-7.602-4.862-17.089-7.345-25.701-4.773s-15.744 11.024-15.18 20.156c-3.109-1.058-6.643.35-8.919 2.754-2.276 2.405-3.5 5.64-4.376 8.86a56.325 56.325 0 0 0 .528 31.19l-.17 1.455c4.201-.695 7.389-4.3 9.37-8.142s3.123-8.102 5.271-11.85c2.148-3.747 5.715-7.09 9.97-7.206l-.375 6.504 10.984-5.659-2.613 6.25 9.592-4.01-1.072 6.01c3.17-7.217 12.977-10.388 19.647-6.353 3.875 2.344 6.416 6.52 7.753 10.907s1.602 9.025 1.857 13.611a47.6 47.6 0 0 0 2.986-33.102zM355.823 643.873c-.068-.188-.13-.378-.196-.567-.133.117-.26.237-.403.346z" fill="#2f2e41"/><path d="M428.318 615.72a24.742 24.742 0 0 0-9.239-18.06c-2.006-1.586-4.326-2.925-5.654-5.11a34.966 34.966 0 0 1-1.92-4.79c-2.642-6.288-10.171-9.63-16.925-8.678s-12.6 5.495-16.536 11.065a11.255 11.255 0 0 0-15.74 13.046c-3.498-2.818-9.155-.564-11.338 3.361-2.184 3.925-1.837 8.728-1.188 13.172a124.459 124.459 0 0 0 5.849 23.58c3.405-2.999 3.196-8.46 2.78-13.077-.433-4.796-.174-10.652 4.02-13.019 4.052-2.286 8.97.224 13.438 1.523a25.396 25.396 0 0 0 21.009-3.305c2.327-1.575 4.399-3.547 6.908-4.813s5.701-1.705 8.037-.143c2.133 1.427 3 4.088 3.727 6.55l5.16 17.5a24.742 24.742 0 0 0 7.612-18.803zM157.107 330.059a89.422 89.422 0 0 0 .389-9.077 42.726 42.726 0 0 0-3.223-17.495 26.883 26.883 0 0 0-14.066-13.59 25.665 25.665 0 0 0-19.243.017c-5.57-3.519-11.758-6.308-18.276-6.654-6.518-.346-13.409 2.072-17.425 7.395a28.44 28.44 0 0 1-3.044 3.955c-3.229 2.99-8.136 2.559-12.427 1.947l5.776 4.95-6.99 1.825 8.156 4.947c-7.893 4.738-11.48 15.079-10.533 24.47.896 8.892 5.19 17.023 10.32 24.25 2.048-4.32 1.607-9.49 1.573-14.355a32.487 32.487 0 0 1 .288-4.72c17.343 4.158 35.464 6.826 53.84.223l3.688-9.025c.518.053 1.036.103 1.553.158l2.137 8.876c4.844 1.98 9.698 3.71 14.554 1.892.236 1.37.378 2.77.488 4.115.416-1.609.778-3.23 1.104-4.856a14.359 14.359 0 0 0 1.838-1.175 39.512 39.512 0 0 0-.477-8.073z" fill="#2f2e41"/></svg>