<svg version="1.1" id="Layer_1" xmlns="http://www.w3.org/2000/svg" xmlns:xlink="http://www.w3.org/1999/xlink" x="0px" y="0px"
	 width="100%" viewBox="0 0 1920 1080" enable-background="new 0 0 1920 1080" xml:space="preserve">
<path fill="#FFFFFF" opacity="1.000000" stroke="none" 
	d="
M1221.000000,1081.000000 
	C814.000061,1081.000000 407.500153,1081.000000 1.000164,1081.000000 
	C1.000109,721.000122 1.000109,361.000275 1.000055,1.000309 
	C640.999756,1.000206 1280.999512,1.000206 1920.999512,1.000103 
	C1920.999634,360.999664 1920.999634,720.999329 1920.999756,1080.999512 
	C1687.833374,1081.000000 1454.666626,1081.000000 1221.000000,1081.000000 
M693.760132,511.852753 
	C693.760132,511.852753 693.299133,511.844940 693.235718,510.931122 
	C693.235718,505.951904 693.235718,500.972717 693.235718,495.824738 
	C681.780212,495.824738 670.721924,495.824738 659.599854,495.824738 
	C659.599854,551.720398 659.599854,607.260925 659.599854,662.781616 
	C670.911072,662.781616 681.858826,662.781616 693.225647,662.781616 
	C693.225647,660.777466 693.225647,658.990784 693.225647,657.204163 
	C693.225647,621.713318 693.898438,586.202698 692.853882,550.742615 
	C692.497192,538.633423 697.464905,532.243225 706.876953,527.252075 
	C708.491150,526.396057 710.138000,525.585266 711.823608,524.882935 
	C720.680237,521.192566 729.755127,520.551147 738.280457,525.173767 
	C747.518250,530.182739 749.407959,539.346130 749.426819,548.931030 
	C749.498108,585.088257 749.455627,621.245605 749.455688,657.402954 
	C749.455688,659.187622 749.455627,660.972351 749.455627,662.654358 
	C761.119873,662.654358 772.192566,662.654358 783.432068,662.654358 
	C783.432068,635.981201 783.464539,609.658691 783.420532,583.336304 
	C783.392090,566.342773 783.522949,549.341919 783.061646,532.358521 
	C782.775391,521.821655 778.983765,512.290894 771.130981,504.998322 
	C755.816772,490.776367 727.332214,489.236176 711.849548,498.790070 
	C705.580139,502.658813 700.008118,507.657745 693.760132,511.852753 
M623.153503,729.106140 
	C624.803284,729.379395 626.453064,729.652588 629.026184,729.906494 
	C639.930481,729.978577 650.848999,729.726501 661.735596,730.203125 
	C676.072205,730.830750 690.376709,732.158630 704.708252,732.942078 
	C715.047791,733.507385 725.408264,733.705078 735.760925,734.013000 
	C746.862061,734.343262 757.970337,734.482422 769.065918,734.938293 
	C782.455750,735.488403 795.831116,736.391174 809.220947,736.940369 
	C820.651917,737.409302 832.094543,737.592346 843.531799,737.908569 
	C844.196777,737.927002 844.861633,737.990723 845.523926,738.058533 
	C855.022278,739.031189 864.508362,740.148804 874.021423,740.944946 
	C883.724182,741.756958 893.462524,742.141724 903.166870,742.938354 
	C907.734619,743.313354 912.259338,744.213928 916.803223,744.878479 
	C919.659119,745.296204 922.514465,745.717834 926.751160,746.340698 
	C925.526794,742.659241 925.293152,739.830994 923.839294,737.941772 
	C916.300293,728.145264 908.464539,718.576599 900.668213,708.980469 
	C900.234253,708.446228 899.248230,708.202515 898.486206,708.116943 
	C890.237671,707.190552 882.605713,703.873291 873.999329,703.598938 
	C857.000854,703.057068 840.079224,700.446960 823.089783,699.171326 
	C809.032532,698.115906 794.925415,697.705139 780.836853,697.089966 
	C764.571289,696.379761 748.302246,695.748901 732.034058,695.100952 
	C707.284729,694.115234 682.534363,693.157227 657.785400,692.163208 
	C640.859619,691.483398 623.935425,690.762329 606.728882,689.598145 
	C606.152954,689.729797 605.576965,689.861450 604.064026,690.020508 
	C581.071411,689.389160 558.081970,688.485413 535.085083,688.211975 
	C516.422852,687.989990 497.751678,688.524963 478.909393,688.109375 
	C476.895569,685.905701 475.065277,684.956848 473.014465,688.888245 
	C467.360565,688.874329 461.706696,688.860413 455.924438,688.292664 
	C455.269165,688.490723 454.613922,688.688721 453.028412,688.945435 
	C427.025543,688.668518 401.022644,688.391541 374.744019,687.634094 
	C374.160553,687.768188 373.577057,687.902222 372.057159,688.049194 
	C356.372070,687.764282 340.687866,687.342834 325.001617,687.244019 
	C315.025024,687.181213 305.045410,687.597595 294.926025,687.206726 
	C294.160919,686.687134 293.395813,686.167542 292.630707,685.648010 
	C292.401672,686.385010 292.172638,687.122009 291.495697,687.913757 
	C291.495697,687.913757 291.045624,687.881104 290.972626,687.416016 
	C290.820953,687.166321 290.669281,686.916687 290.517578,686.666992 
	C290.325409,687.056519 290.133240,687.446045 289.013000,687.887024 
	C271.370300,687.651978 253.727905,687.383728 236.084564,687.217957 
	C233.453659,687.193176 230.821854,687.789001 228.184219,687.857666 
	C220.963837,688.045532 213.737976,688.034119 206.518860,688.252991 
	C203.883728,688.332947 201.251282,688.772095 198.635910,689.168152 
	C194.934311,689.728882 192.605331,691.187256 194.807266,695.442810 
	C195.409378,696.606323 195.480820,698.122437 196.264404,699.101807 
	C202.773254,707.236938 209.186539,715.463928 216.044571,723.299194 
	C221.246506,729.242432 228.088379,730.388306 235.567108,728.145325 
	C236.346573,727.911560 237.206543,727.890015 238.031372,727.872009 
	C253.737183,727.530212 269.443207,726.959167 285.149475,726.950012 
	C298.160461,726.942444 311.171143,727.853455 324.183228,727.888611 
	C335.527802,727.919250 346.874084,727.039429 358.219788,727.034973 
	C368.733246,727.030823 379.245117,727.734436 389.761047,727.980591 
	C406.099945,728.363220 422.441193,728.828308 438.782379,728.866028 
	C450.970551,728.894165 463.158875,728.208252 475.349854,728.040405 
	C479.292908,727.986084 483.245056,728.804749 487.192352,728.798279 
	C492.471008,728.789551 497.748932,728.366272 503.436829,728.636108 
	C504.618652,728.452332 505.800476,728.268555 507.904694,727.902649 
	C515.359863,727.641296 522.816833,727.115601 530.269836,727.166992 
	C554.837463,727.336243 579.403870,727.700439 603.970337,728.021851 
	C610.276733,728.104370 616.581482,728.305115 623.153503,729.106140 
M1666.191528,564.388123 
	C1670.220337,575.374084 1674.317627,586.335632 1678.262573,597.351624 
	C1684.740601,615.440674 1691.135620,633.559509 1697.505127,651.687073 
	C1697.926392,652.886047 1698.094604,654.297241 1697.936035,655.553711 
	C1697.452637,659.384827 1696.809082,663.198914 1696.125000,667.001099 
	C1693.345581,682.447266 1683.393433,695.631409 1668.830078,697.604736 
	C1661.172241,698.642334 1653.208984,697.425842 1644.693726,697.209778 
	C1644.693726,706.816528 1644.693726,717.314270 1644.693726,729.003906 
	C1653.035522,729.003906 1661.432251,729.069580 1669.827515,728.985352 
	C1678.086548,728.902405 1686.364624,727.793640 1693.477905,723.628174 
	C1705.393677,716.650635 1713.713013,706.059570 1718.869385,693.392212 
	C1723.625732,681.707397 1727.624634,669.695374 1731.547729,657.693665 
	C1743.146240,622.210510 1754.520996,586.654297 1766.025757,551.140381 
	C1771.967285,532.799377 1777.999023,514.487671 1784.196167,495.531677 
	C1771.912231,495.531677 1760.120850,495.437042 1748.336670,495.685638 
	C1747.220581,495.709198 1745.603882,497.705383 1745.145020,499.092010 
	C1741.658569,509.626068 1738.373047,520.227295 1735.081421,530.825073 
	C1729.128784,549.990479 1723.228149,569.171936 1717.266357,588.334473 
	C1716.662231,590.276062 1715.789307,592.134094 1714.622437,595.092285 
	C1709.461914,580.449097 1704.698364,567.035034 1700.007324,553.595764 
	C1693.912598,536.134766 1687.814331,518.674438 1681.859985,501.165344 
	C1680.505737,497.183472 1678.852417,495.053314 1673.934082,495.346985 
	C1664.634766,495.902252 1655.277588,495.471161 1645.944580,495.499298 
	C1644.738403,495.502930 1643.533203,495.799652 1641.826416,496.027527 
	C1646.370972,508.690430 1650.704956,520.783875 1655.051025,532.872986 
	C1658.731079,543.109253 1662.424927,553.340637 1666.191528,564.388123 
M436.293793,553.984436 
	C424.327423,557.738953 412.023071,560.676941 400.480530,565.455322 
	C386.138672,571.392578 373.233429,579.831970 367.155914,595.283203 
	C362.960114,605.950378 361.054535,616.770630 362.997040,628.503052 
	C365.366455,642.813660 374.282501,657.556396 388.850769,663.094360 
	C397.742432,666.474426 406.811432,665.968323 415.917175,665.977783 
	C428.499359,665.990845 439.255615,661.300720 448.546997,652.950623 
	C449.620667,651.985657 451.032074,651.396545 452.726746,650.365601 
	C452.929901,652.232361 452.964111,653.228699 453.154938,654.194092 
	C454.979065,663.420593 455.544708,663.445984 462.748199,663.021912 
	C464.740997,662.904663 466.746552,663.004028 468.746246,663.004028 
	C476.120819,663.004028 483.495422,663.004089 489.584167,663.004089 
	C488.647491,651.574951 487.166595,640.805603 487.001282,630.016174 
	C486.621002,605.192505 487.034912,580.357544 486.792450,555.530457 
	C486.713409,547.439453 486.257904,539.240051 484.826965,531.296936 
	C481.507965,512.872864 471.827850,499.667542 452.378479,495.959412 
	C446.097107,494.761841 439.611603,494.680145 433.259216,493.800659 
	C420.926971,492.093323 409.094391,494.367767 397.780273,498.839172 
	C382.616486,504.831940 373.001617,516.471680 367.035187,531.686462 
	C374.357452,536.154785 381.716217,540.645386 389.093964,545.147583 
	C401.709106,522.437500 421.417755,519.520142 441.343048,524.190735 
	C449.831879,526.180542 456.184479,542.600037 451.685272,549.697693 
	C451.190765,550.477783 449.762512,550.802063 448.699860,551.061523 
	C444.840942,552.003662 440.953308,552.828247 436.293793,553.984436 
M1322.271973,584.500061 
	C1322.271484,574.334167 1322.561157,564.157410 1322.179565,554.005859 
	C1321.869507,545.760986 1321.385498,537.427246 1319.860474,529.343872 
	C1316.949219,513.911743 1308.851074,502.013519 1293.212402,497.177063 
	C1278.594482,492.656311 1263.463135,492.030243 1248.437012,494.711823 
	C1241.032104,496.033295 1232.981201,497.460236 1226.850708,501.383453 
	C1215.756958,508.483093 1207.255371,518.577271 1202.670654,531.672852 
	C1209.736938,536.049744 1216.968628,540.529114 1224.517334,545.204834 
	C1225.088379,544.423767 1225.557373,543.924988 1225.864502,543.340942 
	C1234.677734,526.580017 1252.895508,518.711182 1273.574585,523.966675 
	C1276.262451,524.649780 1279.200073,525.375793 1281.345581,526.984253 
	C1289.186279,532.862244 1288.112061,541.545288 1288.227661,549.944153 
	C1286.819702,550.367432 1285.723267,550.709473 1284.619751,551.026978 
	C1269.625122,555.341614 1254.473999,559.184937 1239.681030,564.105652 
	C1226.662476,568.436035 1214.850098,575.305969 1207.195312,587.241699 
	C1196.359375,604.137695 1195.104858,622.284180 1202.213379,640.845398 
	C1205.604126,649.699036 1211.360596,656.610718 1220.288086,661.163879 
	C1231.590576,666.928345 1243.450806,666.650024 1255.249512,665.595215 
	C1261.823364,665.007568 1268.462158,662.466980 1274.519531,659.628235 
	C1279.385376,657.347900 1283.420654,653.295227 1287.997314,649.900696 
	C1287.997314,650.841736 1287.942871,651.645325 1288.005859,652.439636 
	C1288.673462,660.858826 1290.947388,663.004517 1299.166138,663.004578 
	C1306.498901,663.004639 1313.832031,662.971313 1321.164429,663.025635 
	C1323.260498,663.041138 1325.354614,663.310364 1326.550781,663.397644 
	C1325.081665,654.510376 1322.771973,646.036438 1322.458618,637.489258 
	C1321.823975,620.180542 1322.271118,602.832153 1322.271973,584.500061 
M1418.656860,494.049316 
	C1406.333984,496.271973 1397.173950,504.058838 1387.351562,512.641296 
	C1387.351562,506.317596 1387.351562,501.074005 1387.351562,495.786407 
	C1375.930542,495.786407 1365.011963,495.786407 1354.005493,495.786407 
	C1354.005493,551.638245 1354.005493,607.175110 1354.005493,662.805664 
	C1365.262451,662.805664 1376.199097,662.805664 1387.657349,662.805664 
	C1387.657349,660.834290 1387.657349,659.041931 1387.657349,657.249634 
	C1387.657227,619.095581 1387.724243,580.941223 1387.556274,542.787903 
	C1387.538940,538.855103 1388.598633,535.915039 1391.694458,533.866882 
	C1396.640381,530.594666 1401.519043,527.070129 1406.858276,524.578247 
	C1415.006470,520.775269 1423.436768,520.255249 1431.619019,525.078186 
	C1440.619751,530.383728 1443.835815,538.661804 1443.840698,548.592468 
	C1443.858643,584.913818 1443.847900,621.235107 1443.847900,657.556458 
	C1443.847900,659.304138 1443.847778,661.051880 1443.847778,662.598999 
	C1455.588989,662.598999 1466.639282,662.598999 1477.835327,662.598999 
	C1477.835327,622.548889 1477.942139,582.903748 1477.743530,543.260132 
	C1477.704712,535.521423 1477.083618,527.667603 1475.566040,520.100525 
	C1474.709717,515.830933 1472.103760,511.482025 1469.161621,508.166504 
	C1465.208252,503.711395 1460.211182,500.167908 1455.548828,496.372345 
	C1454.867920,495.818024 1453.557007,496.052338 1452.542725,495.889862 
	C1449.904541,495.467224 1447.280396,494.751587 1444.630737,494.644562 
	C1436.267822,494.306732 1427.895874,494.194244 1418.656860,494.049316 
M1171.933228,565.500000 
	C1171.910889,555.503174 1172.211426,545.492371 1171.778320,535.513367 
	C1171.314697,524.831970 1168.855103,514.686523 1161.066162,506.592316 
	C1145.554932,490.473541 1114.403442,488.728149 1097.255371,500.323425 
	C1092.032959,503.854736 1087.123657,507.849274 1081.649780,511.946960 
	C1081.649780,506.307007 1081.649780,501.182495 1081.649780,495.778137 
	C1070.322144,495.778137 1059.272217,495.778137 1048.125854,495.778137 
	C1048.125854,551.623901 1048.125854,607.166260 1048.125854,662.634155 
	C1059.480835,662.634155 1070.531494,662.634155 1081.808594,662.634155 
	C1081.808594,660.454529 1081.808716,658.638123 1081.808716,656.821716 
	C1081.808838,618.666443 1081.874878,580.510864 1081.705444,542.356384 
	C1081.688721,538.586304 1082.759644,535.827698 1085.672974,533.897888 
	C1090.603027,530.632141 1095.387817,526.718384 1100.839600,524.788757 
	C1106.351929,522.837646 1112.796631,521.621704 1118.486084,522.454102 
	C1131.360962,524.337952 1138.035889,536.171997 1137.991943,547.894958 
	C1137.855103,584.383545 1137.941895,620.872986 1137.942017,657.362061 
	C1137.942017,659.135010 1137.942139,660.908020 1137.942139,662.696838 
	C1149.532593,662.696838 1160.592896,662.696838 1171.933350,662.696838 
	C1171.933350,630.427673 1171.933350,598.463806 1171.933228,565.500000 
M205.038193,604.304199 
	C194.555466,568.052063 184.072739,531.799866 173.611008,495.620331 
	C161.521957,495.620331 150.048889,495.620331 137.481583,495.620331 
	C154.354767,551.647278 171.097031,607.239502 187.821854,662.773804 
	C201.414658,662.773804 214.532852,662.773804 227.546234,662.773804 
	C244.646317,607.070923 261.672913,551.607483 278.888580,495.528076 
	C266.965027,495.528076 255.682983,495.490875 244.402618,495.611176 
	C243.642929,495.619293 242.456055,496.681335 242.209824,497.481537 
	C239.138306,507.464050 236.176819,517.480774 233.241989,527.504883 
	C230.123322,538.156799 227.077408,548.829956 223.972992,559.486084 
	C221.743622,567.138611 219.507355,574.789551 217.207397,582.421021 
	C214.310928,592.031738 211.346420,601.621948 207.994812,612.583069 
	C206.806610,609.222290 206.071869,607.144104 205.038193,604.304199 
M950.440186,495.477478 
	C942.462097,495.477478 934.484070,495.477478 926.002014,495.477478 
	C926.002014,486.390381 926.001465,477.595001 926.002197,468.799652 
	C926.003113,458.205841 930.850098,452.661743 941.408508,451.674194 
	C947.726624,451.083252 954.088867,450.964874 960.678162,450.621216 
	C960.678162,442.125671 960.635620,433.978821 960.698853,425.832794 
	C960.724609,422.523041 959.309631,421.295471 955.948364,420.910187 
	C942.913086,419.415924 930.122498,420.789459 917.626282,424.284760 
	C907.197571,427.201813 899.060486,433.029480 894.673523,443.729187 
	C891.875671,450.553101 892.129333,457.398285 892.042603,464.343536 
	C891.914001,474.634308 892.009338,484.927887 892.009338,495.659698 
	C883.717651,495.659698 875.954956,495.659698 868.299072,495.659698 
	C868.299072,505.686279 868.299072,515.260254 868.299072,525.258545 
	C876.392212,525.258545 884.137573,525.258545 892.302246,525.258545 
	C892.302246,571.425903 892.302246,617.159180 892.302246,662.787659 
	C903.694885,662.787659 914.643188,662.787659 926.130127,662.787659 
	C926.130127,616.533386 926.130127,570.490173 926.130127,523.948792 
	C937.896484,523.948792 949.128479,523.948792 960.274536,523.948792 
	C960.274536,514.224121 960.274536,505.008026 960.274536,495.477600 
	C957.053711,495.477600 954.235962,495.477600 950.440186,495.477478 
M531.013855,502.499695 
	C527.161743,506.134979 522.706970,509.318695 519.577393,513.495361 
	C512.017578,523.584167 511.981567,535.237488 514.151917,547.067139 
	C516.682678,560.861328 524.649048,570.800171 536.476379,577.797546 
	C548.259705,584.768921 561.547058,587.735168 574.443176,591.774536 
	C585.279724,595.168823 595.523926,599.705200 597.866455,612.621948 
	C599.610901,622.241150 597.126404,633.950134 585.152832,637.283630 
	C570.850098,641.265564 557.570007,638.759094 546.353638,628.747253 
	C541.832092,624.711182 538.174683,619.707092 533.907349,614.899536 
	C526.258728,619.705078 518.535889,624.557251 510.798035,629.418823 
	C512.367798,632.020325 513.596252,634.297241 515.049011,636.420715 
	C520.380005,644.213013 526.154602,651.686829 534.349304,656.663513 
	C545.121887,663.205811 556.947083,665.896606 569.563965,665.885315 
	C579.948608,665.876038 589.941040,665.232666 599.861450,661.207031 
	C617.153442,654.190063 633.125366,638.715698 631.034851,615.251831 
	C629.649109,599.697937 624.655457,585.949829 610.339966,578.015076 
	C601.572449,573.155457 592.092957,569.333496 582.559998,566.170471 
	C572.868469,562.954895 563.098083,560.251831 554.477661,554.497864 
	C547.263916,549.682861 544.710205,542.762817 546.153992,534.701172 
	C547.367676,527.924255 551.913086,523.036926 558.826416,521.815857 
	C564.283142,520.852112 569.978516,521.278137 575.562561,520.986633 
	C583.224854,520.586670 589.440979,523.915955 595.048035,528.604187 
	C598.502136,531.492249 601.671997,534.720337 605.390991,538.188843 
	C611.863037,533.083618 618.519775,527.832703 626.121216,521.836609 
	C620.032166,515.911133 615.096252,509.622589 608.820557,505.262268 
	C583.935852,487.972351 557.892822,489.508423 531.013855,502.499695 
M1502.408081,585.443481 
	C1501.125732,591.782776 1502.024048,597.987427 1503.594360,604.142578 
	C1504.512817,607.742493 1502.682739,611.325195 1504.912109,615.223999 
	C1508.419312,621.357544 1510.376099,628.356384 1513.305908,634.845886 
	C1518.425659,646.186218 1527.303711,654.670837 1538.109131,659.577698 
	C1553.743530,666.677307 1570.880615,668.025879 1587.722778,664.457581 
	C1602.040771,661.424133 1613.414307,652.975525 1621.886719,640.928223 
	C1626.047241,635.012146 1629.856567,628.891235 1631.096069,621.438721 
	C1622.437134,617.566284 1614.080200,613.828918 1606.346436,610.370239 
	C1602.662842,616.223206 1599.646484,621.783142 1595.891235,626.788818 
	C1591.206177,633.033691 1584.784912,636.668518 1576.760376,637.026367 
	C1559.439453,637.798584 1547.036743,629.387512 1541.200195,612.330811 
	C1535.355835,595.251709 1535.366455,577.655701 1537.622314,559.987976 
	C1538.790649,550.837891 1541.225708,542.059143 1546.641602,534.374451 
	C1557.444214,519.046509 1581.148438,516.715332 1592.605225,530.410339 
	C1596.351440,534.888367 1598.079102,541.054932 1600.805786,546.603577 
	C1609.690918,542.806213 1619.148804,538.764160 1628.617310,534.717529 
	C1628.316284,533.227783 1628.451538,531.536377 1627.691528,530.503601 
	C1620.660278,520.947021 1616.231934,509.384735 1605.344849,502.776276 
	C1600.374878,499.759430 1595.709106,496.760254 1589.855713,495.399658 
	C1579.028809,492.882996 1568.339722,492.330261 1557.306274,493.905304 
	C1531.929565,497.527893 1516.283936,511.755066 1508.399414,535.364746 
	C1503.067871,551.329712 1501.609985,567.753845 1502.408081,585.443481 
M299.732056,480.499908 
	C299.732056,541.416992 299.732056,602.334106 299.732056,663.214600 
	C311.399719,663.214600 322.342804,663.214600 333.489746,663.214600 
	C333.489746,582.973938 333.489746,503.048401 333.489746,422.796600 
	C322.227905,422.796600 311.187958,422.796600 299.732025,422.796600 
	C299.732025,441.903595 299.732025,460.701721 299.732056,480.499908 
M1231.151855,473.009552 
	C1235.192871,473.895844 1233.252197,469.774597 1234.838379,468.605804 
	C1233.863647,467.468292 1232.848511,466.362610 1231.923096,465.186371 
	C1230.236328,463.042480 1227.259155,460.909637 1227.171265,458.679504 
	C1226.699341,446.703156 1226.780884,434.694855 1227.020386,422.704559 
	C1227.159180,415.754242 1233.312378,409.039856 1239.029175,408.850708 
	C1246.900391,408.590363 1249.629761,410.776825 1250.265503,421.017670 
	C1251.100220,434.462524 1250.866333,447.978058 1250.852905,461.462952 
	C1250.851807,462.559662 1249.215820,464.162781 1247.988159,464.655762 
	C1244.169800,466.189087 1242.262451,468.385895 1243.946899,472.766998 
	C1256.193359,472.766998 1268.443970,472.766998 1280.603027,472.766998 
	C1282.014282,468.296844 1280.319946,465.869507 1276.137329,465.002441 
	C1273.086304,464.369995 1272.552246,462.405975 1272.588379,459.570007 
	C1272.730835,448.409729 1272.348633,437.234497 1272.800903,426.090759 
	C1272.969849,421.930389 1274.406250,417.623047 1276.138916,413.776489 
	C1278.151733,409.308105 1283.140015,407.675568 1289.094482,408.943207 
	C1293.162598,409.809235 1294.466919,412.790710 1295.448242,416.792114 
	C1296.801392,422.309479 1295.639526,427.792694 1296.635620,433.390320 
	C1298.158691,441.949036 1297.194458,450.983948 1296.898071,459.803741 
	C1296.840698,461.510834 1295.385864,464.006683 1293.914185,464.668823 
	C1289.997681,466.431061 1288.684814,468.771606 1290.196777,472.784607 
	C1302.915649,472.784607 1315.519897,472.784607 1328.217407,472.784607 
	C1330.508179,464.134766 1322.152954,466.090942 1318.009399,462.264984 
	C1318.009399,448.279449 1318.347168,433.479004 1317.882446,418.703796 
	C1317.603882,409.848969 1315.074463,401.177155 1305.484131,398.112762 
	C1296.179199,395.139587 1286.629639,394.668732 1279.026611,402.797760 
	C1276.376221,405.631592 1273.998169,408.720215 1271.042236,412.230988 
	C1268.290527,401.291870 1260.861206,396.384064 1250.091187,396.302765 
	C1239.559448,396.223236 1232.084229,401.338776 1226.671875,410.376251 
	C1226.671875,405.777100 1226.671875,401.177979 1226.671875,395.461365 
	C1217.700439,397.035553 1209.323364,398.788971 1200.861084,399.883209 
	C1195.838379,400.532654 1194.295532,402.677216 1195.793091,407.665771 
	C1198.655029,408.171204 1201.639526,408.698303 1204.974121,409.287201 
	C1205.045044,410.552002 1205.196045,412.006714 1205.197632,413.461639 
	C1205.215088,428.455475 1205.060303,443.451721 1205.308594,458.441467 
	C1205.373535,462.368591 1204.024902,464.466003 1200.366943,465.007324 
	C1195.628296,465.708557 1194.351440,468.255920 1195.891235,473.009979 
	C1207.301880,473.009979 1218.760742,473.009979 1231.151855,473.009552 
M1012.122009,518.500000 
	C1012.122009,510.928619 1012.122009,503.357269 1012.122009,495.738647 
	C1000.432068,495.738647 989.485413,495.738647 978.423950,495.738647 
	C978.423950,551.556702 978.423950,607.110901 978.423950,662.693359 
	C989.779236,662.693359 1000.844604,662.693359 1012.122009,662.693359 
	C1012.122009,614.756042 1012.122009,567.127991 1012.122009,518.500000 
M849.474854,538.500183 
	C849.474854,524.279114 849.474854,510.058105 849.474854,495.823730 
	C837.755005,495.823730 826.858826,495.823730 815.841003,495.823730 
	C815.841003,551.662231 815.841003,607.158264 815.841003,662.668274 
	C827.183838,662.668274 838.236816,662.668274 849.475037,662.668274 
	C849.475037,621.391296 849.475037,580.445801 849.474854,538.500183 
M1120.633179,403.959015 
	C1117.441284,408.230103 1113.518311,412.142914 1111.212280,416.848206 
	C1106.651001,426.155365 1105.499146,436.321777 1108.214966,446.345978 
	C1110.326416,454.138672 1113.306152,461.644196 1120.324341,466.969757 
	C1129.611816,474.017365 1140.037964,475.360779 1151.116577,474.787140 
	C1161.175781,474.266235 1170.046509,470.948547 1177.025391,463.518524 
	C1188.278076,451.538483 1188.810791,437.154175 1185.453369,422.251190 
	C1182.394287,408.672699 1173.412354,400.902863 1159.945923,397.933319 
	C1146.299316,394.924011 1133.326294,396.195374 1120.633179,403.959015 
M1078.947510,396.732330 
	C1074.496704,396.838104 1069.984497,396.512207 1065.607178,397.134552 
	C1054.635864,398.694366 1045.413452,402.992859 1039.863037,413.549561 
	C1033.710327,425.251862 1033.783081,437.532349 1036.559692,449.680634 
	C1038.658569,458.864349 1043.507324,466.809052 1052.983398,471.086517 
	C1060.721191,474.579407 1068.657593,475.423889 1076.872803,474.693634 
	C1084.882690,473.981659 1091.728760,470.597687 1096.788574,464.294067 
	C1097.718262,463.135925 1097.158203,460.781891 1097.285767,458.979828 
	C1095.739502,459.233521 1093.955200,459.073853 1092.684326,459.805603 
	C1081.454834,466.271698 1067.370361,462.837738 1062.049927,451.703339 
	C1060.042358,447.501801 1058.806030,442.670746 1058.394287,438.022461 
	C1057.561035,428.615051 1058.104736,419.266479 1062.637329,410.553528 
	C1065.228638,405.572021 1069.978516,405.231049 1074.410156,405.139374 
	C1078.629028,405.052124 1080.529175,407.876709 1081.332397,412.332825 
	C1082.115356,416.676331 1084.616211,420.710144 1086.289429,424.704407 
	C1091.508789,426.090424 1094.256958,424.310944 1095.077637,419.100494 
	C1095.840820,414.255432 1097.279663,409.511475 1097.928467,404.657135 
	C1098.103394,403.348450 1096.762939,400.848694 1095.645874,400.524841 
	C1090.460449,399.021667 1085.108887,398.091156 1078.947510,396.732330 
M813.075073,469.479431 
	C813.075073,473.240814 813.075073,477.002197 813.075073,480.732727 
	C826.274048,480.732727 838.842896,480.732727 851.468872,480.732727 
	C851.468872,467.933868 851.468872,455.410522 851.468872,442.792084 
	C838.570740,442.792084 826.017456,442.792084 813.075073,442.792084 
	C813.075073,451.567749 813.075073,460.027222 813.075073,469.479431 
M1011.180908,442.483276 
	C999.572998,442.483276 987.965027,442.483276 976.155640,442.483276 
	C976.155640,455.524139 976.155640,468.080719 976.155640,480.717133 
	C988.975525,480.717133 1001.542358,480.717133 1014.348450,480.717133 
	C1014.348450,468.795929 1014.403748,457.155243 1014.251587,445.517303 
	C1014.238281,444.500519 1012.861389,443.501587 1011.180908,442.483276 
M451.420502,686.487366 
	C451.420502,686.487366 451.524536,686.426697 451.420502,686.487366 
z"/>
<path fill="#7CD3D8" opacity="1.000000" stroke="none" 
	d="
M607.010559,690.059692 
	C623.935425,690.762329 640.859619,691.483398 657.785400,692.163208 
	C682.534363,693.157227 707.284729,694.115234 732.034058,695.100952 
	C748.302246,695.748901 764.571289,696.379761 780.836853,697.089966 
	C794.925415,697.705139 809.032532,698.115906 823.089783,699.171326 
	C840.079224,700.446960 857.000854,703.057068 873.999329,703.598938 
	C882.605713,703.873291 890.237671,707.190552 898.486206,708.116943 
	C899.248230,708.202515 900.234253,708.446228 900.668213,708.980469 
	C908.464539,718.576599 916.300293,728.145264 923.839294,737.941772 
	C925.293152,739.830994 925.526794,742.659241 926.751160,746.340698 
	C922.514465,745.717834 919.659119,745.296204 916.803223,744.878479 
	C912.259338,744.213928 907.734619,743.313354 903.166870,742.938354 
	C893.462524,742.141724 883.724182,741.756958 874.021423,740.944946 
	C864.508362,740.148804 855.022278,739.031189 845.523926,738.058533 
	C844.861633,737.990723 844.196777,737.927002 843.531799,737.908569 
	C832.094543,737.592346 820.651917,737.409302 809.220947,736.940369 
	C795.831116,736.391174 782.455750,735.488403 769.065918,734.938293 
	C757.970337,734.482422 746.862061,734.343262 735.760925,734.013000 
	C725.408264,733.705078 715.047791,733.507385 704.708252,732.942078 
	C690.376709,732.158630 676.072205,730.830750 661.735596,730.203125 
	C650.848999,729.726501 639.930481,729.978577 628.438232,729.565186 
	C626.195801,728.966431 624.541443,728.708984 622.887024,728.451538 
	C616.581482,728.305115 610.276733,728.104370 603.970337,728.021851 
	C579.403870,727.700439 554.837463,727.336243 530.269836,727.166992 
	C522.816833,727.115601 515.359863,727.641296 507.245453,727.722717 
	C505.399872,727.735535 504.213531,727.928223 503.027191,728.120972 
	C497.748932,728.366272 492.471008,728.789551 487.192352,728.798279 
	C483.245056,728.804749 479.292908,727.986084 475.349854,728.040405 
	C463.158875,728.208252 450.970551,728.894165 438.782379,728.866028 
	C422.441193,728.828308 406.099945,728.363220 389.761047,727.980591 
	C379.245117,727.734436 368.733246,727.030823 358.219788,727.034973 
	C346.874084,727.039429 335.527802,727.919250 324.183228,727.888611 
	C311.171143,727.853455 298.160461,726.942444 285.149475,726.950012 
	C269.443207,726.959167 253.737183,727.530212 238.031372,727.872009 
	C237.206543,727.890015 236.346573,727.911560 235.567108,728.145325 
	C228.088379,730.388306 221.246506,729.242432 216.044571,723.299194 
	C209.186539,715.463928 202.773254,707.236938 196.264404,699.101807 
	C195.480820,698.122437 195.409378,696.606323 194.807266,695.442810 
	C192.605331,691.187256 194.934311,689.728882 198.635910,689.168152 
	C201.251282,688.772095 203.883728,688.332947 206.518860,688.252991 
	C213.737976,688.034119 220.963837,688.045532 228.184219,687.857666 
	C230.821854,687.789001 233.453659,687.193176 236.084564,687.217957 
	C253.727905,687.383728 271.370300,687.651978 289.751648,687.913330 
	C290.675385,687.920105 290.860504,687.900574 291.045624,687.881104 
	C291.045624,687.881104 291.495697,687.913757 292.109589,687.938843 
	C293.504700,687.908997 294.285950,687.854065 295.067169,687.799133 
	C305.045410,687.597595 315.025024,687.181213 325.001617,687.244019 
	C340.687866,687.342834 356.372070,687.764282 372.680908,688.238953 
	C373.876373,688.324036 374.448090,688.219360 375.019775,688.114624 
	C401.022644,688.391541 427.025543,688.668518 453.842224,688.968140 
	C455.121643,688.942749 455.587219,688.894653 456.052795,688.846558 
	C461.706696,688.860413 467.360565,688.874329 473.904327,688.926758 
	C476.224274,688.884888 477.654388,688.804565 479.084473,688.724243 
	C497.751678,688.524963 516.422852,687.989990 535.085083,688.211975 
	C558.081970,688.485413 581.071411,689.389160 604.685913,690.205933 
	C605.875427,690.280823 606.442993,690.170227 607.010559,690.059692 
z"/>
<path fill="#160797" opacity="1.000000" stroke="none" 
	d="
M1666.151978,563.981201 
	C1662.424927,553.340637 1658.731079,543.109253 1655.051025,532.872986 
	C1650.704956,520.783875 1646.370972,508.690430 1641.826416,496.027527 
	C1643.533203,495.799652 1644.738403,495.502930 1645.944580,495.499298 
	C1655.277588,495.471161 1664.634766,495.902252 1673.934082,495.346985 
	C1678.852417,495.053314 1680.505737,497.183472 1681.859985,501.165344 
	C1687.814331,518.674438 1693.912598,536.134766 1700.007324,553.595764 
	C1704.698364,567.035034 1709.461914,580.449097 1714.622437,595.092285 
	C1715.789307,592.134094 1716.662231,590.276062 1717.266357,588.334473 
	C1723.228149,569.171936 1729.128784,549.990479 1735.081421,530.825073 
	C1738.373047,520.227295 1741.658569,509.626068 1745.145020,499.092010 
	C1745.603882,497.705383 1747.220581,495.709198 1748.336670,495.685638 
	C1760.120850,495.437042 1771.912231,495.531677 1784.196167,495.531677 
	C1777.999023,514.487671 1771.967285,532.799377 1766.025757,551.140381 
	C1754.520996,586.654297 1743.146240,622.210510 1731.547729,657.693665 
	C1727.624634,669.695374 1723.625732,681.707397 1718.869385,693.392212 
	C1713.713013,706.059570 1705.393677,716.650635 1693.477905,723.628174 
	C1686.364624,727.793640 1678.086548,728.902405 1669.827515,728.985352 
	C1661.432251,729.069580 1653.035522,729.003906 1644.693726,729.003906 
	C1644.693726,717.314270 1644.693726,706.816528 1644.693726,697.209778 
	C1653.208984,697.425842 1661.172241,698.642334 1668.830078,697.604736 
	C1683.393433,695.631409 1693.345581,682.447266 1696.125000,667.001099 
	C1696.809082,663.198914 1697.452637,659.384827 1697.936035,655.553711 
	C1698.094604,654.297241 1697.926392,652.886047 1697.505127,651.687073 
	C1691.135620,633.559509 1684.740601,615.440674 1678.262573,597.351624 
	C1674.317627,586.335632 1670.220337,575.374084 1666.151978,563.981201 
z"/>
<path fill="#160797" opacity="1.000000" stroke="none" 
	d="
M436.685150,553.840820 
	C440.953308,552.828247 444.840942,552.003662 448.699860,551.061523 
	C449.762512,550.802063 451.190765,550.477783 451.685272,549.697693 
	C456.184479,542.600037 449.831879,526.180542 441.343048,524.190735 
	C421.417755,519.520142 401.709106,522.437500 389.093964,545.147583 
	C381.716217,540.645386 374.357452,536.154785 367.035187,531.686462 
	C373.001617,516.471680 382.616486,504.831940 397.780273,498.839172 
	C409.094391,494.367767 420.926971,492.093323 433.259216,493.800659 
	C439.611603,494.680145 446.097107,494.761841 452.378479,495.959412 
	C471.827850,499.667542 481.507965,512.872864 484.826965,531.296936 
	C486.257904,539.240051 486.713409,547.439453 486.792450,555.530457 
	C487.034912,580.357544 486.621002,605.192505 487.001282,630.016174 
	C487.166595,640.805603 488.647491,651.574951 489.584167,663.004089 
	C483.495422,663.004089 476.120819,663.004028 468.746246,663.004028 
	C466.746552,663.004028 464.740997,662.904663 462.748199,663.021912 
	C455.544708,663.445984 454.979065,663.420593 453.154938,654.194092 
	C452.964111,653.228699 452.929901,652.232361 452.726746,650.365601 
	C451.032074,651.396545 449.620667,651.985657 448.546997,652.950623 
	C439.255615,661.300720 428.499359,665.990845 415.917175,665.977783 
	C406.811432,665.968323 397.742432,666.474426 388.850769,663.094360 
	C374.282501,657.556396 365.366455,642.813660 362.997040,628.503052 
	C361.054535,616.770630 362.960114,605.950378 367.155914,595.283203 
	C373.233429,579.831970 386.138672,571.392578 400.480530,565.455322 
	C412.023071,560.676941 424.327423,557.738953 436.685150,553.840820 
M452.712097,617.467529 
	C452.712097,604.586121 452.712097,591.704712 452.712097,578.201233 
	C446.356171,579.913452 440.518799,581.201660 434.877472,583.079102 
	C428.117249,585.328613 421.299591,587.616638 414.905243,590.711304 
	C401.088104,597.398193 395.359497,608.366150 396.953033,623.627563 
	C397.834595,632.070312 403.749817,638.164917 412.197662,637.577759 
	C418.838348,637.116150 425.973999,636.002136 431.762573,633.002686 
	C439.157806,629.170654 445.419830,623.151550 452.712097,617.467529 
z"/>
<path fill="#160797" opacity="1.000000" stroke="none" 
	d="
M1322.271973,585.000122 
	C1322.271118,602.832153 1321.823975,620.180542 1322.458618,637.489258 
	C1322.771973,646.036438 1325.081665,654.510376 1326.550781,663.397644 
	C1325.354614,663.310364 1323.260498,663.041138 1321.164429,663.025635 
	C1313.832031,662.971313 1306.498901,663.004639 1299.166138,663.004578 
	C1290.947388,663.004517 1288.673462,660.858826 1288.005859,652.439636 
	C1287.942871,651.645325 1287.997314,650.841736 1287.997314,649.900696 
	C1283.420654,653.295227 1279.385376,657.347900 1274.519531,659.628235 
	C1268.462158,662.466980 1261.823364,665.007568 1255.249512,665.595215 
	C1243.450806,666.650024 1231.590576,666.928345 1220.288086,661.163879 
	C1211.360596,656.610718 1205.604126,649.699036 1202.213379,640.845398 
	C1195.104858,622.284180 1196.359375,604.137695 1207.195312,587.241699 
	C1214.850098,575.305969 1226.662476,568.436035 1239.681030,564.105652 
	C1254.473999,559.184937 1269.625122,555.341614 1284.619751,551.026978 
	C1285.723267,550.709473 1286.819702,550.367432 1288.227661,549.944153 
	C1288.112061,541.545288 1289.186279,532.862244 1281.345581,526.984253 
	C1279.200073,525.375793 1276.262451,524.649780 1273.574585,523.966675 
	C1252.895508,518.711182 1234.677734,526.580017 1225.864502,543.340942 
	C1225.557373,543.924988 1225.088379,544.423767 1224.517334,545.204834 
	C1216.968628,540.529114 1209.736938,536.049744 1202.670654,531.672852 
	C1207.255371,518.577271 1215.756958,508.483093 1226.850708,501.383453 
	C1232.981201,497.460236 1241.032104,496.033295 1248.437012,494.711823 
	C1263.463135,492.030243 1278.594482,492.656311 1293.212402,497.177063 
	C1308.851074,502.013519 1316.949219,513.911743 1319.860474,529.343872 
	C1321.385498,537.427246 1321.869507,545.760986 1322.179565,554.005859 
	C1322.561157,564.157410 1322.271484,574.334167 1322.271973,585.000122 
M1288.294800,614.118958 
	C1288.294800,602.364197 1288.294800,590.609436 1288.294800,578.353760 
	C1273.663452,581.879395 1259.780518,585.201538 1247.214600,592.374573 
	C1236.063965,598.739502 1230.264160,611.549988 1232.584351,624.272583 
	C1234.297119,633.664612 1240.848633,638.085754 1250.413818,637.740295 
	C1265.633667,637.190491 1276.371216,628.545105 1286.716553,618.950500 
	C1287.652588,618.082458 1287.787354,616.350464 1288.294800,614.118958 
z"/>
<path fill="#160797" opacity="1.000000" stroke="none" 
	d="
M1419.092041,494.021973 
	C1427.895874,494.194244 1436.267822,494.306732 1444.630737,494.644562 
	C1447.280396,494.751587 1449.904541,495.467224 1452.542725,495.889862 
	C1453.557007,496.052338 1454.867920,495.818024 1455.548828,496.372345 
	C1460.211182,500.167908 1465.208252,503.711395 1469.161621,508.166504 
	C1472.103760,511.482025 1474.709717,515.830933 1475.566040,520.100525 
	C1477.083618,527.667603 1477.704712,535.521423 1477.743530,543.260132 
	C1477.942139,582.903748 1477.835327,622.548889 1477.835327,662.598999 
	C1466.639282,662.598999 1455.588989,662.598999 1443.847778,662.598999 
	C1443.847778,661.051880 1443.847900,659.304138 1443.847900,657.556458 
	C1443.847900,621.235107 1443.858643,584.913818 1443.840698,548.592468 
	C1443.835815,538.661804 1440.619751,530.383728 1431.619019,525.078186 
	C1423.436768,520.255249 1415.006470,520.775269 1406.858276,524.578247 
	C1401.519043,527.070129 1396.640381,530.594666 1391.694458,533.866882 
	C1388.598633,535.915039 1387.538940,538.855103 1387.556274,542.787903 
	C1387.724243,580.941223 1387.657227,619.095581 1387.657349,657.249634 
	C1387.657349,659.041931 1387.657349,660.834290 1387.657349,662.805664 
	C1376.199097,662.805664 1365.262451,662.805664 1354.005493,662.805664 
	C1354.005493,607.175110 1354.005493,551.638245 1354.005493,495.786407 
	C1365.011963,495.786407 1375.930542,495.786407 1387.351562,495.786407 
	C1387.351562,501.074005 1387.351562,506.317596 1387.351562,512.641296 
	C1397.173950,504.058838 1406.333984,496.271973 1419.092041,494.021973 
z"/>
<path fill="#170897" opacity="1.000000" stroke="none" 
	d="
M694.118774,512.142395 
	C700.008118,507.657745 705.580139,502.658813 711.849548,498.790070 
	C727.332214,489.236176 755.816772,490.776367 771.130981,504.998322 
	C778.983765,512.290894 782.775391,521.821655 783.061646,532.358521 
	C783.522949,549.341919 783.392090,566.342773 783.420532,583.336304 
	C783.464539,609.658691 783.432068,635.981201 783.432068,662.654358 
	C772.192566,662.654358 761.119873,662.654358 749.455627,662.654358 
	C749.455627,660.972351 749.455688,659.187622 749.455688,657.402954 
	C749.455627,621.245605 749.498108,585.088257 749.426819,548.931030 
	C749.407959,539.346130 747.518250,530.182739 738.280457,525.173767 
	C729.755127,520.551147 720.680237,521.192566 711.823608,524.882935 
	C710.138000,525.585266 708.491150,526.396057 706.876953,527.252075 
	C697.464905,532.243225 692.497192,538.633423 692.853882,550.742615 
	C693.898438,586.202698 693.225647,621.713318 693.225647,657.204163 
	C693.225647,658.990784 693.225647,660.777466 693.225647,662.781616 
	C681.858826,662.781616 670.911072,662.781616 659.599854,662.781616 
	C659.599854,607.260925 659.599854,551.720398 659.599854,495.824738 
	C670.721924,495.824738 681.780212,495.824738 693.235718,495.824738 
	C693.235718,500.972717 693.235718,505.951904 693.179810,511.632751 
	C693.455505,512.270447 693.787170,512.206421 694.118774,512.142395 
z"/>
<path fill="#150797" opacity="1.000000" stroke="none" 
	d="
M1171.933350,566.000000 
	C1171.933350,598.463806 1171.933350,630.427673 1171.933350,662.696838 
	C1160.592896,662.696838 1149.532593,662.696838 1137.942139,662.696838 
	C1137.942139,660.908020 1137.942017,659.135010 1137.942017,657.362061 
	C1137.941895,620.872986 1137.855103,584.383545 1137.991943,547.894958 
	C1138.035889,536.171997 1131.360962,524.337952 1118.486084,522.454102 
	C1112.796631,521.621704 1106.351929,522.837646 1100.839600,524.788757 
	C1095.387817,526.718384 1090.603027,530.632141 1085.672974,533.897888 
	C1082.759644,535.827698 1081.688721,538.586304 1081.705444,542.356384 
	C1081.874878,580.510864 1081.808838,618.666443 1081.808716,656.821716 
	C1081.808716,658.638123 1081.808594,660.454529 1081.808594,662.634155 
	C1070.531494,662.634155 1059.480835,662.634155 1048.125854,662.634155 
	C1048.125854,607.166260 1048.125854,551.623901 1048.125854,495.778137 
	C1059.272217,495.778137 1070.322144,495.778137 1081.649780,495.778137 
	C1081.649780,501.182495 1081.649780,506.307007 1081.649780,511.946960 
	C1087.123657,507.849274 1092.032959,503.854736 1097.255371,500.323425 
	C1114.403442,488.728149 1145.554932,490.473541 1161.066162,506.592316 
	C1168.855103,514.686523 1171.314697,524.831970 1171.778320,535.513367 
	C1172.211426,545.492371 1171.910889,555.503174 1171.933350,566.000000 
z"/>
<path fill="#160797" opacity="1.000000" stroke="none" 
	d="
M205.187668,604.685059 
	C206.071869,607.144104 206.806610,609.222290 207.994812,612.583069 
	C211.346420,601.621948 214.310928,592.031738 217.207397,582.421021 
	C219.507355,574.789551 221.743622,567.138611 223.972992,559.486084 
	C227.077408,548.829956 230.123322,538.156799 233.241989,527.504883 
	C236.176819,517.480774 239.138306,507.464050 242.209824,497.481537 
	C242.456055,496.681335 243.642929,495.619293 244.402618,495.611176 
	C255.682983,495.490875 266.965027,495.528076 278.888580,495.528076 
	C261.672913,551.607483 244.646317,607.070923 227.546234,662.773804 
	C214.532852,662.773804 201.414658,662.773804 187.821854,662.773804 
	C171.097031,607.239502 154.354767,551.647278 137.481583,495.620331 
	C150.048889,495.620331 161.521957,495.620331 173.611008,495.620331 
	C184.072739,531.799866 194.555466,568.052063 205.187668,604.685059 
z"/>
<path fill="#150696" opacity="1.000000" stroke="none" 
	d="
M950.929199,495.477539 
	C954.235962,495.477600 957.053711,495.477600 960.274536,495.477600 
	C960.274536,505.008026 960.274536,514.224121 960.274536,523.948792 
	C949.128479,523.948792 937.896484,523.948792 926.130127,523.948792 
	C926.130127,570.490173 926.130127,616.533386 926.130127,662.787659 
	C914.643188,662.787659 903.694885,662.787659 892.302246,662.787659 
	C892.302246,617.159180 892.302246,571.425903 892.302246,525.258545 
	C884.137573,525.258545 876.392212,525.258545 868.299072,525.258545 
	C868.299072,515.260254 868.299072,505.686279 868.299072,495.659698 
	C875.954956,495.659698 883.717651,495.659698 892.009338,495.659698 
	C892.009338,484.927887 891.914001,474.634308 892.042603,464.343536 
	C892.129333,457.398285 891.875671,450.553101 894.673523,443.729187 
	C899.060486,433.029480 907.197571,427.201813 917.626282,424.284760 
	C930.122498,420.789459 942.913086,419.415924 955.948364,420.910187 
	C959.309631,421.295471 960.724609,422.523041 960.698853,425.832794 
	C960.635620,433.978821 960.678162,442.125671 960.678162,450.621216 
	C954.088867,450.964874 947.726624,451.083252 941.408508,451.674194 
	C930.850098,452.661743 926.003113,458.205841 926.002197,468.799652 
	C926.001465,477.595001 926.002014,486.390381 926.002014,495.477478 
	C934.484070,495.477478 942.462097,495.477478 950.929199,495.477539 
z"/>
<path fill="#160897" opacity="1.000000" stroke="none" 
	d="
M531.283325,502.233246 
	C557.892822,489.508423 583.935852,487.972351 608.820557,505.262268 
	C615.096252,509.622589 620.032166,515.911133 626.121216,521.836609 
	C618.519775,527.832703 611.863037,533.083618 605.390991,538.188843 
	C601.671997,534.720337 598.502136,531.492249 595.048035,528.604187 
	C589.440979,523.915955 583.224854,520.586670 575.562561,520.986633 
	C569.978516,521.278137 564.283142,520.852112 558.826416,521.815857 
	C551.913086,523.036926 547.367676,527.924255 546.153992,534.701172 
	C544.710205,542.762817 547.263916,549.682861 554.477661,554.497864 
	C563.098083,560.251831 572.868469,562.954895 582.559998,566.170471 
	C592.092957,569.333496 601.572449,573.155457 610.339966,578.015076 
	C624.655457,585.949829 629.649109,599.697937 631.034851,615.251831 
	C633.125366,638.715698 617.153442,654.190063 599.861450,661.207031 
	C589.941040,665.232666 579.948608,665.876038 569.563965,665.885315 
	C556.947083,665.896606 545.121887,663.205811 534.349304,656.663513 
	C526.154602,651.686829 520.380005,644.213013 515.049011,636.420715 
	C513.596252,634.297241 512.367798,632.020325 510.798035,629.418823 
	C518.535889,624.557251 526.258728,619.705078 533.907349,614.899536 
	C538.174683,619.707092 541.832092,624.711182 546.353638,628.747253 
	C557.570007,638.759094 570.850098,641.265564 585.152832,637.283630 
	C597.126404,633.950134 599.610901,622.241150 597.866455,612.621948 
	C595.523926,599.705200 585.279724,595.168823 574.443176,591.774536 
	C561.547058,587.735168 548.259705,584.768921 536.476379,577.797546 
	C524.649048,570.800171 516.682678,560.861328 514.151917,547.067139 
	C511.981567,535.237488 512.017578,523.584167 519.577393,513.495361 
	C522.706970,509.318695 527.161743,506.134979 531.283325,502.233246 
z"/>
<path fill="#160897" opacity="1.000000" stroke="none" 
	d="
M1502.396240,584.951294 
	C1501.609985,567.753845 1503.067871,551.329712 1508.399414,535.364746 
	C1516.283936,511.755066 1531.929565,497.527893 1557.306274,493.905304 
	C1568.339722,492.330261 1579.028809,492.882996 1589.855713,495.399658 
	C1595.709106,496.760254 1600.374878,499.759430 1605.344849,502.776276 
	C1616.231934,509.384735 1620.660278,520.947021 1627.691528,530.503601 
	C1628.451538,531.536377 1628.316284,533.227783 1628.617310,534.717529 
	C1619.148804,538.764160 1609.690918,542.806213 1600.805786,546.603577 
	C1598.079102,541.054932 1596.351440,534.888367 1592.605225,530.410339 
	C1581.148438,516.715332 1557.444214,519.046509 1546.641602,534.374451 
	C1541.225708,542.059143 1538.790649,550.837891 1537.622314,559.987976 
	C1535.366455,577.655701 1535.355835,595.251709 1541.200195,612.330811 
	C1547.036743,629.387512 1559.439453,637.798584 1576.760376,637.026367 
	C1584.784912,636.668518 1591.206177,633.033691 1595.891235,626.788818 
	C1599.646484,621.783142 1602.662842,616.223206 1606.346436,610.370239 
	C1614.080200,613.828918 1622.437134,617.566284 1631.096069,621.438721 
	C1629.856567,628.891235 1626.047241,635.012146 1621.886719,640.928223 
	C1613.414307,652.975525 1602.040771,661.424133 1587.722778,664.457581 
	C1570.880615,668.025879 1553.743530,666.677307 1538.109131,659.577698 
	C1527.303711,654.670837 1518.425659,646.186218 1513.305908,634.845886 
	C1510.376099,628.356384 1508.419312,621.357544 1504.912109,615.223999 
	C1502.682739,611.325195 1504.512817,607.742493 1503.594360,604.142578 
	C1502.024048,597.987427 1501.125732,591.782776 1502.396240,584.951294 
z"/>
<path fill="#170897" opacity="1.000000" stroke="none" 
	d="
M299.732056,479.999878 
	C299.732025,460.701721 299.732025,441.903595 299.732025,422.796600 
	C311.187958,422.796600 322.227905,422.796600 333.489746,422.796600 
	C333.489746,503.048401 333.489746,582.973938 333.489746,663.214600 
	C322.342804,663.214600 311.399719,663.214600 299.732056,663.214600 
	C299.732056,602.334106 299.732056,541.416992 299.732056,479.999878 
z"/>
<path fill="#054BF5" opacity="1.000000" stroke="none" 
	d="
M1230.685669,473.009766 
	C1218.760742,473.009979 1207.301880,473.009979 1195.891235,473.009979 
	C1194.351440,468.255920 1195.628296,465.708557 1200.366943,465.007324 
	C1204.024902,464.466003 1205.373535,462.368591 1205.308594,458.441467 
	C1205.060303,443.451721 1205.215088,428.455475 1205.197632,413.461639 
	C1205.196045,412.006714 1205.045044,410.552002 1204.974121,409.287201 
	C1201.639526,408.698303 1198.655029,408.171204 1195.793091,407.665771 
	C1194.295532,402.677216 1195.838379,400.532654 1200.861084,399.883209 
	C1209.323364,398.788971 1217.700439,397.035553 1226.671875,395.461365 
	C1226.671875,401.177979 1226.671875,405.777100 1226.671875,410.376251 
	C1232.084229,401.338776 1239.559448,396.223236 1250.091187,396.302765 
	C1260.861206,396.384064 1268.290527,401.291870 1271.042236,412.230988 
	C1273.998169,408.720215 1276.376221,405.631592 1279.026611,402.797760 
	C1286.629639,394.668732 1296.179199,395.139587 1305.484131,398.112762 
	C1315.074463,401.177155 1317.603882,409.848969 1317.882446,418.703796 
	C1318.347168,433.479004 1318.009399,448.279449 1318.009399,462.264984 
	C1322.152954,466.090942 1330.508179,464.134766 1328.217407,472.784607 
	C1315.519897,472.784607 1302.915649,472.784607 1290.196777,472.784607 
	C1288.684814,468.771606 1289.997681,466.431061 1293.914185,464.668823 
	C1295.385864,464.006683 1296.840698,461.510834 1296.898071,459.803741 
	C1297.194458,450.983948 1298.158691,441.949036 1296.635620,433.390320 
	C1295.639526,427.792694 1296.801392,422.309479 1295.448242,416.792114 
	C1294.466919,412.790710 1293.162598,409.809235 1289.094482,408.943207 
	C1283.140015,407.675568 1278.151733,409.308105 1276.138916,413.776489 
	C1274.406250,417.623047 1272.969849,421.930389 1272.800903,426.090759 
	C1272.348633,437.234497 1272.730835,448.409729 1272.588379,459.570007 
	C1272.552246,462.405975 1273.086304,464.369995 1276.137329,465.002441 
	C1280.319946,465.869507 1282.014282,468.296844 1280.603027,472.766998 
	C1268.443970,472.766998 1256.193359,472.766998 1243.946899,472.766998 
	C1242.262451,468.385895 1244.169800,466.189087 1247.988159,464.655762 
	C1249.215820,464.162781 1250.851807,462.559662 1250.852905,461.462952 
	C1250.866333,447.978058 1251.100220,434.462524 1250.265503,421.017670 
	C1249.629761,410.776825 1246.900391,408.590363 1239.029175,408.850708 
	C1233.312378,409.039856 1227.159180,415.754242 1227.020386,422.704559 
	C1226.780884,434.694855 1226.699341,446.703156 1227.171265,458.679504 
	C1227.259155,460.909637 1230.236328,463.042480 1231.923096,465.186371 
	C1232.848511,466.362610 1233.863647,467.468292 1234.838379,468.605804 
	C1233.252197,469.774597 1235.192871,473.895844 1230.685669,473.009766 
z"/>
<path fill="#150797" opacity="1.000000" stroke="none" 
	d="
M1012.122009,519.000000 
	C1012.122009,567.127991 1012.122009,614.756042 1012.122009,662.693359 
	C1000.844604,662.693359 989.779236,662.693359 978.423950,662.693359 
	C978.423950,607.110901 978.423950,551.556702 978.423950,495.738647 
	C989.485413,495.738647 1000.432068,495.738647 1012.122009,495.738647 
	C1012.122009,503.357269 1012.122009,510.928619 1012.122009,519.000000 
z"/>
<path fill="#140596" opacity="1.000000" stroke="none" 
	d="
M849.474976,539.000244 
	C849.475037,580.445801 849.475037,621.391296 849.475037,662.668274 
	C838.236816,662.668274 827.183838,662.668274 815.841003,662.668274 
	C815.841003,607.158264 815.841003,551.662231 815.841003,495.823730 
	C826.858826,495.823730 837.755005,495.823730 849.474854,495.823730 
	C849.474854,510.058105 849.474854,524.279114 849.474976,539.000244 
z"/>
<path fill="#044AF5" opacity="1.000000" stroke="none" 
	d="
M1120.902710,403.705139 
	C1133.326294,396.195374 1146.299316,394.924011 1159.945923,397.933319 
	C1173.412354,400.902863 1182.394287,408.672699 1185.453369,422.251190 
	C1188.810791,437.154175 1188.278076,451.538483 1177.025391,463.518524 
	C1170.046509,470.948547 1161.175781,474.266235 1151.116577,474.787140 
	C1140.037964,475.360779 1129.611816,474.017365 1120.324341,466.969757 
	C1113.306152,461.644196 1110.326416,454.138672 1108.214966,446.345978 
	C1105.499146,436.321777 1106.651001,426.155365 1111.212280,416.848206 
	C1113.518311,412.142914 1117.441284,408.230103 1120.902710,403.705139 
M1160.304443,458.574493 
	C1165.585327,444.662262 1165.395020,430.497009 1161.430908,416.440277 
	C1159.245483,408.690857 1153.340454,405.241211 1145.458130,405.621796 
	C1138.905273,405.938171 1134.196655,409.268219 1133.089966,417.104126 
	C1131.707520,426.890533 1131.675049,436.916168 1131.744385,446.833740 
	C1131.769897,450.480255 1133.308594,454.321167 1134.917603,457.712555 
	C1139.430908,467.225494 1155.699219,468.870270 1160.304443,458.574493 
z"/>
<path fill="#054BF5" opacity="1.000000" stroke="none" 
	d="
M1079.382202,396.843994 
	C1085.108887,398.091156 1090.460449,399.021667 1095.645874,400.524841 
	C1096.762939,400.848694 1098.103394,403.348450 1097.928467,404.657135 
	C1097.279663,409.511475 1095.840820,414.255432 1095.077637,419.100494 
	C1094.256958,424.310944 1091.508789,426.090424 1086.289429,424.704407 
	C1084.616211,420.710144 1082.115356,416.676331 1081.332397,412.332825 
	C1080.529175,407.876709 1078.629028,405.052124 1074.410156,405.139374 
	C1069.978516,405.231049 1065.228638,405.572021 1062.637329,410.553528 
	C1058.104736,419.266479 1057.561035,428.615051 1058.394287,438.022461 
	C1058.806030,442.670746 1060.042358,447.501801 1062.049927,451.703339 
	C1067.370361,462.837738 1081.454834,466.271698 1092.684326,459.805603 
	C1093.955200,459.073853 1095.739502,459.233521 1097.285767,458.979828 
	C1097.158203,460.781891 1097.718262,463.135925 1096.788574,464.294067 
	C1091.728760,470.597687 1084.882690,473.981659 1076.872803,474.693634 
	C1068.657593,475.423889 1060.721191,474.579407 1052.983398,471.086517 
	C1043.507324,466.809052 1038.658569,458.864349 1036.559692,449.680634 
	C1033.783081,437.532349 1033.710327,425.251862 1039.863037,413.549561 
	C1045.413452,402.992859 1054.635864,398.694366 1065.607178,397.134552 
	C1069.984497,396.512207 1074.496704,396.838104 1079.382202,396.843994 
z"/>
<path fill="#170897" opacity="1.000000" stroke="none" 
	d="
M813.075073,468.983063 
	C813.075073,460.027222 813.075073,451.567749 813.075073,442.792084 
	C826.017456,442.792084 838.570740,442.792084 851.468872,442.792084 
	C851.468872,455.410522 851.468872,467.933868 851.468872,480.732727 
	C838.842896,480.732727 826.274048,480.732727 813.075073,480.732727 
	C813.075073,477.002197 813.075073,473.240814 813.075073,468.983063 
z"/>
<path fill="#140596" opacity="1.000000" stroke="none" 
	d="
M1011.649414,442.488831 
	C1012.861389,443.501587 1014.238281,444.500519 1014.251587,445.517303 
	C1014.403748,457.155243 1014.348450,468.795929 1014.348450,480.717133 
	C1001.542358,480.717133 988.975525,480.717133 976.155640,480.717133 
	C976.155640,468.080719 976.155640,455.524139 976.155640,442.483276 
	C987.965027,442.483276 999.572998,442.483276 1011.649414,442.488831 
z"/>
<path fill="#DAF2F4" opacity="1.000000" stroke="none" 
	d="
M478.996948,688.416809 
	C477.654388,688.804565 476.224274,688.884888 474.367615,688.900635 
	C475.065277,684.956848 476.895569,685.905701 478.996948,688.416809 
z"/>
<path fill="#DAF2F4" opacity="1.000000" stroke="none" 
	d="
M623.020264,728.778809 
	C624.541443,728.708984 626.195801,728.966431 627.976562,729.574829 
	C626.453064,729.652588 624.803284,729.379395 623.020264,728.778809 
z"/>
<path fill="#DAF2F4" opacity="1.000000" stroke="none" 
	d="
M503.231995,728.378540 
	C504.213531,727.928223 505.399872,727.735535 506.784241,727.813782 
	C505.800476,728.268555 504.618652,728.452332 503.231995,728.378540 
z"/>
<path fill="#DAF2F4" opacity="1.000000" stroke="none" 
	d="
M294.996582,687.502930 
	C294.285950,687.854065 293.504700,687.908997 292.333557,687.911499 
	C292.172638,687.122009 292.401672,686.385010 292.630707,685.648010 
	C293.395813,686.167542 294.160919,686.687134 294.996582,687.502930 
z"/>
<path fill="#DAF2F4" opacity="1.000000" stroke="none" 
	d="
M374.881897,687.874390 
	C374.448090,688.219360 373.876373,688.324036 373.149109,688.232544 
	C373.577057,687.902222 374.160553,687.768188 374.881897,687.874390 
z"/>
<path fill="#DAF2F4" opacity="1.000000" stroke="none" 
	d="
M455.988617,688.569580 
	C455.587219,688.894653 455.121643,688.942749 454.307373,688.938843 
	C454.613922,688.688721 455.269165,688.490723 455.988617,688.569580 
z"/>
<path fill="#DAF2F4" opacity="1.000000" stroke="none" 
	d="
M606.869751,689.828918 
	C606.442993,690.170227 605.875427,690.280823 605.154419,690.192261 
	C605.576965,689.861450 606.152954,689.729797 606.869751,689.828918 
z"/>
<path fill="#DAF2F4" opacity="1.000000" stroke="none" 
	d="
M291.009125,687.648560 
	C290.860504,687.900574 290.675385,687.920105 290.215698,687.887573 
	C290.133240,687.446045 290.325409,687.056519 290.517578,686.666992 
	C290.669281,686.916687 290.820953,687.166321 291.009125,687.648560 
z"/>
<path fill="#A19BD5" opacity="1.000000" stroke="none" 
	d="
M693.939453,511.997559 
	C693.787170,512.206421 693.455505,512.270447 693.211548,512.089661 
	C693.299133,511.844940 693.760132,511.852753 693.939453,511.997559 
z"/>
<path fill="#DAF2F4" opacity="1.000000" stroke="none" 
	d="
M451.472534,686.457031 
	C451.524536,686.426697 451.420502,686.487366 451.472534,686.457031 
z"/>
<path fill="#FDFCFE" opacity="1.000000" stroke="none" 
	d="
M452.441162,617.771301 
	C445.419830,623.151550 439.157806,629.170654 431.762573,633.002686 
	C425.973999,636.002136 418.838348,637.116150 412.197662,637.577759 
	C403.749817,638.164917 397.834595,632.070312 396.953033,623.627563 
	C395.359497,608.366150 401.088104,597.398193 414.905243,590.711304 
	C421.299591,587.616638 428.117249,585.328613 434.877472,583.079102 
	C440.518799,581.201660 446.356171,579.913452 452.712097,578.201233 
	C452.712097,591.704712 452.712097,604.586121 452.441162,617.771301 
z"/>
<path fill="#FDFDFE" opacity="1.000000" stroke="none" 
	d="
M1288.294434,614.569336 
	C1287.787354,616.350464 1287.652588,618.082458 1286.716553,618.950500 
	C1276.371216,628.545105 1265.633667,637.190491 1250.413818,637.740295 
	C1240.848633,638.085754 1234.297119,633.664612 1232.584351,624.272583 
	C1230.264160,611.549988 1236.063965,598.739502 1247.214600,592.374573 
	C1259.780518,585.201538 1273.663452,581.879395 1288.294800,578.353760 
	C1288.294800,590.609436 1288.294800,602.364197 1288.294434,614.569336 
z"/>
<path fill="#FDFDFF" opacity="1.000000" stroke="none" 
	d="
M1160.136841,458.915161 
	C1155.699219,468.870270 1139.430908,467.225494 1134.917603,457.712555 
	C1133.308594,454.321167 1131.769897,450.480255 1131.744385,446.833740 
	C1131.675049,436.916168 1131.707520,426.890533 1133.089966,417.104126 
	C1134.196655,409.268219 1138.905273,405.938171 1145.458130,405.621796 
	C1153.340454,405.241211 1159.245483,408.690857 1161.430908,416.440277 
	C1165.395020,430.497009 1165.585327,444.662262 1160.136841,458.915161 
z"/>
</svg>