<svg width="121" height="122" xmlns="http://www.w3.org/2000/svg">
 <!-- Created with Method Draw - http://github.com/duopixel/Method-Draw/ -->

 <g>
  <title>background</title>
  <rect fill="#fff" id="canvas_background" height="124" width="123" y="-1" x="-1"/>
  <g display="none" overflow="visible" y="0" x="0" height="100%" width="100%" id="canvasGrid">
   <rect fill="url(#gridpattern)" stroke-width="0" y="0" x="0" height="100%" width="100%"/>
  </g>
 </g>
 <g>
  <title>Layer 1</title>
  <!-- Created with Method Draw - http://github.com/duopixel/Method-Draw/ -->

  <ellipse stroke="#eaea4d" opacity="0.36" ry="5.5" rx="49.5" id="svg_62" cy="109.5" cx="61.50001" stroke-width="0" fill="#82d6c9"/>
  <g id="svg_90">
   <g transform="matrix(0.169281218200922,0,0,0.169281218200922,0,0) " id="svg_67">
    <g id="svg_68">
     <path fill="#39bfa8" id="svg_69" d="m556.88974,70.03845l-404.8,0c-22.4,0 -40.7,18.3 -40.7,40.7l0,404.7c0,22.4 18.3,40.7 40.7,40.7l404.7,0c22.4,0 40.7,-18.3 40.7,-40.7l0,-404.7c0.1,-22.4 -18.2,-40.7 -40.6,-40.7zm16.7,445.5c0,9.2 -7.5,16.7 -16.7,16.7l-404.8,0c-9.2,0 -16.7,-7.5 -16.7,-16.7l0,-404.8c0,-9.2 7.5,-16.7 16.7,-16.7l404.7,0c9.2,0 16.7,7.5 16.7,16.7l0,404.8l0.1,0z"/>
     <path fill="#39bfa8" id="svg_70" d="m304.38974,370.63845c-4.7,-4.7 -12.3,-4.7 -17,0l-36.1,36.1l-36.1,-36.1c-4.7,-4.7 -12.3,-4.7 -17,0s-4.7,12.3 0,17l36.1,36.1l-36.1,36.1c-4.7,4.7 -4.7,12.3 0,17c2.3,2.3 5.4,3.5 8.5,3.5c3.1,0 6.1,-1.2 8.5,-3.5l36.1,-36.1l36.1,36.1c2.3,2.3 5.4,3.5 8.5,3.5s6.1,-1.2 8.5,-3.5c4.7,-4.7 4.7,-12.3 0,-17l-36.1,-36.1l36.1,-36.1c4.7,-4.7 4.7,-12.3 0,-17z"/>
     <path fill="#39bfa8" id="svg_71" d="m314.38974,201.73845l-51,0l0,-51c0,-6.6 -5.4,-12 -12,-12s-12,5.4 -12,12l0,51l-51,0c-6.6,0 -12,5.4 -12,12s5.4,12 12,12l51,0l0,51c0,6.6 5.4,12 12,12s12,-5.4 12,-12l0,-51l51,0c6.6,0 12,-5.4 12,-12s-5.4,-12 -12,-12z"/>
     <path fill="#39bfa8" id="svg_72" d="m515.28974,441.13845l-107.5,0c-6.6,0 -12,5.4 -12,12s5.4,12 12,12l107.4,0c6.6,0 12,-5.4 12,-12s-5.3,-12 -11.9,-12z"/>
     <path fill="#39bfa8" id="svg_73" d="m515.28974,382.23845l-107.5,0c-6.6,0 -12,5.4 -12,12s5.4,12 12,12l107.4,0c6.6,0 12,-5.4 12,-12s-5.3,-12 -11.9,-12z"/>
     <path fill="#39bfa8" id="svg_74" d="m505.98974,225.73845c6.6,0 12,-5.4 12,-12s-5.4,-12 -12,-12l-107.5,0c-6.6,0 -12,5.4 -12,12s5.4,12 12,12l107.5,0z"/>
    </g>
   </g>
   <g transform="matrix(0.169281218200922,0,0,0.169281218200922,0,0) " id="svg_75"/>
   <g transform="matrix(0.169281218200922,0,0,0.169281218200922,0,0) " id="svg_76"/>
   <g transform="matrix(0.169281218200922,0,0,0.169281218200922,0,0) " id="svg_77"/>
   <g transform="matrix(0.169281218200922,0,0,0.169281218200922,0,0) " id="svg_78"/>
   <g transform="matrix(0.169281218200922,0,0,0.169281218200922,0,0) " id="svg_79"/>
   <g transform="matrix(0.169281218200922,0,0,0.169281218200922,0,0) " id="svg_80"/>
   <g transform="matrix(0.169281218200922,0,0,0.169281218200922,0,0) " id="svg_81"/>
   <g transform="matrix(0.169281218200922,0,0,0.169281218200922,0,0) " id="svg_82"/>
   <g transform="matrix(0.169281218200922,0,0,0.169281218200922,0,0) " id="svg_83"/>
   <g transform="matrix(0.169281218200922,0,0,0.169281218200922,0,0) " id="svg_84"/>
   <g transform="matrix(0.169281218200922,0,0,0.169281218200922,0,0) " id="svg_85"/>
   <g transform="matrix(0.169281218200922,0,0,0.169281218200922,0,0) " id="svg_86"/>
   <g transform="matrix(0.169281218200922,0,0,0.169281218200922,0,0) " id="svg_87"/>
   <g transform="matrix(0.169281218200922,0,0,0.169281218200922,0,0) " id="svg_88"/>
   <g transform="matrix(0.169281218200922,0,0,0.169281218200922,0,0) " id="svg_89"/>
  </g>
 </g>
</svg>